<svg width="217" height="201" viewBox="0 0 217 201" fill="none" xmlns="http://www.w3.org/2000/svg">
<path d="M159.73 201C152.274 201 145.11 199.326 139.565 196.274L75.2094 158.402L10.8461 120.525C4.03292 116.786 0.0855235 111.212 0.00121472 105.237C-0.0788432 99.2026 3.80172 93.4752 10.648 89.5361L37.4364 75.1186C43.2623 71.7689 50.8132 69.9261 58.7005 69.9261C66.1565 69.9261 73.3161 71.6064 78.8547 74.6536L143.217 112.53L207.585 150.406C211.722 152.681 214.809 155.632 216.603 158.947V159.695C214.883 156.113 211.554 152.839 207.169 150.425L143.055 112.697L78.9239 74.9554C75.2136 72.9195 70.5764 71.3927 65.7904 70.7043C63.5422 70.3675 61.2231 70.189 58.8693 70.1793C58.8105 70.1793 58.746 70.1793 58.6853 70.1793C50.9077 70.1793 43.4505 71.9923 37.674 75.2773L32.7255 77.9426L30.3675 79.2164L10.98 89.6355C8.56671 91.0274 6.41695 92.7011 4.80209 94.4749C1.84987 97.681 0.268547 101.407 0.3231 105.251C0.372221 108.853 1.84963 112.311 4.535 115.304C6.23416 117.216 8.5471 119.01 11.1774 120.46L75.3728 158.229L139.552 196.001C142.053 197.378 145.026 198.548 148.074 199.326C151.7 200.261 155.624 200.757 159.637 200.767C159.671 200.767 159.701 200.767 159.736 200.767C167.325 200.767 174.609 199.043 180.316 195.902L180.831 195.62L207.561 181.232C211.807 178.789 214.894 175.653 216.583 172.19L216.577 172.888C214.809 176.144 211.806 179.078 207.778 181.391L180.986 195.818C175.163 199.157 167.618 201 159.73 201V201Z" fill="#FEFEFE"/>
<path d="M159.737 200.767C159.701 200.767 159.672 200.767 159.637 200.767C155.624 200.757 151.7 200.262 148.074 199.326C145.027 198.548 142.054 197.378 139.553 196.001L75.3734 158.229L11.178 120.461C8.54764 119.01 6.23469 117.216 4.53553 115.304C1.85016 112.311 0.372753 108.854 0.323631 105.251C0.269079 101.407 1.85016 97.6811 4.80263 94.475C6.41748 92.7012 8.56747 91.0276 10.9805 89.6357L30.368 79.2165L32.7261 77.9427L37.6746 75.2774C43.451 71.9924 50.9084 70.1794 58.6859 70.1794C58.7463 70.1794 58.811 70.1794 58.8698 70.1794C61.2236 70.1889 63.5427 70.3674 65.791 70.7044C70.577 71.3931 75.2142 72.9196 78.9245 74.9555L143.055 112.698L207.17 150.425C211.554 152.839 214.884 156.113 216.603 159.696V160.562C215.062 156.699 211.425 153.017 206.758 150.45L142.886 112.871L78.9948 75.2675C75.3528 73.2606 70.6218 71.6611 65.9296 70.9772C63.6955 70.6355 61.3866 70.4475 59.0427 70.4321C58.9187 70.4321 58.7954 70.4321 58.6715 70.4321C51.0024 70.4321 43.6347 72.2059 37.9176 75.446L32.9825 78.0917L30.6304 79.3597L11.3128 89.7301C8.94344 91.0965 6.72425 92.8058 5.13892 94.5452C2.1711 97.7305 0.586004 101.441 0.640557 105.267C0.695818 108.848 2.17724 112.291 4.87631 115.265C6.54642 117.143 8.93352 118.971 11.5152 120.392L75.5415 158.061L139.537 195.728C141.995 197.076 145.031 198.299 148.024 199.064C151.63 200.008 155.54 200.514 159.543 200.53C159.607 200.53 159.672 200.53 159.731 200.53C167.267 200.53 174.5 198.82 180.167 195.698L180.679 195.416L207.332 181.073C211.846 178.478 215.018 175.103 216.583 171.383V172.19C214.894 175.653 211.807 178.789 207.562 181.232L180.832 195.62L180.317 195.902C174.61 199.043 167.326 200.767 159.737 200.767L159.737 200.767Z" fill="#FEFEFE"/>
<path d="M159.73 200.53C159.671 200.53 159.607 200.53 159.542 200.53C155.539 200.514 151.63 200.009 148.023 199.064C145.03 198.299 141.994 197.076 139.537 195.728L75.541 158.061L11.5147 120.392C8.933 118.971 6.5459 117.142 4.87578 115.265C2.17672 112.291 0.695295 108.848 0.640034 105.267C0.585481 101.441 2.17082 97.7308 5.13839 94.5453C6.72373 92.8057 8.94292 91.0966 11.3123 89.7302L30.6299 79.3598L32.982 78.0918L37.917 75.4461C43.6342 72.2063 51.0019 70.4323 58.6709 70.4323C58.7949 70.4323 58.9182 70.4323 59.0422 70.4323C61.3861 70.4476 63.6948 70.6356 65.9291 70.9773C70.6215 71.6612 75.3523 73.2607 78.9943 75.2676L142.886 112.871L206.758 150.45C211.425 153.018 215.062 156.699 216.603 160.562V161.573C216.508 161.311 216.409 161.048 216.305 160.785C214.858 156.891 211.028 153.057 206.342 150.47L142.723 113.03L79.063 75.5697C75.4956 73.6131 70.6657 71.9281 66.0622 71.2598C63.8435 70.9086 61.5443 70.7045 59.2106 70.6797C59.0375 70.6797 58.8636 70.6755 58.691 70.6755C51.1198 70.6755 43.8321 72.4238 38.16 75.6046L33.2345 78.2354L30.8918 79.5034L11.6491 89.8282C9.32479 91.1668 7.03144 92.9111 5.48106 94.6149C2.49247 97.7802 0.906658 101.477 0.957196 105.281C1.01246 108.848 2.50215 112.272 5.22247 115.22C6.85692 117.068 9.32053 118.93 11.8512 120.318L75.7032 157.897L139.522 195.451C141.929 196.775 145.041 198.053 147.974 198.801C151.561 199.757 155.459 200.271 159.453 200.297C159.538 200.297 159.622 200.297 159.706 200.297C167.182 200.297 174.386 198.603 180.013 195.496L180.523 195.214L207.11 180.915C211.93 178.141 215.195 174.474 216.582 170.462V171.383C215.017 175.103 211.845 178.478 207.331 181.074L180.678 195.416L180.166 195.699C174.499 198.821 167.266 200.53 159.73 200.53H159.73Z" fill="#F9FCFE"/>
<path d="M159.706 200.297C159.622 200.297 159.538 200.297 159.453 200.297C155.459 200.271 151.561 199.757 147.974 198.801C145.041 198.052 141.929 196.774 139.522 195.451L75.7032 157.897L11.8512 120.318C9.32055 118.93 6.85694 117.068 5.22249 115.22C2.50217 112.272 1.01224 108.848 0.957215 105.281C0.906914 101.476 2.49272 97.7799 5.48108 94.6146C7.03146 92.9107 9.32481 91.1665 11.6491 89.8279L30.8918 79.503L33.2345 78.2351L38.1601 75.6043C43.8321 72.4237 51.1198 70.6752 58.691 70.6752C58.8637 70.6752 59.0375 70.6794 59.2106 70.6794C61.5443 70.7042 63.8436 70.9083 66.0623 71.2594C70.6657 71.9278 75.4957 73.6128 79.0631 75.5693L142.723 113.03L206.342 150.47C211.028 153.056 214.858 156.891 216.305 160.785C216.408 161.048 216.508 161.31 216.603 161.573L216.597 162.841C216.424 162.123 216.191 161.414 215.893 160.726C214.482 156.906 210.523 153.027 205.93 150.495L142.555 113.203L79.1375 75.8825C75.6395 73.9545 70.7099 72.1906 66.2018 71.5419C63.9968 71.1754 61.7075 70.9732 59.3792 70.9281C59.1575 70.9281 58.9284 70.9281 58.705 70.9281C51.2353 70.9281 44.0265 72.6315 38.3976 75.7675L33.4877 78.3841L31.1551 79.6421L11.9811 89.9224C9.70195 91.2354 7.3439 93.0092 5.82257 94.6836C2.81579 97.8304 1.22455 101.506 1.27957 105.296C1.33413 108.844 2.82996 112.252 5.56988 115.18C7.17056 116.989 9.70715 118.887 12.1885 120.249L75.8685 157.728L139.502 195.173C141.865 196.477 145.052 197.805 147.925 198.538C151.492 199.509 155.375 200.03 159.359 200.06C159.473 200.06 159.587 200.06 159.7 200.06C167.123 200.06 174.277 198.379 179.865 195.298L180.367 195.015L206.887 180.758C212.124 177.74 215.482 173.667 216.587 169.263L216.583 170.462C215.195 174.474 211.93 178.141 207.11 180.915L180.524 195.214L180.014 195.497C174.387 198.603 167.182 200.297 159.706 200.297L159.706 200.297Z" fill="#F9F8F8"/>
<path d="M159.7 200.059C159.587 200.059 159.473 200.059 159.359 200.059C155.375 200.029 151.492 199.508 147.925 198.538C145.052 197.805 141.865 196.476 139.502 195.173L75.8687 157.727L12.1886 120.249C9.70729 118.886 7.1707 116.989 5.57001 115.18C2.8301 112.252 1.33427 108.843 1.27971 105.296C1.22445 101.505 2.81569 97.8299 5.82271 94.6831C7.34404 93.009 9.70209 91.2349 11.9813 89.9219L31.1553 79.6416L33.4878 78.3836L38.3978 75.767C44.0266 72.6308 51.2354 70.9276 58.7051 70.9276C58.9288 70.9276 59.1576 70.9276 59.3793 70.9276C61.7076 70.9727 63.997 71.1749 66.202 71.5414C70.71 72.1901 75.6396 73.954 79.1376 75.882L142.555 113.202L205.93 150.495C210.523 153.027 214.482 156.906 215.894 160.726C216.191 161.414 216.424 162.123 216.597 162.841L216.593 165.12C216.483 163.593 216.116 162.098 215.487 160.661C214.1 156.92 210.017 152.996 205.519 150.52L142.39 113.371L79.2063 76.1838C75.7837 74.3009 70.7603 72.4582 66.3408 71.8193C64.146 71.4427 61.8668 71.2233 59.5532 71.1801C59.2655 71.1746 58.979 71.1746 58.6957 71.1746C51.3339 71.1746 44.2092 72.85 38.6349 75.9257L33.741 78.5263L31.4167 79.7902L12.3126 90.0253C10.0837 91.3093 7.65105 93.1122 6.16018 94.7528C3.13781 97.8788 1.54256 101.54 1.59711 105.311C1.65166 108.838 3.15741 112.232 5.91103 115.144C7.48267 116.914 10.0974 118.845 12.5261 120.184L76.0371 157.559L139.488 194.905C141.801 196.174 145.056 197.556 147.875 198.269C151.422 199.255 155.297 199.781 159.265 199.82C159.409 199.82 159.558 199.82 159.701 199.82C167.058 199.82 174.168 198.156 179.716 195.094L180.212 194.816L206.664 180.588C212.693 177.125 216.185 172.254 216.588 167.092V169.262C215.482 173.666 212.124 177.738 206.887 180.757L180.367 195.014L179.865 195.298C174.277 198.378 167.123 200.059 159.701 200.059L159.7 200.059Z" fill="#F7F7F8"/>
<path d="M159.701 199.82C159.558 199.82 159.409 199.82 159.265 199.82C155.297 199.781 151.422 199.256 147.875 198.27C145.056 197.557 141.8 196.175 139.488 194.906L76.037 157.559L12.526 120.185C10.0974 118.846 7.48262 116.915 5.91098 115.145C3.15736 112.233 1.65161 108.839 1.59706 105.312C1.5425 101.541 3.13776 97.8796 6.16012 94.7535C7.651 93.1132 10.0839 91.3101 12.3125 90.0261L31.4166 79.791L33.7409 78.527L38.6348 75.9265C44.2091 72.8507 51.3336 71.1754 58.6956 71.1754C58.979 71.1754 59.2655 71.1754 59.5531 71.1808C61.8668 71.2241 64.1459 71.4437 66.3408 71.8201C70.7603 72.4589 75.7836 74.3015 79.2063 76.1846L142.39 113.371L205.519 150.521C210.017 152.997 214.1 156.921 215.487 160.662C216.116 162.099 216.483 163.594 216.593 165.12L216.587 167.092C216.185 172.255 212.692 177.125 206.663 180.589L180.212 194.817L179.716 195.095C174.167 198.156 167.058 199.82 159.7 199.82H159.701ZM58.6857 71.4238C51.4276 71.4238 44.3974 73.0685 38.8783 76.0948L33.9938 78.6758L31.679 79.9343L12.6455 90.1258C10.4641 91.3788 7.9632 93.2126 6.50137 94.8223C3.46484 97.9287 1.854 101.576 1.91871 105.326C1.97397 108.834 3.48916 112.213 6.25813 115.106C7.80001 116.835 10.4856 118.807 12.8633 120.116L76.1997 157.392L139.472 194.629C141.732 195.873 145.066 197.309 147.821 198.013C151.353 199.003 155.212 199.538 159.166 199.583C159.344 199.589 159.523 199.589 159.701 199.589C167 199.589 174.06 197.933 179.569 194.891L180.059 194.619L206.441 180.43C213.208 176.54 216.716 170.873 216.23 165.056C216.107 163.53 215.725 162.034 215.082 160.597C213.723 156.941 209.507 152.967 205.103 150.544L142.227 113.54L79.2811 76.4961C75.9272 74.6439 70.8044 72.7253 66.4797 72.096C64.299 71.7153 62.0311 71.4862 59.7264 71.4328C59.3795 71.4274 59.0326 71.4234 58.6857 71.4234V71.4238Z" fill="#F7F5F6"/>
<path d="M159.699 199.588C159.521 199.588 159.342 199.588 159.164 199.583C155.211 199.538 151.351 199.003 147.82 198.013C145.064 197.309 141.73 195.873 139.47 194.628L76.1979 157.392L12.8615 120.115C10.4838 118.807 7.79846 116.835 6.25634 115.106C3.48737 112.213 1.97194 108.833 1.91692 105.326C1.85221 101.576 3.46305 97.9288 6.49958 94.8221C7.96141 93.2125 10.4626 91.3787 12.6437 90.1256L31.6772 79.9342L33.992 78.6757L38.8765 76.0947C44.3956 73.0683 51.426 71.4237 58.6839 71.4237C59.0308 71.4237 59.3777 71.428 59.7247 71.4332C62.0293 71.4865 64.2972 71.7154 66.4779 72.0963C70.8026 72.7257 75.9254 74.6442 79.2793 76.4964L142.226 113.54L205.101 150.545C209.506 152.967 213.722 156.941 215.08 160.597C215.723 162.034 216.105 163.53 216.228 165.057C216.714 170.873 213.206 176.54 206.439 180.43L180.057 194.619L179.567 194.891C174.058 197.933 166.998 199.589 159.699 199.589V199.588ZM58.6097 71.661C51.4751 71.661 44.5639 73.2915 39.1148 76.2532L34.2488 78.8207L31.9358 80.0733L12.9807 90.2201C10.8451 91.4488 8.26936 93.3166 6.84249 94.8923C3.78517 97.9779 2.16961 101.605 2.23431 105.336C2.28957 108.828 3.81422 112.193 6.60349 115.067C8.11042 116.756 10.8699 118.767 13.1985 120.045L76.3673 157.224L139.451 194.356C141.671 195.575 145.074 197.066 147.769 197.751C151.283 198.751 155.133 199.295 159.071 199.35C159.278 199.35 159.487 199.35 159.695 199.35C166.934 199.35 173.948 197.706 179.413 194.689L179.899 194.416L206.217 180.271C212.969 176.387 216.417 170.724 215.863 164.946C215.72 163.431 215.333 161.955 214.673 160.538C213.34 156.955 209.001 152.937 204.691 150.57L142.058 113.709L79.35 76.7982C76.065 74.9954 70.8477 72.9883 66.6167 72.3787C64.4467 71.9784 62.1925 71.7399 59.8937 71.6807C59.4625 71.6712 59.0367 71.661 58.6102 71.661H58.6097Z" fill="#F7F5F5"/>
<path d="M159.695 199.35C159.487 199.35 159.278 199.35 159.071 199.35C155.133 199.295 151.283 198.75 147.769 197.751C145.074 197.066 141.671 195.575 139.451 194.356L76.3672 157.223L13.1985 120.045C10.8702 118.767 8.1104 116.756 6.60347 115.067C3.8142 112.193 2.28955 108.828 2.23429 105.336C2.16958 101.605 3.78515 97.978 6.84247 94.8921C8.26934 93.3162 10.8451 91.4487 12.9807 90.2199L31.9358 80.0731L34.2487 78.8205L39.1148 76.253C44.5639 73.2911 51.4751 71.6609 58.6097 71.6609C59.0362 71.6609 59.462 71.671 59.8933 71.6805C62.192 71.7398 64.4462 71.9783 66.6162 72.3786C70.8473 72.9883 76.0645 74.9952 79.3495 76.7981L142.057 113.709L204.69 150.57C209 152.937 213.34 156.955 214.672 160.538C215.332 161.955 215.719 163.431 215.862 164.946C216.417 170.724 212.969 176.387 206.217 180.271L179.898 194.416L179.412 194.688C173.948 197.705 166.933 199.35 159.695 199.35H159.695ZM58.6995 71.9136C51.6395 71.9136 44.7725 73.4935 39.3583 76.4174L34.4974 78.9681L32.1986 80.2165L13.3123 90.3182C11.2211 91.5233 8.58083 93.4246 7.17923 94.9554C4.10656 98.0281 2.48746 101.639 2.55216 105.351C2.61097 108.828 4.1375 112.174 6.94614 115.027C8.42237 116.686 11.256 118.728 13.5357 119.976L76.5295 157.055L139.441 194.079C141.607 195.273 145.08 196.819 147.72 197.492C151.213 198.503 155.048 199.053 158.976 199.112C159.215 199.112 159.453 199.117 159.69 199.117C166.869 199.117 173.834 197.487 179.264 194.485L179.745 194.218L205.994 180.107C212.732 176.233 216.121 170.585 215.501 164.838C215.337 163.341 214.935 161.875 214.263 160.473C212.964 156.971 208.495 152.908 204.275 150.594L141.893 113.873L79.4243 77.1001C76.2081 75.3362 70.8966 73.2564 66.7551 72.6568C64.6004 72.2506 62.351 72.008 60.0675 71.9332C59.6108 71.9178 59.1501 71.9136 58.6992 71.9136H58.6995Z" fill="#F3F4F4"/>
<path d="M159.691 199.117C159.454 199.117 159.216 199.113 158.978 199.113C155.05 199.053 151.214 198.503 147.721 197.492C145.081 196.819 141.608 195.273 139.442 194.079L76.5309 157.055L13.5371 119.976C11.2573 118.728 8.4236 116.686 6.9476 115.027C4.13872 112.174 2.61219 108.828 2.55362 105.351C2.48892 101.639 4.10802 98.0284 7.18069 94.9555C8.58206 93.4247 11.2226 91.5234 13.3137 90.3183L32.2001 80.2166L34.4989 78.9682L39.3597 76.4175C44.7739 73.4936 51.6412 71.9137 58.7009 71.9137C59.1518 71.9137 59.6125 71.9179 60.0692 71.9333C62.3527 72.0079 64.6021 72.2507 66.7568 72.6569C70.8983 73.2565 76.2098 75.3364 79.426 77.1002L141.895 113.873L204.276 150.594C208.497 152.908 212.965 156.971 214.264 160.474C214.937 161.875 215.338 163.341 215.503 164.839C216.122 170.585 212.734 176.233 205.995 180.107L179.747 194.218L179.266 194.485C173.836 197.488 166.87 199.117 159.691 199.117H159.691ZM58.6955 72.1567C51.7394 72.1567 44.9617 73.7111 39.5968 76.575L34.7563 79.117L32.4629 80.3654L13.6453 90.4137C11.5992 91.5874 8.89001 93.5244 7.52194 95.0254C4.43133 98.0773 2.81057 101.67 2.87527 105.365C2.93408 108.824 4.47053 112.152 7.29475 114.982C8.73533 116.607 11.6443 118.682 13.8744 119.906L76.6955 156.886L139.423 193.806C141.544 194.971 145.091 196.57 147.673 197.229C151.146 198.245 154.966 198.81 158.89 198.879C159.136 198.885 159.384 198.885 159.632 198.885C166.776 198.885 173.713 197.274 179.118 194.281L179.593 194.019L205.768 179.949C212.501 176.079 215.829 170.436 215.137 164.728C214.959 163.247 214.547 161.796 213.857 160.413C212.589 156.985 207.987 152.888 203.865 150.614L141.726 114.045L79.495 77.4129C76.3529 75.6828 70.9434 73.5229 66.8904 72.9346C64.7501 72.523 62.5158 72.2644 60.2378 72.1803C59.7225 72.1662 59.207 72.1567 58.696 72.1567H58.6955Z" fill="#F1F1F3"/>
<path d="M159.632 198.885C159.383 198.885 159.136 198.885 158.889 198.879C154.965 198.81 151.146 198.246 147.672 197.229C145.091 196.57 141.544 194.97 139.423 193.806L76.6952 156.886L13.874 119.906C11.644 118.682 8.73496 116.606 7.29439 114.982C4.47017 112.152 2.93348 108.824 2.87491 105.365C2.8102 101.669 4.4312 98.0772 7.52158 95.0253C8.88988 93.5243 11.5989 91.5873 13.6449 90.4136L32.4626 80.3653L34.7559 79.1169L39.5965 76.5749C44.9613 73.711 51.7391 72.1566 58.6951 72.1566C59.2064 72.1566 59.7217 72.1661 60.237 72.1802C62.515 72.2645 64.7491 72.5231 66.8896 72.9345C70.9426 73.5228 76.352 75.6827 79.4941 77.4128L141.725 114.045L203.864 150.614C207.986 152.888 212.588 156.985 213.856 160.413C214.546 161.796 214.958 163.247 215.136 164.728C215.828 170.435 212.5 176.079 205.767 179.949L179.592 194.019L179.117 194.281C173.712 197.274 166.775 198.885 159.631 198.885H159.632ZM58.6914 72.4039C51.8338 72.4039 45.1455 73.9245 39.84 76.7393L35.0088 79.2598L32.7254 80.5041L13.9779 90.5123C11.981 91.6622 9.19595 93.6284 7.8633 95.0943C4.75261 98.1266 3.1276 101.703 3.19231 105.375C3.25111 108.818 4.79772 112.128 7.64155 114.943C9.04882 116.533 12.0303 118.643 14.211 119.843L76.8638 156.718L139.407 193.528C141.479 194.669 145.101 196.323 147.623 196.966C151.081 197.993 154.885 198.561 158.795 198.642C159.072 198.646 159.349 198.646 159.626 198.646C166.711 198.646 173.603 197.051 178.969 194.083L179.44 193.816L205.544 179.791C212.261 175.926 215.532 170.293 214.774 164.625C214.576 163.162 214.15 161.722 213.451 160.354C212.212 157.004 207.481 152.858 203.449 150.634L141.563 114.214L79.5688 77.7191C76.4973 76.0301 70.9882 73.7911 67.029 73.2111C64.9045 72.7857 62.6799 72.5271 60.4061 72.4329C59.8356 72.4133 59.2614 72.4039 58.6916 72.4039H58.6914Z" fill="#F1F1F0"/>
<path d="M159.626 198.646C159.349 198.646 159.072 198.646 158.795 198.642C154.885 198.562 151.081 197.993 147.623 196.966C145.101 196.324 141.479 194.669 139.407 193.528L76.8638 156.718L14.211 119.843C12.0303 118.644 9.0488 116.533 7.64153 114.943C4.7977 112.129 3.25109 108.818 3.19229 105.375C3.12758 101.704 4.75259 98.1267 7.86328 95.0945C9.19593 93.6284 11.981 91.6624 13.9779 90.5125L32.7254 80.5043L35.0088 79.26L39.8399 76.7395C45.1455 73.9247 51.8337 72.4041 58.6913 72.4041C59.2612 72.4041 59.8353 72.4135 60.4059 72.4331C62.6796 72.5273 64.9042 72.7859 67.0287 73.2112C70.9881 73.7913 76.497 76.03 79.5685 77.7193L141.563 114.214L203.449 150.634C207.481 152.858 212.212 157.005 213.451 160.354C214.15 161.722 214.576 163.162 214.773 164.625C215.532 170.293 212.261 175.926 205.544 179.791L179.44 193.817L178.969 194.083C173.603 197.05 166.711 198.646 159.626 198.646H159.626ZM58.6559 72.6412C51.9138 72.6412 45.3243 74.1422 40.0773 76.8977L35.2615 79.4045L32.9878 80.6477L14.3154 90.606C12.3631 91.7311 9.50907 93.728 8.20028 95.1589C5.07424 98.177 3.44498 101.739 3.50969 105.396C3.57321 108.814 5.12454 112.109 7.98868 114.908C9.36053 116.454 12.4167 118.604 14.5468 119.773L77.027 156.55L139.393 193.256C141.415 194.371 145.11 196.075 147.572 196.704C151.006 197.74 154.801 198.32 158.701 198.403C159.007 198.409 159.315 198.415 159.623 198.415C166.653 198.415 173.495 196.829 178.815 193.881L179.287 193.618L205.321 179.632C212.03 175.777 215.235 170.153 214.408 164.511C214.194 163.064 213.759 161.641 213.045 160.289C211.832 157.019 206.972 152.827 203.038 150.658L141.401 114.382L79.6382 78.0263C76.6413 76.3763 71.0332 74.0534 67.1687 73.4927C65.0539 73.0575 62.8428 72.7793 60.5792 72.6808C59.9404 72.656 59.2957 72.6404 58.6564 72.6404L58.6559 72.6412Z" fill="#EEEEEF"/>
<path d="M159.623 198.415C159.315 198.415 159.008 198.409 158.701 198.403C154.801 198.32 151.006 197.74 147.572 196.704C145.11 196.075 141.415 194.371 139.393 193.256L77.0269 156.55L14.5468 119.773C12.4164 118.604 9.36027 116.454 7.98866 114.908C5.12476 112.109 3.57319 108.814 3.50967 105.396C3.44496 101.739 5.07422 98.1771 8.20026 95.159C9.50905 93.7279 12.363 91.7312 14.3154 90.6061L32.9878 80.6477L35.2615 79.4046L40.0773 76.8978C45.3242 74.1423 51.9138 72.6412 58.6559 72.6412C59.2952 72.6412 59.9399 72.6566 60.5787 72.6816C62.8425 72.7801 65.0534 73.0583 67.1682 73.4935C71.0328 74.0539 76.6408 76.377 79.6377 78.0271L141.4 114.382L203.037 150.658C206.971 152.828 211.832 157.02 213.045 160.29C213.758 161.642 214.194 163.065 214.407 164.511C215.235 170.154 212.03 175.777 205.321 179.632L179.287 193.619L178.815 193.882C173.495 196.829 166.652 198.415 159.622 198.415L159.623 198.415ZM58.6561 72.8838C52.012 72.8838 45.507 74.3558 40.3148 77.0662L35.5144 79.5534L33.2454 80.7923L14.6467 90.7055C12.7399 91.8058 9.81559 93.8323 8.5434 95.2336C5.39776 98.2262 3.76141 101.774 3.82612 105.405C3.89602 108.809 5.45113 112.089 8.33582 114.869C9.67271 116.374 12.8047 118.564 14.8798 119.704L77.1956 156.381L139.374 192.984C141.35 194.069 145.115 195.828 147.518 196.442C150.942 197.492 154.723 198.077 158.607 198.165C158.943 198.176 159.28 198.176 159.617 198.176C166.588 198.176 173.386 196.61 178.667 193.677L179.128 193.421L205.098 179.473C211.792 175.618 214.937 170.011 214.041 164.407C213.814 162.97 213.363 161.563 212.634 160.225C211.45 157.03 206.466 152.799 202.626 150.683L141.232 114.551L79.7083 78.3348C76.7839 76.7294 71.0821 74.3208 67.3071 73.7757C65.2065 73.3249 63.0015 73.0385 60.7471 72.9348C60.049 72.8998 59.3497 72.8838 58.6559 72.8838H58.6561Z" fill="#EEEEEE"/>
<path d="M159.616 198.176C159.279 198.176 158.942 198.176 158.606 198.166C154.722 198.077 150.941 197.492 147.517 196.442C145.114 195.828 141.349 194.07 139.373 192.984L77.1945 156.381L14.8788 119.704C12.8036 118.564 9.67168 116.374 8.33478 114.869C5.4501 112.09 3.89499 108.809 3.82509 105.406C3.76038 101.774 5.39673 98.2265 8.54237 95.2339C9.81456 93.8325 12.7389 91.8061 14.6457 90.7058L33.2444 80.7925L35.5134 79.5536L40.3138 77.0664C45.5062 74.356 52.011 72.884 58.6551 72.884C59.3489 72.884 60.0482 72.9001 60.7463 72.935C63.0007 73.0387 65.2057 73.3252 67.3063 73.776C71.0813 74.3211 76.7829 76.7294 79.7075 78.3351L141.231 114.552L202.625 150.683C206.465 152.799 211.449 157.03 212.633 160.225C213.362 161.563 213.813 162.971 214.04 164.408C214.936 170.011 211.791 175.619 205.097 179.474L179.127 193.421L178.667 193.678C173.385 196.61 166.588 198.176 159.616 198.176H159.616ZM58.6612 73.1273C52.1107 73.1273 45.6954 74.5697 40.557 77.2253L35.7668 79.7015L33.5072 80.9356L14.9772 90.8002C13.1191 91.875 10.1282 93.9305 8.88338 95.2986C5.72239 98.2759 4.07778 101.808 4.14839 105.42C4.21121 108.805 5.78285 112.068 8.6758 114.828C9.98884 116.305 13.1938 118.52 15.2162 119.639L77.3589 156.207L139.358 192.707C141.284 193.766 145.125 195.585 147.468 196.184C150.872 197.239 154.637 197.835 158.512 197.928C158.873 197.939 159.24 197.943 159.606 197.943C166.522 197.943 173.27 196.382 178.517 193.474L178.972 193.221L204.875 179.315C211.558 175.465 214.64 169.866 213.674 164.297C213.431 162.881 212.965 161.489 212.227 160.161C211.073 157.045 205.96 152.769 202.21 150.708L141.067 114.72L79.7817 78.6418C76.9225 77.0702 71.1264 74.5889 67.444 74.0485C65.3547 73.5972 63.1638 73.3013 60.9196 73.1814C60.1665 73.1464 59.4084 73.1268 58.6612 73.1268V73.1273Z" fill="#ECEDEE"/>
<path d="M159.606 197.943C159.24 197.943 158.873 197.938 158.512 197.928C154.638 197.835 150.872 197.239 147.468 196.184C145.125 195.585 141.285 193.766 139.358 192.707L77.3592 156.207L15.2165 119.639C13.194 118.52 9.98912 116.305 8.67607 114.828C5.78312 112.068 4.21148 108.805 4.14867 105.42C4.07805 101.808 5.72267 98.2759 8.88366 95.2986C10.1285 93.9303 13.1194 91.8748 14.9775 90.8003L33.5075 80.9357L35.7671 79.7015L40.5573 77.2254C45.6957 74.5695 52.1109 73.1273 58.6615 73.1273C59.4087 73.1273 60.1668 73.1469 60.9199 73.1819C63.1641 73.3016 65.355 73.5975 67.4443 74.049C71.1267 74.5894 76.9228 77.0707 79.7819 78.6423L141.067 114.72L202.21 150.709C205.96 152.769 211.073 157.045 212.228 160.162C212.965 161.489 213.431 162.881 213.674 164.298C214.641 169.866 211.558 175.465 204.876 179.315L178.973 193.222L178.518 193.474C173.271 196.383 166.523 197.943 159.606 197.943V197.943ZM58.7354 73.3743C52.2597 73.3743 45.9037 74.7717 40.7956 77.3883L36.0195 79.846L33.7694 81.0845L15.31 90.904C13.501 91.9447 10.4343 94.0347 9.22632 95.3674C6.04573 98.325 4.39522 101.843 4.46394 105.44C4.53455 108.805 6.1043 112.049 9.02299 114.789C10.3011 116.225 13.5802 118.48 15.5575 119.565L77.5224 156.044L139.338 192.435C141.221 193.47 145.13 195.338 147.419 195.918C150.802 196.988 154.553 197.592 158.418 197.696C158.809 197.706 159.205 197.706 159.602 197.706C166.458 197.706 173.162 196.165 178.363 193.272L178.82 193.019L204.652 179.147C211.32 175.313 214.348 169.723 213.311 164.194C213.045 162.787 212.574 161.41 211.816 160.101C210.691 157.066 205.454 152.74 201.799 150.733L140.898 114.889L79.8507 78.9486C77.0656 77.4179 71.1704 74.847 67.5836 74.3315C65.5078 73.8665 63.3223 73.5647 61.0883 73.4353C60.3061 73.3956 59.5178 73.3748 58.7357 73.3748L58.7354 73.3743Z" fill="#ECEDEE"/>
<path d="M159.602 197.705C159.205 197.705 158.809 197.705 158.418 197.695C154.553 197.591 150.802 196.988 147.419 195.917C145.13 195.337 141.221 193.47 139.338 192.434L77.5224 156.044L15.5575 119.564C13.5802 118.479 10.3011 116.225 9.02303 114.788C6.10457 112.048 4.53459 108.804 4.46398 105.439C4.39525 101.842 6.04577 98.3243 9.22636 95.3667C10.4346 94.034 13.5013 91.944 15.3101 90.9033L33.7694 81.0838L36.0196 79.8454L40.7956 77.3877C45.9038 74.771 52.2597 73.3737 58.7355 73.3737C59.5176 73.3737 60.3059 73.3944 61.0881 73.4341C63.3221 73.5633 65.5076 73.8653 67.5834 74.3303C71.1702 74.8456 77.0654 77.4167 79.8505 78.9475L140.898 114.888L201.799 150.732C205.454 152.738 210.691 157.064 211.815 160.1C212.574 161.409 213.044 162.786 213.311 164.193C214.348 169.722 211.32 175.312 204.652 179.146L178.819 193.018L178.363 193.271C173.161 196.164 166.458 197.705 159.602 197.705L159.602 197.705ZM58.675 73.6072C52.319 73.6072 46.0721 74.9902 41.0377 77.5506L36.2765 79.9946L34.0323 81.2217L15.6475 90.998C13.8777 92.0132 10.7416 94.1382 9.56194 95.4371C6.36695 98.3699 4.71289 101.872 4.78704 105.449C4.85576 108.798 6.43567 112.029 9.36971 114.743C10.6121 116.151 13.9677 118.435 15.8886 119.496L77.6903 155.875L139.328 192.161C141.156 193.162 145.139 195.088 147.369 195.655C150.733 196.734 154.473 197.348 158.324 197.458C158.739 197.472 159.151 197.477 159.566 197.477C166.379 197.477 173.047 195.947 178.215 193.068L178.666 192.821L204.429 178.987C211.082 175.163 214.06 169.583 212.945 164.08C212.668 162.692 212.177 161.335 211.41 160.042C210.314 157.078 204.944 152.719 201.381 150.751L140.735 115.056L79.9189 79.2554C77.2097 77.7596 71.2203 75.1139 67.7218 74.6123C65.6561 74.1324 63.486 73.8146 61.2614 73.6811C60.3992 73.6325 59.5325 73.607 58.6745 73.607L58.675 73.6072Z" fill="#EAECEB"/>
<path d="M159.568 197.478C159.153 197.478 158.741 197.472 158.325 197.458C154.474 197.348 150.735 196.734 147.371 195.655C145.14 195.089 141.157 193.162 139.329 192.161L77.6918 155.875L15.8901 119.496C13.9692 118.435 10.6136 116.151 9.37119 114.744C6.43715 112.029 4.85724 108.798 4.78852 105.449C4.71437 101.872 6.36843 98.3699 9.56342 95.4373C10.743 94.1384 13.8792 92.0134 15.649 90.9982L34.0338 81.2219L36.278 79.9948L41.0392 77.5508C46.0739 74.9906 52.3205 73.6074 58.6765 73.6074C59.5347 73.6074 60.4012 73.6329 61.2634 73.6816C63.488 73.815 65.6581 74.1329 67.7237 74.6127C71.2222 75.1146 77.2117 77.7603 79.9209 79.2559L140.737 115.057L201.383 150.752C204.946 152.72 210.316 157.079 211.412 160.042C212.179 161.336 212.67 162.692 212.946 164.08C214.062 169.584 211.084 175.163 204.431 178.988L178.668 192.821L178.217 193.068C173.049 195.947 166.381 197.478 159.568 197.478L159.568 197.478ZM58.6862 73.8464C52.4239 73.8464 46.2614 75.2088 41.2772 77.7097C40.817 77.8585 36.9222 79.9148 36.5309 80.1419L34.2961 81.3667L15.9803 91.0967C14.2611 92.0824 11.0548 94.238 9.90609 95.502C6.68984 98.4247 5.03153 101.908 5.1045 105.465C5.17441 108.795 6.76446 112.015 9.71197 114.71C10.9272 116.072 14.3551 118.401 16.2269 119.426L77.8547 155.707L139.309 191.884C141.093 192.864 145.151 194.842 147.32 195.397C150.665 196.482 154.39 197.106 158.23 197.225C158.67 197.235 159.117 197.245 159.558 197.245C166.316 197.245 172.935 195.724 178.068 192.864L178.509 192.623L204.202 178.829C210.85 175.004 213.764 169.436 212.585 163.976C212.287 162.599 211.787 161.256 211.003 159.978C209.939 157.094 204.439 152.69 200.972 150.778L140.572 115.225L79.9948 79.5638C77.3545 78.1114 71.2647 75.3814 67.8624 74.8857C65.8104 74.4054 63.6505 74.0738 61.431 73.935C60.5202 73.8757 59.6027 73.8466 58.6857 73.8466L58.6862 73.8464Z" fill="#EAECEB"/>
<path d="M159.557 197.245C159.116 197.245 158.67 197.235 158.229 197.225C154.39 197.106 150.665 196.482 147.319 195.397C145.15 194.842 141.092 192.864 139.309 191.884L77.8541 155.707L16.2263 119.426C14.3545 118.401 10.9266 116.072 9.71134 114.71C6.76383 112.015 5.17377 108.795 5.10387 105.465C5.0309 101.908 6.68921 98.4247 9.90546 95.502C11.0541 94.2381 14.2605 92.0824 15.9797 91.0967L34.2955 81.3667L36.5303 80.142C36.9216 79.9148 40.8163 77.8585 41.2766 77.7098C46.2607 75.2088 52.4233 73.8464 58.6855 73.8464C59.6026 73.8464 60.52 73.8755 61.4309 73.9348C63.6501 74.0736 65.8102 74.405 67.8622 74.8855C71.2646 75.3812 77.3544 78.1112 79.9947 79.5636L140.572 115.225L200.972 150.777C204.439 152.69 209.939 157.094 211.003 159.978C211.787 161.256 212.287 162.599 212.585 163.976C213.763 169.436 210.85 175.004 204.202 178.829L178.509 192.623L178.068 192.864C172.934 195.724 166.316 197.245 159.558 197.245L159.557 197.245ZM58.7108 74.088C52.5369 74.088 46.449 75.4164 41.5194 77.8741C41.0277 78.0331 37.1981 80.0484 36.7825 80.2867L34.5579 81.5103L16.3103 91.1963C14.6409 92.157 11.3619 94.342 10.2462 95.5709C7.01629 98.4741 5.34617 101.943 5.42103 105.479C5.49519 108.789 7.09115 111.989 10.0583 114.671C11.2379 115.998 14.746 118.361 16.5637 119.361L78.0227 155.539L139.294 191.612C141.029 192.563 145.156 194.599 147.27 195.134C150.595 196.23 154.311 196.859 158.135 196.988C158.607 197.002 159.077 197.008 159.548 197.008C166.245 197.008 172.825 195.501 177.919 192.666L178.354 192.424L203.979 178.67C210.617 174.851 213.467 169.297 212.218 163.867C211.905 162.51 211.391 161.177 210.598 159.919C209.557 157.109 203.934 152.655 200.555 150.797L140.405 115.388L80.0648 79.8659C77.4973 78.4532 71.3099 75.6497 68.0011 75.1694C65.9592 74.6737 63.8093 74.3367 61.6042 74.1879C60.6381 74.1192 59.6774 74.0883 58.7113 74.0883L58.7108 74.088Z" fill="#E8E9EA"/>
<path d="M159.548 197.007C159.078 197.007 158.607 197.002 158.135 196.988C154.311 196.859 150.595 196.229 147.271 195.134C145.156 194.599 141.029 192.562 139.294 191.612L78.023 155.539L16.564 119.361C14.7463 118.361 11.2382 115.998 10.0586 114.671C7.09146 111.989 5.4955 108.789 5.42134 105.479C5.34672 101.943 7.0166 98.4738 10.2465 95.5707C11.3622 94.342 14.6412 92.157 16.3106 91.1961L34.5582 81.51L36.7828 80.2865C37.1984 80.048 41.028 78.0328 41.5197 77.8739C46.4493 75.4162 52.5372 74.0878 58.7111 74.0878C59.6773 74.0878 60.6379 74.1187 61.6041 74.1874C63.8091 74.3362 65.9591 74.6732 68.0009 75.1689C71.3097 75.6493 77.4971 78.4527 80.0646 79.8654L140.404 115.388L200.554 150.797C203.934 152.655 209.557 157.108 210.598 159.918C211.391 161.177 211.905 162.509 212.218 163.866C213.467 169.297 210.617 174.85 203.979 178.67L178.354 192.423L177.919 192.666C172.825 195.5 166.245 197.007 159.548 197.007L159.548 197.007ZM58.721 74.3263C52.6373 74.3263 46.6377 75.624 41.7575 78.033C41.2422 78.2014 37.4773 80.183 37.036 80.4303L34.8173 81.6491L16.6443 91.2901C15.0193 92.2312 11.6739 94.4416 10.5843 95.6397C7.33423 98.5232 5.66482 101.977 5.74488 105.494C5.8136 108.785 7.41854 111.97 10.406 114.63C11.5506 115.923 15.1334 118.316 16.9013 119.292L78.1876 155.365L139.28 191.333C140.964 192.266 145.166 194.352 147.217 194.871C150.527 195.981 154.227 196.619 158.042 196.749C158.543 196.768 159.043 196.774 159.539 196.774C166.187 196.774 172.718 195.283 177.766 192.464L178.202 192.221L203.756 178.507C210.381 174.703 213.175 169.158 211.853 163.759C211.525 162.416 210.995 161.103 210.193 159.854C209.182 157.13 203.425 152.63 200.144 150.827L140.241 115.557L80.1404 80.1769C77.6376 78.7991 71.3558 75.9121 68.1355 75.4514C66.1142 74.9401 63.9746 74.5991 61.7736 74.4401C60.7584 74.366 59.737 74.3263 58.7218 74.3263H58.721Z" fill="#E8E9E8"/>
<path d="M159.537 196.774C159.041 196.774 158.541 196.769 158.04 196.749C154.226 196.62 150.525 195.981 147.215 194.871C145.164 194.352 140.963 192.266 139.278 191.334L78.1857 155.366L16.8994 119.293C15.1315 118.316 11.5487 115.923 10.4041 114.63C7.41664 111.97 5.81194 108.785 5.74298 105.494C5.66293 101.977 7.33234 98.5233 10.5824 95.6398C11.6718 94.4417 15.0174 92.2313 16.6424 91.2902L34.8154 81.6492L37.0341 80.4304C37.4752 80.1832 41.2401 78.2016 41.7556 78.0332C46.6361 75.6241 52.6355 74.3264 58.7191 74.3264C59.7344 74.3264 60.7558 74.3661 61.771 74.4402C63.972 74.5992 66.1116 74.9402 68.1329 75.4515C71.3532 75.9122 77.635 78.7993 80.1378 80.177L140.239 115.557L200.142 150.827C203.422 152.63 209.179 157.13 210.19 159.854C210.992 161.103 211.523 162.416 211.85 163.759C213.173 169.158 210.378 174.703 203.753 178.507L178.199 192.222L177.764 192.464C172.715 195.283 166.185 196.774 159.536 196.774H159.537ZM58.7392 74.5642C52.7457 74.5642 46.8243 75.8376 41.9991 78.2015C41.4486 78.3742 37.7532 80.3105 37.2872 80.5792L35.0822 81.798L16.9799 91.3844C15.3988 92.296 11.9804 94.5501 10.9257 95.7144C7.66036 98.5736 5.9808 102.012 6.05896 105.51C6.13359 108.785 7.74443 111.95 10.7472 114.591C11.8609 115.845 15.5178 118.277 17.2366 119.224L78.3492 155.201L139.259 191.067C140.898 191.963 145.174 194.103 147.17 194.609C150.455 195.728 154.142 196.373 157.946 196.512C158.471 196.531 158.997 196.542 159.522 196.542C166.117 196.542 172.602 195.055 177.616 192.261L178.047 192.023L203.532 178.349C210.146 174.544 212.88 169.009 211.489 163.654C211.142 162.326 210.603 161.023 209.78 159.79C208.803 157.143 202.918 152.601 199.732 150.846L140.071 115.729L80.2075 80.4793C77.7788 79.1462 71.4033 76.1788 68.2725 75.7283C66.2602 75.213 64.1352 74.8559 61.9404 74.6832C60.8758 74.6032 59.806 74.564 58.7395 74.564L58.7392 74.5642Z" fill="#E8E9E8"/>
<path d="M159.521 196.541C158.996 196.541 158.47 196.531 157.945 196.512C154.141 196.373 150.454 195.728 147.169 194.608C145.173 194.103 140.898 191.963 139.258 191.066L78.3485 155.201L17.2359 119.223C15.5172 118.277 11.8602 115.845 10.7465 114.59C7.74374 111.95 6.1329 108.785 6.05827 105.509C5.9801 102.011 7.65967 98.5733 10.925 95.7141C11.9795 94.5499 15.3979 92.2957 16.9792 91.3842L35.0815 81.7978L37.2865 80.5789C37.7527 80.3102 41.4481 78.3739 41.9984 78.2013C46.8236 75.8373 52.7448 74.564 58.7385 74.564C59.8048 74.564 60.8748 74.6032 61.9394 74.6832C64.1343 74.8559 66.2593 75.2129 68.2716 75.7282C71.4023 76.1791 77.7779 79.1462 80.2066 80.4793L140.07 115.729L199.731 150.846C202.917 152.6 208.803 157.143 209.779 159.79C210.602 161.023 211.141 162.326 211.488 163.654C212.879 169.009 210.145 174.544 203.531 178.349L178.046 192.023L177.615 192.261C172.601 195.055 166.116 196.542 159.521 196.542L159.521 196.541ZM58.7588 74.8013C52.853 74.8013 47.0066 76.0397 42.2357 78.3586C41.6616 78.5466 38.0297 80.4455 37.544 80.728L35.3389 81.9354L17.3108 91.4838C15.78 92.3699 12.2917 94.6538 11.2663 95.7788C7.98132 98.6279 6.2975 102.041 6.37638 105.519C6.45644 108.779 8.07129 111.93 11.0937 114.551C12.1779 115.765 15.9035 118.232 17.5736 119.154L78.5171 155.033L139.243 190.789C140.833 191.666 145.184 193.856 147.116 194.352C150.386 195.477 154.062 196.13 157.851 196.274C158.402 196.298 158.957 196.308 159.511 196.308C166.052 196.308 172.486 194.836 177.466 192.057L177.887 191.825L203.309 178.19C209.908 174.396 212.587 168.866 211.121 163.545C210.76 162.232 210.204 160.939 209.373 159.725C208.421 157.159 202.407 152.571 199.315 150.872L139.907 115.898L80.2807 80.7927C77.9227 79.4933 71.447 76.4473 68.4092 76.0067C66.4142 75.4753 64.2975 75.1088 62.1137 74.9362C60.9988 74.8466 59.8737 74.8015 58.7586 74.8015L58.7588 74.8013Z" fill="#E5E6E7"/>
<path d="M159.512 196.308C158.958 196.308 158.403 196.298 157.852 196.274C154.063 196.13 150.387 195.477 147.117 194.352C145.185 193.856 140.834 191.666 139.244 190.788L78.5184 155.033L17.5749 119.153C15.9048 118.232 12.1791 115.765 11.0949 114.551C8.07256 111.93 6.45771 108.779 6.37765 105.519C6.29877 102.04 7.98259 98.6277 11.2676 95.7787C12.293 94.6536 15.7815 92.3697 17.3121 91.4837L35.3402 81.9353L37.5452 80.7278C38.031 80.4456 41.6629 78.5464 42.237 78.3584C47.0076 76.0396 52.8542 74.8011 58.7601 74.8011C59.875 74.8011 61.0001 74.8463 62.1152 74.9358C64.299 75.1084 66.4157 75.4749 68.4108 76.0063C71.4485 76.4469 77.9242 79.4929 80.2822 80.7923L139.909 115.898L199.316 150.872C202.408 152.571 208.422 157.159 209.375 159.725C210.205 160.938 210.762 162.232 211.123 163.545C212.589 168.866 209.91 174.395 203.31 178.189L177.889 191.825L177.468 192.057C172.488 194.836 166.053 196.308 159.513 196.308L159.512 196.308ZM58.7755 75.0397C52.9579 75.0397 47.1956 76.2531 42.4743 78.5228C41.8759 78.715 38.3092 80.579 37.7979 80.8707L35.603 82.0841L17.6436 91.5779C16.1575 92.4342 12.6002 94.7533 11.6043 95.8474C8.30376 98.6716 6.61475 102.076 6.69906 105.533C6.77322 108.773 8.39823 111.911 11.4402 114.506C12.4906 115.69 16.2909 118.197 17.9119 119.085L78.6815 154.864L139.229 190.512C140.771 191.359 145.189 193.608 147.067 194.089C150.318 195.224 153.979 195.882 157.758 196.041C158.329 196.065 158.903 196.075 159.474 196.075C165.969 196.075 172.374 194.614 177.319 191.854L177.735 191.621L203.087 178.03C209.671 174.242 212.303 168.722 210.762 163.431C210.38 162.142 209.816 160.864 208.967 159.669C208.046 157.178 201.903 152.545 198.906 150.891L139.744 116.066L80.3512 81.0938C78.0678 79.8354 71.4936 76.7133 68.5503 76.2875C66.5689 75.7472 64.4582 75.3705 62.2881 75.188C61.1198 75.0883 59.9496 75.0392 58.7759 75.0392L58.7755 75.0397Z" fill="#E5E6E5"/>
<path d="M159.473 196.075C158.902 196.075 158.328 196.065 157.758 196.041C153.979 195.883 150.318 195.224 147.066 194.089C145.189 193.609 140.77 191.359 139.228 190.512L78.6808 154.865L17.9112 119.085C16.2904 118.197 12.4899 115.69 11.4395 114.507C8.39749 111.911 6.77247 108.774 6.69832 105.534C6.61401 102.076 8.30326 98.6721 11.6036 95.8479C12.5995 94.7538 16.1565 92.4347 17.6429 91.5784L35.6023 82.0846L37.7972 80.8712C38.3085 80.5793 41.8752 78.7153 42.4736 78.5233C47.1951 76.2535 52.9574 75.0402 58.7747 75.0402C59.9484 75.0402 61.1186 75.0893 62.2869 75.1889C64.4569 75.3715 66.5677 75.7482 68.5491 76.2885C71.4926 76.7143 78.0668 79.8363 80.35 81.0948L139.743 116.067L198.905 150.892C201.902 152.546 208.045 157.179 208.966 159.67C209.814 160.865 210.379 162.143 210.761 163.432C212.302 168.723 209.67 174.243 203.086 178.031L177.734 191.622L177.318 191.855C172.373 194.615 165.968 196.076 159.472 196.076L159.473 196.075ZM58.7948 75.2777C53.0675 75.2777 47.3852 76.4668 42.7171 78.682C42.0837 78.8896 38.5852 80.7085 38.0501 81.0199L35.8647 82.2293L17.9759 91.6769C16.5388 92.5096 12.9074 94.8575 11.9455 95.9126C8.6268 98.7227 6.93165 102.105 7.01595 105.55C7.09601 108.77 8.73047 111.89 11.7866 114.472C12.7978 115.616 16.6765 118.154 18.2482 119.021L78.8494 154.696L139.214 190.244C140.706 191.062 145.198 193.36 147.017 193.826C150.247 194.971 153.894 195.639 157.664 195.802C158.264 195.828 158.863 195.843 159.457 195.843C165.904 195.843 172.259 194.397 177.165 191.651L177.581 191.424L202.862 177.868C209.438 174.087 212.009 168.579 210.393 163.327C210.003 162.049 209.417 160.785 208.56 159.605C207.665 157.193 201.396 152.516 198.494 150.917L139.575 116.231L80.4206 81.4056C78.2097 80.1868 71.5363 76.9764 68.6877 76.565C66.7163 76.02 64.6211 75.6339 62.455 75.4419C61.2362 75.3321 60.0127 75.2775 58.7941 75.2775L58.7948 75.2777Z" fill="#E2E5E5"/>
<path d="M159.458 195.843C158.864 195.843 158.264 195.828 157.665 195.802C153.895 195.639 150.248 194.971 147.018 193.826C145.199 193.36 140.706 191.061 139.215 190.244L78.8501 154.696L18.2489 119.021C16.6772 118.154 12.7986 115.616 11.7873 114.472C8.73118 111.89 7.09673 108.77 7.01667 105.55C6.93236 102.106 8.62751 98.7226 11.9463 95.9126C12.9081 94.8574 16.5396 92.5095 17.9766 91.6768L35.8654 82.2293L38.0508 81.0199C38.5857 80.7087 42.0844 78.8895 42.7178 78.6819C47.3859 76.4668 53.0682 75.2777 58.7955 75.2777C60.0143 75.2777 61.2379 75.3323 62.4564 75.4421C64.6223 75.6343 66.7177 76.0204 68.6892 76.5653C71.5377 76.9769 78.2108 80.1872 80.422 81.4058L139.576 116.231L198.495 150.917C201.398 152.516 207.666 157.193 208.561 159.605C209.418 160.785 210.004 162.049 210.395 163.328C212.011 168.579 209.439 174.088 202.864 177.869L177.582 191.424L177.167 191.651C172.261 194.397 165.905 195.844 159.459 195.844L159.458 195.843ZM58.8149 75.5049C53.1718 75.5049 47.5737 76.6692 42.9561 78.8444C42.2965 79.0579 38.8639 80.8461 38.3035 81.1687L36.128 82.3667L18.3133 91.7805C16.9202 92.5783 13.2194 94.9559 12.2882 95.9825C8.94869 98.7718 7.24952 102.141 7.3336 105.563C7.4179 108.764 9.05827 111.87 12.134 114.432C13.1155 115.537 17.0648 118.113 18.5861 118.952L79.0143 154.528L139.195 189.967C140.642 190.76 145.209 193.113 146.969 193.564C150.184 194.723 153.815 195.397 157.57 195.571C158.195 195.595 158.824 195.61 159.448 195.61C165.84 195.61 172.147 194.177 177.017 191.447L177.429 191.226L202.636 177.704C209.2 173.935 211.712 168.439 210.028 163.218C209.621 161.955 209.022 160.707 208.15 159.542C207.283 157.203 200.888 152.487 198.077 150.941L139.413 116.399L80.4959 81.7083C78.3502 80.5341 71.588 77.2449 68.8285 76.8434C66.8707 76.2882 64.7807 75.8927 62.6291 75.6834C61.3611 75.5654 60.0889 75.5049 58.8151 75.5049H58.8149Z" fill="#E2E3E4"/>
<path d="M159.446 195.61C158.823 195.61 158.194 195.595 157.569 195.571C153.813 195.397 150.182 194.722 146.967 193.564C145.207 193.113 140.64 190.76 139.194 189.967L79.0128 154.528L18.5846 118.952C17.0633 118.113 13.1142 115.537 12.1325 114.432C9.05676 111.87 7.4164 108.764 7.33209 105.563C7.24778 102.141 8.94695 98.7718 12.2867 95.9825C13.2179 94.9559 16.9185 92.5782 18.3118 91.7805L36.1265 82.3667L38.302 81.1687C38.8624 80.8461 42.2952 79.0579 42.9546 78.8444C47.5722 76.6689 53.1703 75.5049 58.8134 75.5049C60.0872 75.5049 61.3594 75.5653 62.6273 75.6834C64.779 75.8927 66.869 76.2885 68.8267 76.8434C71.5863 77.2449 78.3484 80.5341 80.4942 81.7083L139.411 116.399L198.075 150.94C200.886 152.487 207.282 157.203 208.148 159.542C209.02 160.707 209.62 161.955 210.026 163.218C211.711 168.439 209.199 173.935 202.634 177.704L177.427 191.226L177.015 191.447C172.145 194.177 165.838 195.61 159.446 195.61H159.446ZM58.833 75.7439C53.2799 75.7439 47.755 76.8826 43.1978 79.0033C42.508 79.2305 39.1394 80.9753 38.5552 81.3123L36.3893 82.5115L18.6434 91.875C17.2954 92.6484 13.5258 95.0615 12.6244 96.0514C9.27474 98.8169 7.56542 102.174 7.65398 105.579C7.73404 108.764 9.3829 111.847 12.4756 114.393C13.4264 115.463 17.4496 118.074 18.9207 118.877L79.1762 154.365L139.179 189.689C140.576 190.462 145.214 192.871 146.918 193.302C150.108 194.47 153.73 195.154 157.475 195.332C158.13 195.362 158.778 195.377 159.427 195.377C165.77 195.377 172.036 193.95 176.867 191.25L177.269 191.028L202.411 177.547C208.966 173.781 211.429 168.297 209.66 163.11C209.234 161.861 208.63 160.632 207.742 159.482C206.906 157.224 200.381 152.462 197.66 150.966L139.243 116.568L80.5631 82.0158C78.4916 80.877 71.6297 77.5078 68.9602 77.12C67.0178 76.5553 64.9422 76.1496 62.7964 75.9361C61.4787 75.8086 60.1562 75.7439 58.833 75.7439V75.7439Z" fill="#E0E2E4"/>
<path d="M159.428 195.377C158.779 195.377 158.13 195.362 157.476 195.332C153.73 195.153 150.108 194.47 146.919 193.301C145.214 192.87 140.577 190.462 139.179 189.689L79.1768 154.364L18.9213 118.877C17.4505 118.074 13.4271 115.462 12.4763 114.392C9.38331 111.846 7.73468 108.764 7.65462 105.578C7.5663 102.174 9.27539 98.8165 12.6251 96.0511C13.5265 95.0613 17.2961 92.648 18.6441 91.8746L36.39 82.5111L38.5558 81.3119C39.1401 80.9752 42.5086 79.2302 43.1985 79.003C47.7556 76.8823 53.2808 75.7435 58.8336 75.7435C60.1568 75.7435 61.4793 75.8082 62.7971 75.9358C64.9428 76.1492 67.0187 76.555 68.9608 77.1196C71.6301 77.5074 78.4922 80.8767 80.5638 82.0154L139.244 116.568L197.661 150.965C200.381 152.461 206.906 157.224 207.743 159.482C208.631 160.632 209.235 161.861 209.66 163.11C211.43 168.296 208.967 173.781 202.412 177.547L177.269 191.027L176.868 191.249C172.037 193.95 165.77 195.377 159.428 195.377V195.377ZM58.8596 75.9766C53.3892 75.9766 47.9448 77.0903 43.436 79.1716C42.7172 79.3993 39.4228 81.1039 38.809 81.4609L36.6491 82.6602L18.9761 91.9743C17.6784 92.721 13.8389 95.165 12.9666 96.1158C9.59727 98.8701 7.88394 102.21 7.97297 105.594C8.05114 108.76 9.71134 111.827 12.8237 114.353C13.7393 115.384 17.8416 118.029 19.2585 118.807L79.3457 154.192L139.166 189.422C140.512 190.16 145.224 192.623 146.869 193.039C150.045 194.218 153.652 194.911 157.382 195.095C158.062 195.13 158.74 195.144 159.414 195.144C165.706 195.144 171.923 193.733 176.715 191.047L177.115 190.824L202.194 177.388C208.729 173.627 211.138 168.157 209.3 163C208.858 161.767 208.234 160.558 207.338 159.418C206.53 157.238 199.876 152.432 197.25 150.991L139.081 116.737L80.6332 82.3234C78.6374 81.2281 71.676 77.7745 69.1004 77.404C67.1724 76.8282 65.1067 76.4123 62.9662 76.1887C61.6038 76.0458 60.2314 75.9769 58.8598 75.9769L58.8596 75.9766Z" fill="#E0E2E4"/>
<path d="M159.414 195.144C158.74 195.144 158.062 195.13 157.382 195.095C153.652 194.91 150.045 194.218 146.869 193.039C145.224 192.623 140.512 190.16 139.166 189.422L79.3457 154.192L19.2586 118.807C17.8416 118.029 13.7396 115.384 12.8237 114.353C9.71139 111.827 8.0512 108.759 7.97303 105.594C7.88399 102.209 9.59757 98.8699 12.9666 96.1156C13.839 95.1648 17.6785 92.7208 18.9762 91.9741L36.6491 82.66L38.809 81.4608C39.4228 81.1037 42.7175 79.3993 43.4361 79.1714C47.9446 77.0904 53.389 75.9764 58.8596 75.9764C60.2315 75.9764 61.6038 76.0452 62.966 76.1883C65.1063 76.4119 67.172 76.8276 69.1002 77.4036C71.676 77.7743 78.6375 81.2277 80.633 82.323L139.081 116.736L197.25 150.991C199.876 152.432 206.53 157.238 207.338 159.417C208.234 160.558 208.858 161.767 209.299 163C211.138 168.157 208.73 173.627 202.194 177.388L177.115 190.824L176.715 191.047C171.923 193.732 165.706 195.144 159.414 195.144L159.414 195.144ZM58.8889 76.214C53.5033 76.214 48.1331 77.294 43.6741 79.3306C42.931 79.5731 39.7005 81.2433 39.066 81.6039L36.912 82.7977L19.3089 92.0681C18.0606 92.7858 14.1462 95.269 13.3081 96.1846C9.91921 98.9205 8.19998 102.245 8.29019 105.608C8.3745 108.754 10.0385 111.811 13.1707 114.314C14.0525 115.309 18.2289 117.995 19.5954 118.742L79.5099 154.023L139.145 189.144C140.448 189.857 145.23 192.374 146.814 192.776C149.975 193.97 153.567 194.669 157.288 194.857C157.992 194.891 158.695 194.91 159.398 194.91C165.637 194.91 171.815 193.515 176.566 190.839L176.962 190.626L201.967 177.224C208.496 173.474 210.845 168.009 208.933 162.896C208.476 161.683 207.843 160.477 206.932 159.354C206.148 157.253 199.366 152.402 196.839 151.01L138.917 116.909L80.7079 82.629C78.7811 81.5687 71.7251 78.0421 69.2398 77.6858C67.3212 77.0956 65.265 76.6745 63.14 76.4414C61.7332 76.2879 60.3104 76.2138 58.8889 76.2138V76.214Z" fill="#DDE0E2"/>
<path d="M159.399 194.91C158.696 194.91 157.992 194.891 157.288 194.857C153.568 194.669 149.975 193.97 146.814 192.776C145.23 192.374 140.448 189.857 139.145 189.144L79.5102 154.023L19.5957 118.742C18.2292 117.995 14.0528 115.309 13.1709 114.314C10.039 111.811 8.37479 108.754 8.29048 105.608C8.20027 102.244 9.91975 98.9202 13.3084 96.1846C14.1465 95.269 18.0606 92.7858 19.3092 92.0681L36.9123 82.7976L39.0663 81.6038C39.7008 81.2432 42.9313 79.5731 43.6744 79.3306C48.1331 77.2939 53.5034 76.214 58.8892 76.214C60.3109 76.214 61.7335 76.2881 63.1403 76.4416C65.2653 76.6747 67.3215 77.0958 69.2401 77.686C71.7257 78.0423 78.7814 81.5689 80.7082 82.6293L138.917 116.909L196.839 151.011C199.367 152.402 206.148 157.253 206.932 159.354C207.843 160.478 208.477 161.683 208.933 162.896C210.845 168.009 208.497 173.474 201.968 177.224L176.962 190.626L176.566 190.84C171.815 193.515 165.637 194.91 159.399 194.91V194.91ZM58.9145 76.4416C53.6071 76.4416 48.3211 77.5015 43.917 79.4931C43.1388 79.7462 39.9736 81.3708 39.319 81.7526L37.1744 82.9424L19.645 92.1665C18.4375 92.8604 14.4533 95.3674 13.6454 96.2587C10.2423 98.9696 8.52357 102.28 8.6119 105.623C8.69621 108.749 10.3661 111.791 13.5172 114.273C14.364 115.235 18.6151 117.95 19.9282 118.674L79.6783 153.855L139.134 188.868C140.384 189.556 145.24 192.122 146.765 192.518C149.906 193.713 153.483 194.421 157.199 194.624C157.907 194.664 158.626 194.679 159.34 194.679C165.537 194.679 171.686 193.296 176.417 190.636L176.809 190.428L201.744 177.065C208.259 173.325 210.558 167.871 208.571 162.787C208.096 161.584 207.446 160.399 206.52 159.3C205.772 157.268 198.861 152.377 196.423 151.031L138.748 117.073L80.7776 82.9431C78.9238 81.9165 71.7701 78.3101 69.3771 77.959C67.475 77.3688 65.429 76.9324 63.3082 76.691C61.8563 76.5226 60.3844 76.4426 58.9143 76.4426L58.9145 76.4416Z" fill="#DDE0E2"/>
<path d="M159.34 194.679C158.627 194.679 157.908 194.664 157.2 194.624C153.484 194.42 149.907 193.713 146.766 192.517C145.24 192.122 140.384 189.555 139.135 188.867L79.679 153.854L19.9289 118.673C18.6158 117.949 14.3647 115.235 13.5179 114.273C10.3668 111.791 8.69669 108.749 8.61261 105.623C8.52429 102.279 10.2431 98.9691 13.6461 96.2582C14.4538 95.3667 18.4383 92.8599 19.6457 92.166L37.1751 82.9419L39.3197 81.7521C39.9745 81.3703 43.1396 79.7457 43.9177 79.4926C48.3218 77.501 53.608 76.4412 58.9152 76.4412C60.3855 76.4412 61.8575 76.5212 63.3092 76.6896C65.4299 76.931 67.4762 77.3674 69.378 77.9575C71.771 78.3087 78.9247 81.9151 80.7786 82.9417L138.749 117.071L196.424 151.029C198.862 152.376 205.773 157.267 206.521 159.298C207.447 160.398 208.097 161.582 208.572 162.786C210.559 167.869 208.26 173.324 201.745 177.064L176.81 190.427L176.418 190.634C171.687 193.294 165.538 194.678 159.341 194.678L159.34 194.679ZM58.9445 76.6747C53.723 76.6747 48.51 77.7056 44.1605 79.652C43.3528 79.9148 40.252 81.5058 39.5724 81.8962L37.4373 83.086L19.9778 92.2607C18.8135 92.9303 14.7664 95.4711 13.9883 96.3293C10.5645 99.0142 8.8398 102.309 8.9293 105.633C9.01763 108.75 10.6932 111.772 13.8589 114.234C14.6762 115.155 19.002 117.911 20.264 118.609L79.8418 153.681L139.115 188.594C140.32 189.254 145.25 191.875 146.716 192.257C149.837 193.46 153.403 194.183 157.1 194.386C157.843 194.431 158.581 194.451 159.325 194.451C165.473 194.451 171.576 193.074 176.269 190.433L176.655 190.23L201.521 176.907C208.022 173.167 210.266 167.722 208.205 162.679C207.719 161.495 207.05 160.319 206.113 159.235C205.396 157.283 198.355 152.348 196.012 151.056L138.586 117.241L80.8532 83.2449C79.0638 82.2592 71.8154 78.5727 69.5166 78.2412C67.6236 77.6314 65.5929 77.1848 63.4821 76.9383C61.9803 76.764 60.4651 76.6754 58.9445 76.6754V76.6747Z" fill="#DDDEE0"/>
<path d="M159.323 194.45C158.58 194.45 157.842 194.43 157.099 194.385C153.402 194.183 149.836 193.459 146.715 192.256C145.249 191.874 140.319 189.253 139.114 188.593L79.8406 153.68L20.2628 118.608C19.0008 117.91 14.6748 115.155 13.8577 114.233C10.692 111.771 9.01644 108.749 8.92812 105.633C8.83861 102.309 10.5633 99.0135 13.9871 96.3287C14.7653 95.4705 18.8123 92.9298 19.9766 92.2601L37.4361 83.0853L39.5712 81.8956C40.2508 81.5054 43.3514 79.9142 44.1593 79.6513C48.5089 77.7049 53.7221 76.6741 58.9433 76.6741C60.4639 76.6741 61.9791 76.7624 63.4809 76.9369C65.5917 77.1837 67.6224 77.6303 69.5154 78.2398C71.8142 78.5714 79.0627 82.2578 80.852 83.2435L138.585 117.24L196.011 151.055C198.354 152.347 205.395 157.282 206.112 159.234C207.049 160.318 207.718 161.493 208.203 162.678C210.265 167.721 208.021 173.166 201.52 176.906L176.654 190.229L176.268 190.431C171.575 193.073 165.472 194.449 159.323 194.449V194.45ZM58.9667 76.9076C53.8295 76.9076 48.6964 77.913 44.3961 79.8162C43.5646 80.083 40.5328 81.6393 39.8236 82.045L37.6932 83.2289L20.3079 92.3605C19.193 92.9993 15.0711 95.5708 14.3279 96.3941C10.8845 99.0695 9.15578 102.343 9.24528 105.653C9.33431 108.74 11.0233 111.752 14.2046 114.195C14.9868 115.081 19.3869 117.866 20.6003 118.54L80.003 153.512L139.1 188.321C140.254 188.956 145.258 191.631 146.665 191.994C149.767 193.207 153.318 193.94 157.004 194.154C157.773 194.193 158.541 194.218 159.304 194.218C165.403 194.218 171.461 192.855 176.118 190.23L176.5 190.026L201.296 176.749C207.787 173.014 209.977 167.583 207.836 162.574C207.337 161.401 206.653 160.246 205.706 159.17C205.012 157.303 197.844 152.318 195.6 151.08L138.416 117.409L80.9203 83.5524C79.2051 82.6102 71.8586 78.8406 69.6536 78.5232C67.7759 77.904 65.7553 77.4473 63.654 77.1906C62.1078 77.0019 60.5379 76.9083 58.9662 76.9083L58.9667 76.9076Z" fill="#DBDDDE"/>
<path d="M159.305 194.218C158.542 194.218 157.774 194.193 157.006 194.154C153.319 193.94 149.768 193.207 146.667 191.994C145.259 191.631 140.256 188.956 139.101 188.321L80.0042 153.512L20.6015 118.54C19.3881 117.866 14.988 115.08 14.2058 114.195C11.0245 111.752 9.3355 108.74 9.24647 105.653C9.15697 102.343 10.8857 99.0696 14.3291 96.3941C15.0723 95.5709 19.194 92.9994 20.3091 92.3605L37.6944 83.229L39.8248 82.0451C40.5342 81.6394 43.5658 80.0833 44.3973 79.8162C48.6978 77.913 53.8307 76.9077 58.9679 76.9077C60.5395 76.9077 62.1093 77.0015 63.6556 77.1899C65.757 77.4466 67.7776 77.9034 69.6553 78.5226C71.8603 78.84 79.2067 82.6095 80.922 83.5518L138.417 117.409L195.602 151.079C197.846 152.318 205.014 157.302 205.708 159.169C206.654 160.245 207.338 161.4 207.838 162.574C209.978 167.582 207.789 173.013 201.298 176.749L176.502 190.026L176.12 190.229C171.463 192.854 165.404 194.218 159.305 194.218L159.305 194.218ZM58.9986 77.1351C53.9403 77.1351 48.8855 78.1213 44.6361 79.9794C43.7739 80.2616 40.8101 81.7681 40.077 82.188L37.9622 83.3735L20.6416 92.4545C19.5758 93.0737 15.3852 95.6802 14.6663 96.4626C11.213 99.1185 9.47389 102.378 9.56836 105.663C9.65668 108.74 11.3464 111.727 14.5525 114.155C15.3009 115.002 19.774 117.826 20.938 118.465L80.1724 153.349L139.086 188.044C140.191 188.654 145.263 191.384 146.616 191.731C149.699 192.954 153.241 193.693 156.912 193.915C157.705 193.96 158.492 193.985 159.285 193.985C165.333 193.985 171.349 192.633 175.971 190.036L176.343 189.828L201.076 176.59C207.556 172.865 209.696 167.439 207.471 162.459C206.956 161.311 206.262 160.166 205.296 159.105C204.637 157.318 197.34 152.289 195.184 151.105L138.253 117.578L80.9956 83.8579C79.351 82.9522 71.9092 79.1068 69.7882 78.7989C67.9259 78.1702 65.9138 77.7095 63.8243 77.4426C62.233 77.2393 60.6134 77.1349 58.9984 77.1349L58.9986 77.1351Z" fill="#DBDDDE"/>
<path d="M159.284 193.985C158.49 193.985 157.704 193.96 156.911 193.915C153.239 193.693 149.698 192.955 146.615 191.731C145.262 191.384 140.189 188.654 139.085 188.045L80.1711 153.349L20.9368 118.465C19.7725 117.827 15.2996 115.002 14.5512 114.155C11.3452 111.727 9.65543 108.74 9.56711 105.663C9.47288 102.378 11.2117 99.1187 14.6651 96.4629C15.3839 95.6807 19.5746 93.074 20.6404 92.4548L37.961 83.3738L40.0758 82.1882C40.8088 81.7683 43.7724 80.2619 44.6348 79.9797C48.8843 78.1216 53.939 77.1354 58.9973 77.1354C60.6122 77.1354 62.232 77.2398 63.8233 77.4431C65.9126 77.71 67.9249 78.1707 69.7872 78.7994C71.9079 79.1071 79.35 82.9527 80.9946 83.8584L138.252 117.578L195.183 151.105C197.339 152.289 204.636 157.318 205.295 159.106C206.261 160.166 206.955 161.311 207.47 162.46C209.695 167.44 207.555 172.865 201.075 176.591L176.342 189.829L175.97 190.036C171.348 192.633 165.332 193.985 159.284 193.985L159.284 193.985ZM59.0311 77.3682C54.0522 77.3682 49.0723 78.3249 44.8762 80.1419C43.9842 80.4303 41.087 81.9058 40.3327 82.3368L38.2179 83.5171L20.9762 92.5585C19.9513 93.1427 15.6902 95.7787 15.0063 96.5314C11.5346 99.1676 9.79028 102.413 9.88451 105.678C9.97826 108.734 11.672 111.707 14.8925 114.114C15.6161 114.922 20.1591 117.791 21.274 118.4L80.3357 153.18L139.065 187.772C140.125 188.356 145.272 191.135 146.566 191.469C149.627 192.707 153.155 193.45 156.817 193.677C157.634 193.726 158.451 193.752 159.264 193.752C165.268 193.752 171.234 192.413 175.817 189.832L176.189 189.63L200.852 176.422C207.317 172.705 209.402 167.3 207.109 162.355C206.578 161.21 205.865 160.087 204.889 159.046C204.256 157.332 196.833 152.259 194.767 151.128L138.089 117.751L81.0633 84.1597C79.4936 83.3034 71.9533 79.3749 69.9265 79.0771C68.0786 78.4383 66.0715 77.9622 63.9959 77.6899C62.3607 77.4721 60.6965 77.3678 59.0313 77.3678L59.0311 77.3682Z" fill="#D9DADB"/>
<path d="M159.264 193.752C158.451 193.752 157.634 193.727 156.817 193.677C153.156 193.45 149.627 192.707 146.566 191.469C145.272 191.136 140.125 188.357 139.065 187.772L80.3357 153.181L21.274 118.401C20.1591 117.792 15.6161 114.922 14.8925 114.115C11.6722 111.707 9.97824 108.734 9.88448 105.679C9.79026 102.413 11.5345 99.168 15.0063 96.5318C15.6902 95.7791 19.9512 93.1429 20.9762 92.5589L38.2179 83.5175L40.3327 82.3372C41.087 81.906 43.9842 80.4305 44.8762 80.1423C49.0723 78.3251 54.0521 77.3687 59.0311 77.3687C60.6965 77.3687 62.3607 77.473 63.9956 77.6908C66.0715 77.9631 68.0783 78.4392 69.9263 79.078C71.9528 79.3758 79.4931 83.3043 81.0631 84.1606L138.089 117.752L194.767 151.129C196.833 152.259 204.256 157.332 204.889 159.047C205.864 160.088 206.578 161.211 207.109 162.356C209.402 167.301 207.317 172.706 200.851 176.423L176.188 189.631L175.817 189.833C171.234 192.414 165.268 193.753 159.264 193.753L159.264 193.752ZM59.0611 77.5958C54.1622 77.5958 49.2569 78.527 45.1149 80.3008C44.1939 80.6038 41.3643 82.0349 40.5821 82.4815L38.4808 83.6599L21.3096 92.6522C20.3333 93.2126 16.0034 95.8826 15.3492 96.596C11.8566 99.212 10.1077 102.447 10.2061 105.692C10.2963 108.73 12.0054 111.687 15.2396 114.075C15.9294 114.853 20.5471 117.746 21.6117 118.332L80.505 153.012L139.05 187.5C140.061 188.054 145.283 190.893 146.512 191.206C149.559 192.454 153.071 193.207 156.722 193.44C157.565 193.493 158.407 193.519 159.245 193.519C165.2 193.519 171.12 192.192 175.668 189.63L176.035 189.426L200.628 176.263C207.079 172.552 209.115 167.151 206.742 162.247C206.197 161.122 205.474 160.012 204.483 158.982C203.874 157.347 196.324 152.234 194.357 151.154L137.921 117.914L81.1337 84.4728C79.6367 83.6502 71.9986 79.6417 70.0659 79.3592C68.2278 78.7105 66.2363 78.2247 64.1647 77.9423C62.4852 77.7092 60.7718 77.5954 59.0613 77.5954L59.0611 77.5958Z" fill="#D8DADD"/>
<path d="M159.246 193.519C158.408 193.519 157.566 193.493 156.723 193.44C153.072 193.207 149.56 192.454 146.512 191.206C145.284 190.893 140.062 188.054 139.051 187.5L80.506 153.012L21.6126 118.332C20.548 117.746 15.9304 114.853 15.2406 114.075C12.0066 111.687 10.2973 108.73 10.2071 105.692C10.1086 102.447 11.8576 99.2119 15.3501 96.596C16.0043 95.8826 20.3343 93.2126 21.3106 92.6522L38.4817 83.6599L40.583 82.4815C41.3652 82.0349 44.1949 80.6038 45.1159 80.3008C49.2579 78.527 54.1631 77.5958 59.062 77.5958C60.7725 77.5958 62.4858 77.7097 64.1654 77.9427C66.237 78.225 68.2285 78.7107 70.0666 79.3597C71.9993 79.6419 79.6376 83.6505 81.1344 84.4733L137.922 117.915L194.357 151.154C196.325 152.234 203.874 157.348 204.484 158.982C205.475 160.013 206.197 161.122 206.742 162.248C209.116 167.152 207.079 172.553 200.629 176.263L176.035 189.426L175.669 189.63C171.121 192.192 165.201 193.519 159.245 193.519L159.246 193.519ZM59.0929 77.8235C54.2713 77.8235 49.4461 78.7362 45.3591 80.4649C44.4072 80.771 41.6429 82.1641 40.84 82.6291L38.7445 83.8033L21.6414 92.752C20.7145 93.281 16.3104 95.982 15.6869 96.6657C12.179 99.2611 10.4246 102.481 10.5242 105.707C10.6185 108.729 12.332 111.667 15.5872 114.036C16.2414 114.774 20.9379 117.706 21.9491 118.261L80.668 152.843L139.036 187.221C139.997 187.752 145.288 190.645 146.463 190.943C149.489 192.201 152.993 192.958 156.635 193.207C157.486 193.266 158.344 193.291 159.2 193.291C165.111 193.291 171.002 191.973 175.52 189.426L175.876 189.229L200.401 176.105C206.848 172.404 208.833 167.008 206.381 162.138C205.821 161.028 205.078 159.939 204.072 158.923C203.498 157.367 195.819 152.209 193.945 151.174L137.758 118.083L81.2088 84.7795C79.7819 83.9931 72.0423 79.905 70.2038 79.6424C68.3813 78.9781 66.3992 78.4883 64.3336 78.1905C62.6148 77.9432 60.8504 77.824 59.0925 77.824L59.0929 77.8235Z" fill="#D7D9DB"/>
<path d="M159.2 193.291C158.343 193.291 157.485 193.266 156.634 193.207C152.992 192.958 149.489 192.201 146.462 190.943C145.288 190.645 139.996 187.752 139.036 187.221L80.6673 152.843L21.9485 118.261C20.9372 117.706 16.2407 114.774 15.5866 114.036C12.3311 111.667 10.6178 108.729 10.5236 105.707C10.4239 102.481 12.1783 99.2607 15.6862 96.6656C16.3094 95.9816 20.7138 93.2809 21.6407 92.7519L38.7439 83.8032L40.8393 82.629C41.6422 82.164 44.4067 80.7709 45.3584 80.4648C49.4454 78.7359 54.2706 77.8234 59.0923 77.8234C60.8502 77.8234 62.6146 77.9426 64.3334 78.1899C66.399 78.4877 68.3811 78.9775 70.2036 79.6418C72.0421 79.9046 79.7817 83.9926 81.2086 84.779L137.758 118.083L193.945 151.173C195.818 152.208 203.498 157.367 204.072 158.923C205.078 159.938 205.82 161.028 206.381 162.137C208.833 167.007 206.847 172.403 200.401 176.104L175.876 189.228L175.52 189.426C171.002 191.972 165.111 193.291 159.2 193.291L159.2 193.291ZM59.1157 78.0522C54.3745 78.0522 49.6289 78.934 45.5953 80.6237C44.6197 80.9392 41.9188 82.2974 41.0915 82.7777L39.0062 83.9479L21.978 92.8457C21.0914 93.3558 16.6172 96.0856 16.027 96.7345C12.4995 99.3162 10.7411 102.511 10.8405 105.717C10.939 108.72 12.6582 111.648 15.9332 113.996C16.5525 114.7 21.3231 117.662 22.285 118.197L80.8312 152.674L139.02 186.949C139.931 187.451 145.297 190.398 146.413 190.68C149.419 191.948 152.908 192.721 156.539 192.974C157.416 193.028 158.298 193.058 159.18 193.058C165.046 193.064 170.887 191.75 175.365 189.224L175.722 189.024L200.177 175.945C206.608 172.249 208.546 166.859 206.013 162.029C205.439 160.938 204.681 159.853 203.666 158.863C203.121 157.38 195.307 152.179 193.529 151.199L137.589 118.251L81.2768 85.0869C79.9187 84.3437 72.0919 80.1727 70.3424 79.9148C68.5294 79.2458 66.5634 78.7505 64.5072 78.4428C62.7374 78.18 60.9244 78.0527 59.1157 78.0527V78.0522Z" fill="#D7D8DA"/>
<path d="M159.18 193.058C158.298 193.058 157.416 193.028 156.54 192.974C152.908 192.721 149.42 191.948 146.413 190.681C145.298 190.398 139.931 187.451 139.02 186.949L80.8316 152.675L22.2854 118.197C21.3236 117.662 16.5529 114.7 15.9337 113.996C12.6586 111.648 10.9394 108.72 10.8409 105.718C10.7413 102.511 12.4997 99.3165 16.0275 96.7348C16.6176 96.0861 21.0916 93.3561 21.9784 92.846L39.0067 83.9482L41.092 82.778C41.9192 82.2977 44.6202 80.9395 45.5958 80.624C49.6294 78.9343 54.375 78.0525 59.1161 78.0525C60.9251 78.0525 62.7381 78.18 64.5076 78.4426C66.5639 78.7503 68.5299 79.2456 70.3429 79.9146C72.0923 80.1725 79.9191 84.3438 81.2773 85.0867L137.589 118.251L193.529 151.199C195.307 152.179 203.121 157.38 203.666 158.862C204.681 159.853 205.44 160.938 206.014 162.029C208.546 166.859 206.608 172.249 200.177 175.945L175.723 189.024L175.366 189.223C170.887 191.75 165.046 193.064 159.18 193.058V193.058ZM59.1607 78.2745C54.498 78.2745 49.8216 79.1367 45.8326 80.7926C44.8273 81.1141 42.1972 82.4314 41.3442 82.923L39.2683 84.0913L22.3095 92.9447C21.4721 93.425 16.9291 96.19 16.3699 96.8038C12.8228 99.3651 11.0584 102.542 11.1567 105.732C11.2563 108.72 12.985 111.633 16.2761 113.957C16.8644 114.62 21.7111 117.622 22.6227 118.122L80.9988 152.506L139.001 186.677C139.868 187.153 145.307 190.15 146.362 190.422C149.351 191.7 152.828 192.474 156.444 192.731C157.342 192.796 158.249 192.831 159.155 192.831C164.972 192.831 170.773 191.532 175.217 189.016L175.569 188.827L199.954 175.783C206.375 172.091 208.258 166.717 205.647 161.925C205.058 160.84 204.289 159.775 203.258 158.799C202.739 157.397 194.803 152.15 193.117 151.223L137.425 118.426L81.3458 85.3895C80.0637 84.6862 72.136 80.436 70.4813 80.1978C68.6824 79.5193 66.7259 79.004 64.6746 78.692C62.871 78.4138 61.0129 78.2752 59.1607 78.2752V78.2745Z" fill="#D4D7DA"/>
<path d="M159.155 192.83C158.248 192.83 157.342 192.795 156.444 192.731C152.828 192.474 149.351 191.7 146.362 190.422C145.307 190.149 139.868 187.153 139 186.676L80.9984 152.506L22.6222 118.122C21.7107 117.622 16.8642 114.62 16.2757 113.957C12.9848 111.632 11.2559 108.72 11.1562 105.731C11.0578 102.542 12.8221 99.3646 16.3695 96.8032C16.9287 96.1894 21.4717 93.4245 22.3091 92.9441L39.2679 84.0908L41.3438 82.9225C42.1965 82.4308 44.8269 81.1135 45.8322 80.7921C49.8212 79.1361 54.4976 78.2739 59.1603 78.2739C61.0125 78.2739 62.8706 78.4128 64.6742 78.6908C66.7257 79.0027 68.6822 79.518 70.4808 80.1965C72.1356 80.435 80.063 84.6849 81.3453 85.3882L137.424 118.425L193.117 151.222C194.802 152.149 202.738 157.395 203.258 158.797C204.289 159.774 205.057 160.839 205.647 161.923C208.257 166.716 206.374 172.09 199.953 175.782L175.569 188.826L175.216 189.014C170.773 191.531 164.971 192.83 159.155 192.83V192.83ZM59.1851 78.503C54.6013 78.503 50.0049 79.3397 46.0752 80.9494C45.0404 81.2861 42.4728 82.5654 41.5969 83.0701L39.5253 84.2301L22.6418 93.0384C21.8535 93.4944 17.2418 96.2938 16.7112 96.8738C13.1438 99.4139 11.3759 102.576 11.4798 105.747C11.574 108.72 13.3124 111.613 16.6224 113.916C17.1776 114.541 22.097 117.577 22.9595 118.053L81.163 152.337L138.986 186.399C139.804 186.851 145.317 189.902 146.313 190.16C149.28 191.447 152.744 192.231 156.35 192.497C157.273 192.562 158.204 192.597 159.131 192.597C164.901 192.597 170.66 191.31 175.068 188.813L175.415 188.624L199.732 175.624C206.137 171.943 207.975 166.567 205.285 161.81C204.681 160.75 203.893 159.699 202.853 158.734C202.362 157.416 194.297 152.12 192.706 151.247L137.256 118.594L81.4204 85.7014C80.207 85.0319 72.1809 80.7019 70.6147 80.474C68.8313 79.7849 66.8848 79.2653 64.8482 78.9432C62.996 78.6454 61.0928 78.5025 59.1856 78.5025L59.1851 78.503Z" fill="#D4D7D8"/>
<path d="M159.132 192.597C158.205 192.597 157.274 192.562 156.352 192.497C152.745 192.231 149.281 191.447 146.314 190.159C145.318 189.902 139.805 186.851 138.987 186.399L81.1641 152.337L22.9606 118.053C22.0984 117.577 17.1787 114.541 16.6235 113.916C13.3135 111.613 11.5753 108.72 11.4809 105.747C11.3772 102.576 13.1451 99.4139 16.7123 96.8738C17.2432 96.2937 21.8549 93.4943 22.6429 93.0383L39.5264 84.23L41.598 83.07C42.4739 82.5653 45.0414 81.2861 46.0763 80.9493C50.006 79.3396 54.6023 78.5029 59.1862 78.5029C61.0934 78.5029 62.9966 78.6458 64.8488 78.9436C66.8855 79.2657 68.8319 79.7853 70.6154 80.4744C72.1816 80.702 80.2077 85.0323 81.4211 85.7018L137.256 118.594L192.706 151.248C194.298 152.12 202.363 157.416 202.853 158.735C203.894 159.7 204.681 160.75 205.285 161.81C207.976 166.567 206.138 171.943 199.732 175.624L175.415 188.624L175.068 188.813C170.66 191.31 164.902 192.598 159.131 192.598L159.132 192.597ZM59.2204 78.7301C54.7124 78.7301 50.1892 79.5439 46.32 81.1078C45.2554 81.4606 42.7526 82.699 41.8512 83.2143L39.7897 84.3731L22.975 93.1382C22.2318 93.5694 17.5495 96.3936 17.0495 96.9387C13.4726 99.4592 11.6929 102.611 11.7973 105.762C11.897 108.714 13.6413 111.587 16.9694 113.877C17.4906 114.471 22.4845 117.544 23.2964 117.988L81.3273 152.169L138.972 186.127C139.74 186.548 145.324 189.653 146.259 189.897C149.213 191.195 152.666 191.988 156.257 192.26C157.204 192.329 158.16 192.364 159.111 192.364C164.834 192.364 170.551 191.09 174.922 188.614L175.263 188.426L199.51 175.465C205.905 171.788 207.689 166.423 204.919 161.706C204.3 160.656 203.502 159.62 202.448 158.669C201.987 157.431 193.793 152.09 192.291 151.267L137.094 118.757L81.4912 86.0033C80.3508 85.374 72.2304 80.9699 70.7547 80.7564C68.9809 80.0531 67.0479 79.5276 65.0172 79.1906C63.1242 78.8834 61.1723 78.7299 59.22 78.7299L59.2204 78.7301Z" fill="#D4D5D7"/>
<path d="M159.111 192.364C158.16 192.364 157.204 192.329 156.257 192.261C152.666 191.988 149.213 191.196 146.259 189.897C145.324 189.654 139.74 186.549 138.972 186.127L81.3273 152.169L23.2964 117.989C22.4845 117.544 17.4909 114.471 16.9694 113.877C13.641 111.588 11.897 108.715 11.7973 105.763C11.6929 102.611 13.4726 99.4597 17.0495 96.9392C17.5494 96.3941 22.2318 93.5699 22.975 93.1387L39.7897 84.3736L41.8512 83.2148C42.7526 82.6995 45.2554 81.4611 46.32 81.1082C50.1892 79.5444 54.7126 78.7306 59.2204 78.7306C61.1728 78.7306 63.1246 78.8841 65.0177 79.1913C67.0484 79.5281 68.9811 80.0536 70.7551 80.7571C72.2307 80.9706 80.351 85.3747 81.4916 86.0041L137.095 118.758L192.291 151.268C193.793 152.091 201.988 157.432 202.448 158.67C203.503 159.621 204.301 160.656 204.92 161.707C207.689 166.424 205.906 171.789 199.51 175.465L175.263 188.426L174.922 188.615C170.552 191.091 164.834 192.364 159.111 192.364L159.111 192.364ZM59.2554 78.958C54.8262 78.958 50.377 79.7463 46.5571 81.2769C45.463 81.6292 43.0348 82.8272 42.1079 83.3621L40.0516 84.5222L23.3115 93.2362C22.6134 93.6384 17.8569 96.4976 17.3903 97.0077C13.7938 99.514 12.0106 102.646 12.1142 105.776C12.2179 108.71 13.9681 111.568 17.3161 113.842C17.8078 114.393 22.8703 117.503 23.6329 117.92L81.4954 152.001L138.952 185.849C139.675 186.251 145.328 189.407 146.21 189.634C149.144 190.943 152.582 191.741 156.163 192.023C157.129 192.097 158.105 192.137 159.081 192.137C164.759 192.137 170.431 190.868 174.767 188.411L175.104 188.227L199.286 175.307C205.668 171.636 207.402 166.279 204.553 161.598C203.923 160.567 203.106 159.542 202.036 158.609C201.605 157.441 193.283 152.065 191.875 151.293L136.931 118.926L81.5653 86.3113C80.4955 85.7254 72.2755 81.2329 70.8935 81.0294C69.1339 80.3254 67.2071 79.7905 65.1905 79.4436C63.2535 79.1167 61.2566 78.9578 59.2551 78.9578L59.2554 78.958Z" fill="#D2D4D7"/>
<path d="M159.081 192.137C158.105 192.137 157.13 192.097 156.163 192.023C152.582 191.741 149.144 190.943 146.21 189.634C145.328 189.406 139.676 186.251 138.953 185.849L81.4958 152.001L23.6333 117.92C22.8705 117.503 17.8082 114.392 17.3165 113.842C13.9687 111.568 12.2185 108.71 12.1146 105.776C12.011 102.646 13.7942 99.5138 17.3907 97.0074C17.8573 96.4973 22.6138 93.6381 23.3119 93.2359L40.052 84.5219L42.1083 83.3619C43.0352 82.827 45.4634 81.629 46.5575 81.2766C50.3774 79.7458 54.8266 78.9578 59.2558 78.9578C61.2574 78.9578 63.2542 79.1167 65.1912 79.4435C67.2077 79.7905 69.1345 80.3254 70.8942 81.0294C72.2759 81.2327 80.4959 85.7254 81.566 86.3113L136.932 118.926L191.876 151.293C193.283 152.065 201.606 157.441 202.037 158.609C203.107 159.542 203.924 160.567 204.553 161.598C207.403 166.279 205.668 171.636 199.287 175.307L175.105 188.227L174.767 188.411C170.432 190.868 164.76 192.137 159.082 192.137L159.081 192.137ZM59.2952 79.1713C54.9402 79.1713 50.5651 79.9435 46.7962 81.4351C45.6754 81.7973 43.3131 82.9616 42.3607 83.5067L40.3146 84.6608L23.6434 93.3304C22.9947 93.7071 18.1688 96.5958 17.7336 97.0764C14.1158 99.5631 12.3283 102.68 12.4375 105.792C12.5359 108.705 14.2998 111.548 17.6594 113.798C18.1197 114.313 23.2573 117.46 23.966 117.85L81.6602 151.832L138.937 185.577C139.611 185.949 145.338 189.164 146.161 189.378C149.074 190.691 152.498 191.502 156.069 191.79C157.055 191.868 158.047 191.909 159.042 191.909C164.675 191.909 170.314 190.655 174.618 188.207L174.951 188.029L199.063 175.148C205.43 171.483 207.124 166.131 204.192 161.489C203.543 160.468 202.714 159.468 201.63 158.551C201.228 157.461 192.777 152.036 191.464 151.312L136.763 119.094L81.6349 86.6237C80.6331 86.0685 72.3208 81.5003 71.0326 81.3123C69.2831 80.5929 67.3756 80.0483 65.3593 79.6915C63.3874 79.3446 61.3413 79.172 59.2952 79.172V79.1713Z" fill="#D2D4D5"/>
<path d="M159.042 191.909C158.046 191.909 157.055 191.868 156.069 191.79C152.498 191.502 149.074 190.69 146.161 189.377C145.338 189.164 139.611 185.949 138.937 185.577L81.6601 151.832L23.9659 117.85C23.2572 117.46 18.1193 114.313 17.6593 113.798C14.2994 111.549 12.5358 108.705 12.4373 105.791C12.3282 102.68 14.1157 99.563 17.7334 97.0763C18.1687 96.5959 22.9946 93.707 23.6433 93.3303L40.3145 84.6607L42.3606 83.5066C43.313 82.9615 45.6753 81.7972 46.7961 81.435C50.565 79.9434 54.9403 79.1711 59.2951 79.1711C61.3412 79.1711 63.3872 79.3438 65.3592 79.6907C67.3757 80.0478 69.283 80.5921 71.0324 81.3115C72.3207 81.4994 80.633 86.0679 81.6348 86.6229L136.763 119.094L191.463 151.312C192.777 152.035 201.228 157.46 201.63 158.55C202.714 159.467 203.543 160.467 204.192 161.488C207.124 166.131 205.43 171.482 199.063 175.147L174.951 188.028L174.618 188.207C170.313 190.654 164.675 191.909 159.042 191.909V191.909ZM59.3355 79.3993C55.0553 79.3993 50.7537 80.1477 47.0387 81.5996C45.8888 81.9703 43.5893 83.09 42.6137 83.6558L40.5771 84.8045L23.9758 93.4342C23.3703 93.7771 18.4762 96.705 18.0707 97.141C14.4388 99.6081 12.6451 102.715 12.7531 105.802C12.8575 108.705 14.6265 111.529 18.006 113.758C18.4313 114.239 23.6485 117.419 24.3074 117.781L81.8282 151.663L138.923 185.3C139.546 185.646 145.347 188.916 146.112 189.109C149.009 190.441 152.417 191.259 155.975 191.553C156.98 191.637 158.001 191.676 159.017 191.676C164.606 191.676 170.2 190.432 174.471 188.005L174.796 187.826L198.836 174.984C205.197 171.328 206.842 165.982 203.826 161.379C203.166 160.374 202.319 159.387 201.224 158.486C200.847 157.476 192.271 152.01 191.053 151.338L136.598 119.262L81.7089 86.9252C80.7778 86.4193 72.3658 81.7625 71.1706 81.5941C69.4369 80.8611 67.5285 80.3059 65.5327 79.9436C63.5162 79.5771 61.4252 79.3993 59.3352 79.3993H59.3355Z" fill="#CFD2D4"/>
<path d="M159.016 191.676C158.001 191.676 156.98 191.637 155.974 191.553C152.417 191.259 149.008 190.441 146.111 189.109C145.347 188.917 139.546 185.646 138.922 185.3L81.8278 151.663L24.307 117.781C23.6481 117.419 18.4309 114.239 18.0055 113.758C14.6261 111.529 12.857 108.705 12.7526 105.802C12.6447 102.715 14.4381 99.6083 18.0702 97.1411C18.476 96.7051 23.3699 93.7772 23.9754 93.4343L40.5767 84.8046L42.6133 83.6559C43.5889 83.0901 45.8884 81.9705 47.0382 81.5997C50.7532 80.1478 55.0549 79.3994 59.335 79.3994C61.425 79.3994 63.5162 79.5772 65.5326 79.9438C67.5283 80.306 69.4367 80.8612 71.1704 81.5943C72.3653 81.7627 80.7776 86.4195 81.7087 86.9253L136.598 119.263L191.052 151.338C192.271 152.01 200.846 157.476 201.224 158.486C202.318 159.387 203.165 160.374 203.825 161.379C206.842 165.982 205.197 171.328 198.835 174.985L174.796 187.826L174.471 188.005C170.2 190.432 164.606 191.676 159.016 191.676H159.016ZM59.3688 79.6221C55.1628 79.6221 50.937 80.3509 47.2756 81.7565C46.096 82.1391 43.8671 83.2245 42.866 83.8033L40.8395 84.948L24.307 93.5286C23.7518 93.8519 18.7832 96.8036 18.4113 97.211C14.7598 99.6628 12.9621 102.744 13.0759 105.821C13.1796 108.7 14.9536 111.509 18.3524 113.718C18.7426 114.164 24.034 117.375 24.6437 117.712L81.991 151.495L138.907 185.026C139.481 185.344 145.357 188.668 146.061 188.846C148.94 190.189 152.333 191.012 155.88 191.319C156.907 191.404 157.946 191.447 158.983 191.447C164.531 191.447 170.08 190.214 174.322 187.806L174.637 187.628L198.612 174.82C204.964 171.174 206.554 165.838 203.459 161.275C202.789 160.284 201.922 159.309 200.817 158.427C200.47 157.49 191.76 151.98 190.637 151.361L136.43 119.425L81.7777 87.2361C80.9214 86.7617 72.4149 82.0302 71.3095 81.8718C69.5848 81.1328 67.6929 80.5682 65.7019 80.1965C63.6499 79.8099 61.5093 79.6219 59.369 79.6219L59.3688 79.6221Z" fill="#CFD3D5"/>
<path d="M158.983 191.447C157.947 191.447 156.907 191.404 155.881 191.319C152.334 191.012 148.94 190.189 146.061 188.846C145.358 188.669 139.481 185.344 138.907 185.027L81.9914 151.495L24.6442 117.713C24.0344 117.376 18.743 114.165 18.3529 113.719C14.9541 111.51 13.18 108.701 13.0764 105.822C12.9625 102.745 14.7602 99.6633 18.4117 97.2117C18.7836 96.8043 23.7522 93.8526 24.3074 93.5293L40.8399 84.9487L42.8664 83.804C43.8675 83.2252 46.0964 82.1398 47.276 81.7572C50.9376 80.3516 55.1632 79.6228 59.3692 79.6228C61.5095 79.6228 63.6501 79.8108 65.7021 80.1974C67.6931 80.5693 69.585 81.1337 71.3097 81.8727C72.4151 82.0312 80.9216 86.7626 81.7779 87.237L136.43 119.426L190.637 151.362C191.76 151.981 200.47 157.491 200.817 158.428C201.922 159.31 202.789 160.285 203.459 161.276C206.554 165.839 204.964 171.175 198.612 174.821L174.638 187.629L174.322 187.807C170.08 190.214 164.532 191.448 158.983 191.448L158.983 191.447ZM59.399 79.846C55.273 79.846 51.1202 80.5535 47.5192 81.9218C46.3099 82.3131 44.1448 83.3581 43.1191 83.9483L41.0985 85.0922L24.6444 93.6285C24.135 93.9208 19.0956 96.9075 18.7527 97.2854C15.0816 99.7121 13.2785 102.78 13.3926 105.836C13.4977 108.695 15.2816 111.489 18.6941 113.679C19.0564 114.091 24.4215 117.34 24.976 117.643L82.16 151.328L138.888 184.754C139.419 185.048 145.364 188.426 146.013 188.589C148.872 189.937 152.249 190.769 155.787 191.081C156.838 191.17 157.898 191.216 158.958 191.216C164.458 191.216 169.967 189.991 174.168 187.598L174.485 187.429L198.39 174.662C204.728 171.02 206.272 165.695 203.097 161.168C202.408 160.191 201.531 159.235 200.406 158.363C200.09 157.506 191.257 151.952 190.226 151.387L136.267 119.601L81.8483 87.5396C81.0649 87.1083 72.46 82.2926 71.4488 82.1492C69.7402 81.4008 67.8566 80.8319 65.8709 80.4458C63.7797 80.0443 61.5901 79.8462 59.3992 79.8462L59.399 79.846Z" fill="#CFD2D4"/>
<path d="M158.957 191.215C157.897 191.215 156.837 191.17 155.786 191.081C152.249 190.769 148.871 189.937 146.012 188.589C145.363 188.426 139.418 185.047 138.887 184.754L82.1592 151.328L24.9752 117.642C24.4207 117.34 19.0556 114.09 18.6933 113.679C15.2808 111.489 13.4969 108.695 13.3918 105.835C13.278 102.779 15.0808 99.7121 18.7519 97.2851C19.0948 96.9073 24.134 93.9205 24.6436 93.6282L41.0977 85.092L43.1183 83.948C44.1437 83.3579 46.3091 82.3129 47.5184 81.9215C51.1196 80.5532 55.2722 79.8457 59.3982 79.8457C61.589 79.8457 63.7787 80.0438 65.8699 80.4453C67.8555 80.8314 69.7391 81.4001 71.4477 82.1487C72.459 82.2923 81.0639 87.1081 81.8472 87.5391L136.266 119.6L190.225 151.387C191.256 151.951 200.089 157.505 200.405 158.362C201.53 159.234 202.408 160.191 203.096 161.167C206.271 165.695 204.726 171.02 198.389 174.662L174.484 187.429L174.167 187.597C169.966 189.99 164.457 191.215 158.957 191.215L158.957 191.215ZM59.453 80.0634C55.3903 80.0634 51.3088 80.7474 47.7558 82.084C46.5228 82.4815 44.4222 83.4913 43.3712 84.0968L41.3601 85.2356L24.9754 93.7224C24.5104 93.9905 19.407 97.0074 19.095 97.3538C15.4043 99.761 13.5954 102.814 13.7094 105.847C13.8192 108.689 15.6067 111.47 19.0405 113.64C19.3678 114.01 24.807 117.295 25.3122 117.578L82.3224 151.159L138.872 184.477C139.353 184.744 145.373 188.178 145.957 188.326C148.8 189.684 152.17 190.526 155.692 190.839C156.768 190.937 157.848 190.986 158.932 190.986C164.388 190.986 169.853 189.773 174.019 187.395L174.331 187.231L198.166 174.503C204.487 170.867 205.989 165.545 202.729 161.057C202.025 160.097 201.133 159.154 199.999 158.298C199.712 157.52 190.744 151.922 189.813 151.412L136.098 119.768L81.9216 87.852C81.2082 87.4599 72.5024 82.5599 71.5868 82.4307C69.8877 81.6679 68.0194 81.0839 66.0423 80.6923C63.9119 80.2706 61.6873 80.063 59.4527 80.063L59.453 80.0634Z" fill="#CED1D3"/>
<path d="M158.931 190.986C157.847 190.986 156.767 190.937 155.692 190.839C152.169 190.526 148.8 189.685 145.956 188.327C145.372 188.178 139.353 184.745 138.872 184.478L82.3221 151.159L25.3119 117.578C24.8065 117.296 19.3675 114.01 19.0402 113.64C15.6062 111.47 13.8187 108.69 13.7092 105.847C13.5953 102.815 15.4041 99.7613 19.0948 97.3541C19.4067 97.0077 24.5101 93.9907 24.9751 93.7227L41.3598 85.2358L43.371 84.0971C44.4219 83.4916 46.5225 82.4815 47.7555 82.0843C51.3085 80.7474 55.3901 80.0637 59.4527 80.0637C61.6875 80.0637 63.9121 80.2713 66.0423 80.6931C68.0196 81.0844 69.8876 81.6687 71.5868 82.4315C72.5024 82.5606 81.2082 87.4607 81.9216 87.8527L136.098 119.769L189.813 151.412C190.744 151.922 199.712 157.52 199.999 158.299C201.133 159.155 202.025 160.097 202.729 161.058C205.989 165.546 204.487 170.867 198.166 174.504L174.331 187.232L174.019 187.396C169.852 189.774 164.388 190.987 158.932 190.987L158.931 190.986ZM59.482 80.2867C55.4989 80.2867 51.4908 80.9498 47.9983 82.2484C46.7303 82.6546 44.6977 83.625 43.6279 84.24L41.6222 85.3745L25.3074 93.8221L19.4313 97.4186C15.7312 99.8116 13.9123 102.848 14.0301 105.86C14.1399 108.685 15.9333 111.445 19.3867 113.605C19.6786 113.932 25.1933 117.256 25.6489 117.509L82.486 150.991L138.857 184.205C139.288 184.442 145.382 187.931 145.907 188.064C148.731 189.432 152.085 190.283 155.598 190.606C156.687 190.704 157.798 190.755 158.902 190.755C164.313 190.755 169.738 189.55 173.87 187.197L174.176 187.029L197.942 174.346C204.256 170.714 205.706 165.397 202.362 160.954C201.649 160.003 200.742 159.082 199.593 158.239C199.33 157.539 190.238 151.892 189.397 151.436L135.933 119.937L81.9901 88.1543C81.3454 87.8015 72.5524 82.8273 71.724 82.7094C70.0402 81.9355 68.1821 81.347 66.2161 80.9455C64.0448 80.5044 61.7668 80.2867 59.4818 80.2867H59.482Z" fill="#CED1D3"/>
<path d="M158.903 190.755C157.8 190.755 156.689 190.704 155.599 190.606C152.086 190.283 148.733 189.432 145.908 188.064C145.383 187.931 139.29 184.442 138.859 184.205L82.4877 150.991L25.6506 117.509C25.195 117.256 19.68 113.932 19.3883 113.605C15.935 111.445 14.1413 108.685 14.0318 105.86C13.9137 102.848 15.7326 99.8117 19.433 97.4187L25.3091 93.8222L41.6239 85.3746L43.6296 84.2401C44.6994 83.6251 46.732 82.6547 48 82.2485C51.4925 80.9496 55.5006 80.2867 59.4837 80.2867C61.7687 80.2867 64.0467 80.5045 66.218 80.9456C68.184 81.3471 70.0421 81.9354 71.7259 82.7095C72.5544 82.8276 81.3473 87.8016 81.992 88.1544L135.935 119.937L189.399 151.436C190.24 151.892 199.332 157.54 199.595 158.239C200.743 159.082 201.651 160.003 202.364 160.954C205.708 165.397 204.257 170.714 197.944 174.346L174.178 187.029L173.872 187.197C169.74 189.55 164.315 190.755 158.904 190.755H158.903ZM59.5245 80.5042C55.6102 80.5042 51.6805 81.149 48.2371 82.4075C46.9453 82.8273 44.9776 83.7543 43.882 84.3931L41.8863 85.5236L25.6402 93.9167L19.774 97.4876C16.0535 99.8558 14.2353 102.883 14.3485 105.876C14.4583 108.679 16.267 111.425 19.7348 113.56L25.9869 117.44L82.6556 150.817L138.839 183.933C139.229 184.14 145.393 187.682 145.859 187.807C148.662 189.179 152.008 190.042 155.505 190.373C156.61 190.477 157.729 190.526 158.848 190.526C164.22 190.526 169.614 189.338 173.717 186.994L174.02 186.831L197.721 174.182C204.018 170.56 205.426 165.249 202.002 160.844C201.274 159.903 200.347 159.001 199.188 158.178C198.955 157.555 189.735 151.868 188.987 151.452L135.767 120.104L82.0605 88.4616C81.4918 88.1485 72.5973 83.0902 71.8603 82.9858C70.1909 82.2096 68.3422 81.6099 66.3861 81.1983C64.1757 80.7376 61.8526 80.5045 59.5243 80.5045L59.5245 80.5042Z" fill="#CBCED1"/>
<path d="M158.848 190.526C157.728 190.526 156.609 190.477 155.504 190.373C152.007 190.042 148.662 189.18 145.858 187.807C145.392 187.682 139.228 184.14 138.838 183.933L82.6549 150.817L25.9862 117.441L19.7341 113.56C16.2663 111.425 14.4576 108.679 14.3478 105.876C14.2344 102.883 16.0528 99.8559 19.7733 97.4877L25.6395 93.9167L41.8856 85.5236L43.8814 84.3931C44.9767 83.7543 46.9446 82.8274 48.2364 82.4075C51.6798 81.149 55.6095 80.5043 59.5238 80.5043C61.8521 80.5043 64.1752 80.7374 66.3857 81.1981C68.3415 81.6097 70.1902 82.2093 71.8598 82.9856C72.5971 83.09 81.4914 88.1483 82.06 88.4614L135.767 120.104L188.986 151.452C189.735 151.867 198.955 157.555 199.188 158.178C200.346 159.001 201.273 159.903 202.001 160.844C205.425 165.249 204.018 170.56 197.72 174.182L174.02 186.831L173.716 186.994C169.614 189.338 164.22 190.526 158.848 190.526L158.848 190.526ZM59.5571 80.7319C55.7228 80.7319 51.8638 81.3469 48.4791 82.5704C47.1559 82.9958 45.2546 83.8877 44.1338 84.5322L42.1482 85.6667L25.9762 94.0142L20.1162 97.5578C16.3745 99.9057 14.552 102.918 14.6659 105.89C14.7792 108.679 16.5922 111.405 20.0753 113.52L26.3234 117.369L82.8183 150.654L138.823 183.654L145.808 187.539C148.593 188.926 151.923 189.798 155.41 190.135C156.535 190.244 157.679 190.299 158.818 190.299C164.145 190.299 169.5 189.119 173.567 186.791L173.865 186.632L197.498 174.023C203.784 170.412 205.152 165.091 201.634 160.737C200.891 159.815 199.95 158.924 198.776 158.116C198.578 157.571 189.223 151.842 188.57 151.481L135.602 120.269L82.1344 88.7682C81.6345 88.4912 72.6418 83.3583 71.9987 83.268C70.3427 82.4816 68.5042 81.8726 66.5578 81.4508C64.3084 80.9705 61.936 80.7319 59.5571 80.7319V80.7319Z" fill="#CBCED0"/>
<path d="M158.817 190.299C157.679 190.299 156.534 190.244 155.409 190.135C151.922 189.799 148.592 188.926 145.807 187.539L138.822 183.654L82.8176 150.654L26.3227 117.369L20.0746 113.52C16.5915 111.405 14.7785 108.679 14.6652 105.89C14.5513 102.918 16.3738 99.9058 20.1155 97.5577L25.9755 94.0141L42.1475 85.6666L44.1331 84.5321C45.2539 83.8874 47.1555 82.9954 48.4784 82.5703C51.8631 81.3468 55.7221 80.7318 59.5564 80.7318C61.9353 80.7318 64.3075 80.9703 66.5571 81.4507C68.5036 81.8725 70.3421 82.4815 71.998 83.2679C72.6408 83.3581 81.6335 88.4911 82.1337 88.7681L135.602 120.269L188.569 151.481C189.222 151.842 198.578 157.57 198.776 158.115C199.949 158.923 200.89 159.815 201.633 160.736C205.151 165.091 203.784 170.412 197.498 174.023L173.864 186.632L173.567 186.791C169.499 189.119 164.144 190.299 158.817 190.299V190.299ZM59.6072 80.9396C55.8407 80.9396 52.0515 81.5451 48.716 82.729C47.3638 83.1702 45.5307 84.0225 44.386 84.6813L42.4106 85.8057L26.3076 94.1088L20.4527 97.621C16.6961 99.9606 14.869 102.943 14.9828 105.9C15.0962 108.675 16.9191 111.386 20.4218 113.481L26.6604 117.301L82.982 150.486L138.808 183.382L145.758 187.282C148.523 188.674 151.838 189.55 155.315 189.897C156.459 190.011 157.619 190.071 158.784 190.071C164.07 190.071 169.381 188.897 173.419 186.588L173.711 186.433L197.269 173.864C203.546 170.254 204.863 164.942 201.272 160.626C200.514 159.715 199.558 158.843 198.369 158.051C198.196 157.584 188.717 151.812 188.159 151.501L135.439 120.441L82.2039 89.0751C81.7769 88.842 72.6862 83.6248 72.1359 83.5459C70.4967 82.7441 68.663 82.1249 66.726 81.6937C64.4468 81.1878 62.03 80.9394 59.6074 80.9394L59.6072 80.9396Z" fill="#C8CCCF"/>
<path d="M158.785 190.071C157.621 190.071 156.461 190.011 155.317 189.897C151.839 189.55 148.525 188.674 145.76 187.282L138.81 183.382L82.9837 150.486L26.6621 117.301L20.4235 113.481C16.9208 111.386 15.0976 108.676 14.9845 105.901C14.8707 102.943 16.6978 99.9609 20.4544 97.6213L26.3093 94.1091L42.4123 85.806L44.3877 84.6816C45.5324 84.0228 47.3655 83.1705 48.7177 82.7293C52.0532 81.5455 55.8424 80.9399 59.6089 80.9399C62.0317 80.9399 64.4483 81.1884 66.7274 81.6942C68.6644 82.1255 70.4982 82.7447 72.1374 83.5464C72.6879 83.6253 81.7783 88.8425 82.2053 89.0756L135.44 120.441L188.16 151.501C188.719 151.812 198.197 157.585 198.371 158.051C199.559 158.843 200.515 159.715 201.274 160.627C204.865 164.943 203.548 170.254 197.27 173.865L173.713 186.434L173.42 186.589C169.383 188.897 164.072 190.071 158.785 190.071L158.785 190.071ZM59.658 81.1591C55.9572 81.1591 52.241 81.7434 48.9567 82.8975C47.5789 83.3386 45.8146 84.1505 44.6409 84.8302L42.669 85.9545L26.6418 94.2083L20.7952 97.6914C17.0244 100.01 15.1824 102.977 15.3057 105.916C15.4195 108.669 17.2481 111.365 20.7702 113.446L26.9986 117.231L83.1518 150.316L138.794 183.105L145.71 187.019C148.455 188.426 151.759 189.307 155.223 189.664C156.387 189.779 157.571 189.838 158.754 189.838C163.997 189.838 169.268 188.678 173.272 186.384L173.558 186.231L197.049 173.707C203.315 170.099 204.579 164.799 200.908 160.523C200.14 159.627 199.163 158.764 197.964 157.99C197.821 157.604 188.215 151.783 187.742 151.526L135.272 120.61L82.2795 89.3833C81.9231 89.1852 72.737 83.8933 72.276 83.8244C70.6456 83.0172 68.8285 82.3881 66.8956 81.9467C64.5815 81.4217 62.1249 81.1591 59.6578 81.1591H59.658Z" fill="#C8CCCF"/>
<path d="M158.754 189.838C157.57 189.838 156.387 189.779 155.223 189.664C151.759 189.307 148.454 188.426 145.71 187.019L138.794 183.105L83.1518 150.316L26.9986 117.231L20.7701 113.446C17.2478 111.365 15.4194 108.669 15.3056 105.916C15.1823 102.978 17.0244 100.01 20.7951 97.6914L26.6417 94.2083L42.6689 85.9545L44.6408 84.8302C45.8145 84.1505 47.5789 83.3386 48.9566 82.8974C52.2411 81.7433 55.9573 81.1591 59.6579 81.1591C62.1251 81.1591 64.5816 81.4219 66.8957 81.9467C68.8285 82.3878 70.6457 83.0172 72.2762 83.8244C72.7369 83.8931 81.923 89.1852 82.2796 89.3833L135.272 120.61L187.743 151.526C188.215 151.783 197.821 157.604 197.964 157.99C199.164 158.764 200.14 159.627 200.908 160.523C204.579 164.799 203.315 170.099 197.049 173.707L173.558 186.231L173.272 186.384C169.268 188.678 163.997 189.838 158.755 189.838H158.754ZM59.687 81.3806C56.065 81.3806 52.4237 81.941 49.1992 83.0559C47.7919 83.5067 46.0927 84.2846 44.8987 84.9728L42.9315 86.0979L26.973 94.3065L21.1366 97.7599C17.3422 100.054 15.4995 103.012 15.6228 105.931C15.742 108.665 17.5751 111.35 21.117 113.406L27.3353 117.167L83.3147 150.148L138.778 182.833L145.656 186.751C148.386 188.168 151.675 189.059 155.128 189.426C156.312 189.55 157.516 189.61 158.715 189.61C163.917 189.61 169.149 188.456 173.117 186.181L173.405 186.033L196.825 173.542C203.077 169.95 204.3 164.645 200.541 160.409C199.757 159.532 198.771 158.684 197.552 157.928L187.332 151.55L135.107 120.778L82.3479 89.6891L72.415 84.1066C70.7995 83.2892 68.9865 82.6487 67.0684 82.1982C64.7158 81.6491 62.2035 81.3808 59.6865 81.3808L59.687 81.3806Z" fill="#C7C9CC"/>
<path d="M158.714 189.611C157.515 189.611 156.311 189.55 155.127 189.426C151.674 189.06 148.385 188.168 145.655 186.751L138.778 182.833L83.314 150.148L27.3346 117.167L21.1163 113.407C17.5743 111.35 15.7413 108.665 15.622 105.931C15.4987 103.013 17.3412 100.055 21.1359 97.7601L26.9723 94.3068L42.9307 86.0981L44.8979 84.9731C46.0917 84.2851 47.7909 83.507 49.1984 83.0562C52.4229 81.9413 56.0645 81.3809 59.6862 81.3809C62.2032 81.3809 64.7155 81.6489 67.0681 82.1982C68.9862 82.649 70.7992 83.2895 72.4147 84.1066L82.3476 89.6892L135.107 120.778L187.332 151.55L197.552 157.928C198.771 158.684 199.756 159.533 200.541 160.409C204.3 164.645 203.076 169.95 196.824 173.542L173.404 186.033L173.117 186.181C169.149 188.456 163.916 189.61 158.715 189.61L158.714 189.611ZM59.7214 81.5943C56.1736 81.5943 52.601 82.1394 49.4353 83.2194C47.999 83.6855 46.3643 84.4186 45.1492 85.1219L43.1934 86.241L27.3098 94.4065L21.4729 97.8303C17.6683 100.104 15.8161 103.046 15.9437 105.945C16.0575 108.66 17.9014 111.325 21.4634 113.367L27.6706 117.097L83.4828 149.974L138.758 182.56L145.606 186.494C148.321 187.921 151.596 188.817 155.034 189.183C156.238 189.318 157.462 189.382 158.691 189.382C163.848 189.382 169.03 188.237 172.969 185.983L173.246 185.835L196.602 173.38C202.84 169.793 204.018 164.486 200.174 160.299C199.381 159.439 198.375 158.61 197.146 157.863L186.921 151.575L134.939 120.946L82.4227 89.9971L72.5541 84.3836C70.9487 83.5521 69.1498 82.9074 67.2372 82.4509C64.8494 81.8768 62.288 81.5946 59.7224 81.5946L59.7214 81.5943Z" fill="#C7C9CE"/>
<path d="M158.69 189.382C157.462 189.382 156.237 189.318 155.033 189.183C151.595 188.817 148.32 187.921 145.605 186.494L138.757 182.56L83.4818 149.974L27.6696 117.097L21.4624 113.367C17.9004 111.325 16.0565 108.66 15.9427 105.945C15.8152 103.046 17.6674 100.104 21.4719 97.8302L27.3088 94.4063L43.1924 86.2409L45.1482 85.1217C46.3635 84.4185 47.998 83.6854 49.4343 83.2193C52.6 82.1393 56.1729 81.5942 59.7205 81.5942C62.2861 81.5942 64.8475 81.8764 67.2353 82.4506C69.1479 82.9073 70.9467 83.552 72.5522 84.3833L82.4208 89.9968L134.937 120.946L186.919 151.575L197.144 157.863C198.373 158.609 199.379 159.438 200.172 160.299C204.016 164.485 202.838 169.793 196.6 173.38L173.245 185.835L172.967 185.982C169.028 188.237 163.846 189.381 158.689 189.381L158.69 189.382ZM59.7859 81.8018C56.2968 81.8018 52.7948 82.3327 49.678 83.3777C48.206 83.854 46.6462 84.5519 45.4019 85.2656L43.4548 86.3847L27.6399 94.5008L21.8148 97.8991C17.9895 100.159 16.1368 103.081 16.2606 105.961C16.3798 108.66 18.2278 111.305 21.8046 113.322L28.0064 117.023L83.6443 149.811L138.743 182.282L145.555 186.231C148.245 187.668 151.511 188.574 154.939 188.956C156.158 189.089 157.401 189.154 158.64 189.154C163.757 189.154 168.91 188.025 172.819 185.781L173.092 185.636L196.377 173.221C202.605 169.644 203.74 164.337 199.811 160.195C198.999 159.338 197.978 158.531 196.739 157.808L186.504 151.594L134.775 121.115L82.4907 90.304L72.6865 84.6657C71.1012 83.8241 69.3121 83.164 67.41 82.699C64.992 82.0994 62.3909 81.8016 59.7861 81.8016L59.7859 81.8018Z" fill="#C4C8CC"/>
<path d="M158.641 189.154C157.402 189.154 156.159 189.089 154.94 188.956C151.512 188.574 148.247 187.668 145.556 186.231L138.744 182.282L83.6454 149.811L28.0075 117.023L21.8058 113.323C18.2289 111.305 16.381 108.66 16.2617 105.961C16.1377 103.081 17.9906 100.159 21.8159 97.8992L27.641 94.5009L43.4559 86.3848L45.403 85.2656C46.6473 84.5522 48.2072 83.8541 49.6792 83.3778C52.7957 82.3328 56.2977 81.8019 59.787 81.8019C62.3918 81.8019 64.9929 82.0997 67.4109 82.6993C69.313 83.1643 71.1021 83.8243 72.6874 84.666L82.4916 90.3043L134.776 121.116L186.505 151.595L196.74 157.808C197.979 158.531 199 159.339 199.812 160.196C203.741 164.337 202.606 169.644 196.378 173.221L173.093 185.636L172.82 185.781C168.911 188.025 163.758 189.154 158.641 189.154L158.641 189.154ZM59.8161 82.0196C56.4076 82.0196 52.9785 82.5309 49.9165 83.541C48.4207 84.0267 46.9239 84.6856 45.6559 85.4144L43.719 86.5234L27.9747 94.5986L22.1572 97.9679C18.3134 100.208 16.4553 103.111 16.5793 105.974C16.7026 108.656 18.5607 111.286 22.1529 113.287L28.3452 116.958L83.8148 149.643L138.729 182.01L145.507 185.969C148.182 187.415 151.428 188.333 154.846 188.719C156.085 188.857 157.343 188.926 158.601 188.926C163.68 188.926 168.797 187.802 172.672 185.578L172.939 185.434L196.156 173.063C202.368 169.49 203.469 164.174 199.445 160.088C198.622 159.245 197.587 158.451 196.329 157.743L186.094 151.62L134.607 121.284L82.5657 90.6123L72.8263 84.9437C71.2511 84.0914 69.4712 83.4274 67.58 82.9468C65.1223 82.333 62.4761 82.0199 59.8161 82.0199V82.0196Z" fill="#C4C7CC"/>
<path d="M158.601 188.926C157.343 188.926 156.084 188.856 154.846 188.718C151.428 188.332 148.182 187.415 145.506 185.968L138.729 182.01L83.8145 149.643L28.345 116.958L22.1527 113.287C18.5604 111.286 16.7023 108.655 16.5791 105.974C16.4551 103.11 18.3132 100.207 22.1569 97.9673L27.9744 94.5981L43.7187 86.5228L45.6557 85.4138C46.9236 84.685 48.4206 84.0259 49.9162 83.5404C52.9783 82.5303 56.4073 82.019 59.8158 82.019C62.4756 82.019 65.122 82.3322 67.5797 82.946C69.4711 83.4263 71.2508 84.0906 72.826 84.9429L82.5655 90.6115L134.607 121.283L186.093 151.62L196.329 157.743C197.587 158.451 198.622 159.244 199.445 160.087C203.469 164.173 202.368 169.489 196.156 173.062L172.938 185.433L172.672 185.577C168.797 187.801 163.679 188.926 158.601 188.926V188.926ZM59.8597 82.2328C54.8262 82.2328 49.7537 83.3477 45.9084 85.5569L43.9761 86.6678L28.306 94.6939L22.4986 98.0323C15.023 102.328 15.023 109.145 22.4986 113.248L83.9789 149.474L145.457 185.71C149.089 187.702 153.811 188.693 158.566 188.693C163.605 188.693 168.679 187.584 172.518 185.373L195.932 172.903C203.404 168.607 203.394 161.786 195.923 157.678L134.444 121.452L72.9637 85.2197C69.3377 83.2239 64.6162 82.2323 59.8597 82.2323V82.2328Z" fill="#C2C6CB"/>
<path d="M158.566 188.693C153.81 188.693 149.089 187.702 145.457 185.711L83.9786 149.475L22.4983 113.248C15.0227 109.146 15.0227 102.329 22.4983 98.0328L28.3057 94.6944L43.9758 86.6683L45.9081 85.5575C49.7534 83.3482 54.8261 82.2333 59.8594 82.2333C64.6159 82.2333 69.3372 83.2249 72.9634 85.2207L134.444 121.453L195.923 157.679C203.394 161.787 203.404 168.608 195.932 172.904L172.518 185.374C168.679 187.585 163.604 188.694 158.566 188.694V188.693Z" fill="#C0C4C7"/>
<path fill-rule="evenodd" clip-rule="evenodd" d="M163.05 196.199L173.548 159.061L187.134 167.018L163.05 196.199Z" fill="url(#paint0_linear_156_711)"/>
<path fill-rule="evenodd" clip-rule="evenodd" d="M174.683 155.052L193.332 89.1006L204.151 172.28L174.683 155.052Z" fill="#C0C4C7"/>
<path fill-rule="evenodd" clip-rule="evenodd" d="M13.9814 107.001L163.05 196.2L193.331 89.1007L44.4162 0L13.9814 107.001Z" fill="#EAEAE9"/>
<path fill-rule="evenodd" clip-rule="evenodd" d="M178.567 94.9668L52.0473 19.2629L28.7568 101.145L155.391 176.922L178.567 94.9668Z" fill="#C0C4C7"/>
<path fill-rule="evenodd" clip-rule="evenodd" d="M116.637 77.6759L45.7744 35.27L47.1954 30.2663L118.361 72.8394C117.741 74.4401 117.173 76.055 116.637 77.6759V77.6759Z" fill="#EAEAE9"/>
<path fill-rule="evenodd" clip-rule="evenodd" d="M111.971 95.2491L40.9238 52.7395L42.3467 47.7256L113.169 90.1006C112.758 91.8151 112.361 93.5284 111.971 95.2491V95.2491Z" fill="#EAEAE9"/>
<path fill-rule="evenodd" clip-rule="evenodd" d="M107.966 112.435L107.779 113.099L36.0742 70.1949L37.5011 65.1853L109.072 108.011C108.716 109.487 108.353 110.959 107.966 112.435V112.435Z" fill="#EAEAE9"/>
<path fill-rule="evenodd" clip-rule="evenodd" d="M102.398 130.241L31.2236 87.6586L32.6505 82.6489L104.029 125.357C103.484 126.987 102.943 128.616 102.398 130.241V130.241Z" fill="#EAEAE9"/>
<path fill-rule="evenodd" clip-rule="evenodd" d="M43.1777 113.338L38.2285 110.374L63.5261 21.4382L68.4746 24.4001L43.1777 113.338Z" fill="#EAEAE9"/>
<path fill-rule="evenodd" clip-rule="evenodd" d="M58.7011 123.037L53.752 120.08L79.0493 31.1386L83.9985 34.1015L58.7011 123.037Z" fill="#EAEAE9"/>
<path fill-rule="evenodd" clip-rule="evenodd" d="M74.2177 132.738L69.2686 129.776L94.5662 40.8402L99.5154 43.7979L74.2177 132.738Z" fill="#EAEAE9"/>
<path fill-rule="evenodd" clip-rule="evenodd" d="M107.199 152.14L84.79 139.482L110.088 50.5345L132.502 63.1979L107.199 152.14Z" fill="#EAEAE9"/>
<path fill-rule="evenodd" clip-rule="evenodd" d="M187.134 167.018L173.548 159.061L174.682 155.052L204.151 172.281L187.134 167.018Z" fill="#C0C4C7"/>
<path d="M86.7485 128.373L81.6902 130.137L81.3432 130.256C80.5065 130.548 79.5891 130.108 79.2972 129.271L79.2284 128.973L76.7412 112.133L82.6511 128.096L80.1887 126.936L84.7772 124.167C85.8768 123.508 87.3131 123.86 87.9774 124.964C88.6465 126.064 88.2894 127.501 87.1898 128.165L86.7487 128.373H86.7485Z" fill="#4A79BB"/>
<path d="M65.4041 74.0486L60.3451 75.8125L59.9982 75.9318C59.1615 76.2241 58.2499 75.783 57.9575 74.946L57.8876 74.6537L55.4004 57.808L61.3074 73.7759L58.8443 72.6175L63.4324 69.8478C64.5374 69.1835 65.9683 69.5347 66.6373 70.6397C67.3016 71.74 66.9505 73.1817 65.845 73.8465L65.4043 74.0486H65.4041Z" fill="#4A79BB"/>
<path d="M91.5963 49.7973L86.5392 51.5612L86.1923 51.6851C85.3537 51.977 84.4381 51.5262 84.1462 50.6989L84.0756 50.4011L81.5889 33.5613L87.4999 49.525L85.038 48.365L89.6242 45.5953C90.7296 44.9322 92.1619 45.2892 92.8251 46.3888C93.4953 47.4926 93.1382 48.9247 92.0332 49.5937L91.5961 49.797L91.5963 49.7973Z" fill="#4A79BB"/>
<path d="M61.545 138.218C60.4105 139.084 60.5491 140.235 61.8468 140.774C63.1504 141.325 65.1266 141.056 66.2569 140.19C67.3914 139.317 67.2567 138.173 65.955 137.624C64.6514 137.083 62.6741 137.351 61.545 138.218V138.218Z" fill="#C0C4C7"/>
<defs>
<linearGradient id="paint0_linear_156_711" x1="163.842" y1="191.929" x2="179.553" y2="164.42" gradientUnits="userSpaceOnUse">
<stop stop-color="#ABAEAF"/>
<stop offset="1" stop-color="#EEEEEE"/>
</linearGradient>
</defs>
</svg>
