<svg width="78" height="101" viewBox="0 0 78 101" fill="none" xmlns="http://www.w3.org/2000/svg">
<path d="M31.9085 5.77991L77.9998 21.2577V79.2632C77.9998 91.0035 62.3757 100.525 43.101 100.525C23.8298 100.525 8.20215 91.0035 8.20215 79.2632V21.2577L31.9085 5.77991V5.77991Z" fill="#EAEAE9"/>
<path d="M8.20215 21.2578C8.20215 32.9998 23.8298 42.5214 43.101 42.5214C62.3757 42.5214 77.9998 32.9999 77.9998 21.2578C77.9998 9.51865 62.3757 0 43.101 0C23.8298 0 8.20215 9.51865 8.20215 21.2578Z" fill="#EAEAE9"/>
<path d="M72.8121 32.4135C66.6623 38.4752 55.6582 42.5215 43.1006 42.5215C30.547 42.5215 19.5371 38.4752 13.3925 32.4135C12.9645 31.1861 12.7393 29.9068 12.7393 28.5919C12.7393 18.3831 26.3365 10.1011 43.1005 10.1011C59.8685 10.1011 73.4611 18.3831 73.4611 28.5919C73.4611 29.9068 73.2405 31.1861 72.812 32.4135H72.8121Z" fill="#FCB63B"/>
<path d="M43.101 40.0717C25.5145 40.0717 10.6461 31.4602 10.6461 21.2578C10.6461 11.0641 25.5145 2.44505 43.101 2.44505C60.6967 2.44505 75.5554 11.0641 75.5554 21.2578C75.5554 31.4602 60.6967 40.0717 43.101 40.0717ZM43.101 0C23.8298 0 8.20215 9.51865 8.20215 21.2578C8.20215 32.9998 23.8298 42.5214 43.101 42.5214C62.3757 42.5214 77.9998 32.9999 77.9998 21.2578C77.9998 9.51865 62.3757 0 43.101 0V0Z" fill="#FEFEFE"/>
<path d="M13.3309 44.7009L14.6062 43.9648V43.9891L14.6251 43.9741V44.0041L14.6453 43.9892V44.0139L14.669 44.0041V44.0179L14.6879 44.0139V44.0329L14.7069 44.0179V44.0427L14.7271 44.0329V44.0576L14.7467 44.0427V44.0616L14.7697 44.0576V44.0755L14.7886 44.0616V44.0904L14.8076 44.0755V44.0997L14.8283 44.0905V44.1095L14.8473 44.0997V44.1244L14.8663 44.1095V44.1337L14.8893 44.1245V44.1475L14.91 44.1337V44.1585L14.929 44.1475V44.1682L14.9479 44.1585V44.1814L14.9669 44.1681V44.1895L14.9859 44.1814V44.2062L15.0106 44.1895V44.2142L15.0244 44.2062V44.2211L15.0486 44.2142V44.2332L15.0676 44.2211V44.2459L15.0872 44.2332V44.2539L15.1062 44.2459V44.2672L15.1251 44.2539V44.2769L15.1441 44.2671V44.2919L15.1688 44.2769V44.3016L15.1878 44.2919V44.3108L15.2068 44.3016V44.3259L15.2258 44.3109V44.3357L15.2465 44.3259V44.3448L15.2695 44.3357V44.3599L15.2884 44.3449V44.3686L15.3074 44.3599V44.3846L15.3264 44.3686V44.3928L15.3471 44.3847V44.4077L15.3661 44.3928V44.4175L15.3891 44.4026V44.4215L15.408 44.4175V44.4365L15.4287 44.4215V44.4463L15.4477 44.4313V44.4613L15.4667 44.4464V44.4706L15.4857 44.4614V44.4804L15.5104 44.4706V44.4954L15.5242 44.4804V44.5046L15.5484 44.4955V44.5144L15.5674 44.5046V44.5282L15.587 44.5144V44.5415L15.6112 44.5282V44.5512L15.625 44.5392V44.5634L15.6498 44.5513V44.5761L15.6687 44.5634V44.5853L15.6877 44.5761V44.595L15.7067 44.5853V44.61L15.7257 44.595V44.6193L15.7446 44.606V44.6278L15.7694 44.6192V44.6399L15.7883 44.6278V44.6492L15.8073 44.64V44.663L15.8263 44.6492V44.671L15.8452 44.663V44.6837L15.866 44.671V44.6958L15.8889 44.6837V44.7056L15.9079 44.6958V44.7205L15.9275 44.7056V44.7298L15.9477 44.7148V44.7396L15.9667 44.7298V44.7545L15.9903 44.7396V44.7638L16.0093 44.7546V44.7736L16.0295 44.7638V44.7886L16.0484 44.7736V44.7983L16.0674 44.7886V44.8133L16.087 44.7983V44.8157L16.1112 44.8134V44.8255L16.125 44.8157V44.8404L16.1498 44.8255V44.8555L16.1687 44.8405V44.8595L16.1877 44.8503V44.8745L16.2119 44.8596V44.8843L16.2258 44.8745V44.8993L16.2505 44.8843V44.9086L16.2695 44.8994V44.9236L16.2884 44.9087V44.9334L16.3074 44.9185V44.9472L16.3264 44.9334V44.9553L16.346 44.9472V44.9674L16.3702 44.9525V44.9801L16.3892 44.9674V44.9893L16.4081 44.9801V44.9991L16.4277 44.9893V45.014L16.4467 44.9991V45.0193L16.4709 45.0141V45.0331L16.4905 45.0193V45.044L16.5095 45.0331V45.0533L16.5284 45.0441V45.0671L16.5486 45.0533V45.0769L16.5682 45.0671V45.0878L16.5912 45.0769V45.1011L16.6102 45.0878V45.1092L16.6304 45.1011V45.1259L16.65 45.1092V45.1339L16.6689 45.1259V45.1437L16.6879 45.1339V45.1587L16.7109 45.1437V45.1737L16.7259 45.1588V45.183L16.7506 45.168V45.1928L16.7696 45.183V45.202L16.7885 45.1928V45.2175L16.8075 45.202V45.2267L16.8265 45.2175V45.2365L16.8512 45.2267V45.2457L16.8702 45.2296V45.2607L16.8892 45.2458V45.2694L16.9087 45.2607V45.2786L16.9277 45.2694V45.2936L16.9467 45.2787V45.3034L16.9709 45.2936V45.3166L16.9905 45.3033V45.3223L17.0095 45.3165V45.3372L17.0284 45.3223V45.351L17.0474 45.3372V45.362L17.0721 45.351V45.3712L17.0911 45.3621V45.3851L17.1101 45.3712V45.3931L17.1291 45.3851V45.4093L17.148 45.3932V45.4179L17.1687 45.4093V45.4242L17.1917 45.4179V45.4369L17.2107 45.4242V45.449L17.2256 45.4369V45.4611L17.2504 45.4491V45.4709L17.2694 45.4611V45.4807L17.2883 45.4709V45.4957L17.3113 45.4807V45.5049L17.3269 45.4958V45.5147L17.3511 45.5049V45.5297L17.3701 45.5147V45.539L17.389 45.5298V45.554L17.4086 45.5391V45.5638L17.4276 45.554V45.5719L17.4518 45.5638V45.5886L17.4714 45.5719V45.5966L17.4904 45.5886V45.6059L17.5094 45.5967V45.6209L17.5283 45.606V45.6256L17.5473 45.6209V45.6405L17.572 45.6256V45.6498L17.591 45.6406V45.6596L17.61 45.6498V45.6745L17.6289 45.6596V45.6838L17.6479 45.6746V45.6925L17.6686 45.6838V45.7086L17.6916 45.6925V45.7167L17.7106 45.7087V45.7316L17.7296 45.7167V45.7414L17.7492 45.7316V45.7553L17.7694 45.7414V45.7657L17.7923 45.7507V45.7755L17.8119 45.7657V45.7893L17.8309 45.7755V45.7984L17.8511 45.7893V45.8095L17.8701 45.7986V45.8233L17.889 45.8095V45.8313L17.9127 45.8233V45.8382L17.9276 45.8313V45.8532L17.9518 45.8382V45.8654L17.9714 45.8533V45.8752L17.9904 45.8631V45.8873L18.0094 45.8753V45.9L18.0283 45.8873V45.9092L18.0531 45.9V45.9242L18.072 45.9093V45.934L18.091 45.9242V45.9432L18.11 45.934V45.9582L18.1289 45.9433V45.968L18.1479 45.9582V45.9778L18.1727 45.968V45.9928L18.1916 45.9778V46.0078L18.2106 45.9929V46.0119L18.2296 46.0021V46.0199L18.2492 46.0119V46.0297L18.2681 46.0199V46.0446L18.2923 46.0297V46.0539L18.3119 46.0447V46.069L18.3309 46.054V46.0788L18.3499 46.0638V46.0938L18.3701 46.0789V46.1031L18.3937 46.0939V46.1129L18.4127 46.0979V46.1279L18.4316 46.113V46.1377L18.4518 46.1279V46.1469L18.4714 46.1377V46.1591L18.4904 46.147V46.1718L18.5134 46.1591V46.1838L18.5283 46.1718V46.1936L18.5531 46.1838V46.2086L18.572 46.1936V46.2178L18.591 46.2029V46.2236L18.61 46.2178V46.2328L18.6289 46.2236V46.2478L18.6479 46.2329V46.2576L18.6727 46.2478V46.2714L18.6916 46.2576V46.2806L18.7106 46.2714V46.2916L18.7302 46.2807V46.3055L18.7492 46.2916V46.3135L18.7734 46.3055V46.3284L18.7923 46.3135V46.3382L18.8119 46.3284V46.3474L18.8309 46.3382V46.3625L18.8499 46.3475V46.3723L18.8688 46.3625V46.3814L18.8936 46.3723V46.3965L18.9126 46.3815V46.4063L18.9315 46.3965V46.4212L18.9505 46.4063V46.4253L18.9712 46.4212V46.4402L18.9942 46.4253V46.45L19.0132 46.4402V46.458L19.0321 46.45V46.4678L19.0511 46.458V46.4828L19.0718 46.4678V46.4921L19.0908 46.4829V46.5071L19.1138 46.4922V46.5209L19.1287 46.5071V46.5319L19.1535 46.5169V46.5416L19.1724 46.5319V46.5508L19.1914 46.5416V46.5659L19.2104 46.5509V46.5797L19.23 46.5659V46.5848L19.2542 46.5797V46.5975L19.2732 46.5848V46.6136L19.2928 46.5975V46.6217L19.3117 46.6137V46.6287L19.3307 46.6217V46.6407L19.3497 46.6287V46.6534L19.3744 46.6407V46.6655L19.3934 46.6534V46.6707L19.4123 46.6656V46.6845L19.4313 46.6707V46.6995L19.4503 46.6845V46.7093L19.4693 46.6995V46.7184L19.494 46.7093V46.7335L19.513 46.7186V46.7433L19.5319 46.7335V46.7571L19.5509 46.7433V46.768L19.5716 46.7571V46.7761L19.5906 46.768V46.7923L19.6136 46.7762V46.8004L19.6285 46.7924V46.8154L19.6521 46.8004V46.8252L19.6723 46.8154V46.8292L19.6913 46.8252V46.8441L19.7149 46.8292V46.8539L19.7299 46.8441V46.8631L19.7541 46.8539V46.8781L19.7731 46.8632V46.8879L19.7927 46.8781V46.9029L19.8116 46.8879V46.9127L19.8306 46.9029V46.9207L19.8553 46.9127V46.9357L19.8743 46.9207V46.9449L19.8933 46.9358V46.9588L19.9122 46.9449V46.9697L19.9312 46.9588V46.9795L19.9502 46.9697V46.9927L19.9749 46.9794V47.0024L19.9939 46.9926V47.0133L20.0129 47.0024V47.0271L20.0318 47.0133V47.0323L20.0514 47.0271V47.0473L20.0704 47.0324V47.0571L20.0946 47.0473V47.0663L20.1136 47.0571V47.0784L20.1332 47.0664V47.0911L20.1521 47.0784V47.1032L20.1711 47.0911V47.113L20.1959 47.1032V47.1222L20.2148 47.113V47.1372L20.2338 47.1223V47.147L20.2528 47.1372V47.1562L20.273 47.147V47.1718L20.2925 47.1562V47.1809L20.3155 47.1718V47.1947L20.3305 47.1809V47.2057L20.3552 47.1947V47.2149L20.3742 47.2058V47.2236L20.3932 47.2149V47.2328L20.4121 47.2236V47.2478L20.4311 47.2329V47.2576L20.4501 47.2427V47.2727L20.4748 47.2577V47.282L20.4938 47.2728V47.2917L20.5128 47.282V47.3009L20.5317 47.2917V47.3165L20.5513 47.3009V47.3257L20.5755 47.3165V47.3407L20.5945 47.3258V47.3505L20.6135 47.3407V47.3626L20.6331 47.3505V53.244C14.7148 57.2391 11.0965 63.9631 11.0965 71.1577C11.0965 73.438 11.8804 75.5605 13.2719 77.2407C13.7097 77.2972 14.1567 77.3311 14.5991 77.3311V77.346H14.618V77.3552H14.6382V77.3702H14.6618V77.38H14.6808V77.388H14.6998V77.4047H14.72V77.4127H14.7396V77.426H14.7626V77.4358H14.7815V77.4468H14.8005V77.4606H14.8212V77.4697H14.8402V77.4795H14.8592V77.4945H14.8821V77.4996H14.9029V77.5123H14.9218V77.5244H14.9408V77.5324L14.9598 77.5364V77.5462H14.9787V77.5612H15.0035V77.5681L15.0173 77.5704V77.5802H15.0415V77.59L15.0605 77.5951V77.6049H15.0801V77.6141H15.0991V77.6239L15.118 77.629V77.6388H15.137V77.6538H15.1617V77.6578L15.1807 77.6629V77.6716H15.1997V77.6877H15.2186V77.6957H15.2394V77.6998H15.2624V77.7147H15.2813V77.7245L15.3003 77.7303V77.7394H15.3193V77.7492H15.34V77.7584H15.3589V77.7734H15.3819V77.7832H15.4009V77.7923L15.4216 77.7952V77.8073H15.4406V77.8171H15.4596V77.8291H15.4785V77.8418H15.5033V77.8499L15.5171 77.8539V77.8637H15.5413V77.8728H15.5603V77.8878H15.5799V77.8976H15.6041V77.9027H15.6179V77.9166H15.6427V77.9275H15.6616V77.9367H15.6806V77.9493H15.6996V77.9585H15.7185V77.9735H15.7375V77.9833H15.7622V77.993H15.7812V78.008H15.8002V78.0172H15.8192V78.0321H15.8381V78.0419L15.8588 78.0471V78.0511L15.8818 78.0569V78.066H15.9008V78.0758L15.9204 78.0798V78.0856L15.9406 78.0908V78.1006H15.9596V78.1046L15.9832 78.1086V78.1195H16.0021V78.1328H16.0224V78.1375L16.0413 78.1438V78.1524H16.0603V78.1685H16.0799V78.1714L16.1041 78.1766V78.1863H16.1179V78.2013H16.1427V78.2105H16.1616V78.2243H16.1806V78.2323H16.2048V78.245H16.2186V78.2571H16.2434V78.264L16.2623 78.268V78.276H16.2813V78.291H16.3003V78.3008H16.3193V78.3059H16.3388V78.3209H16.3631V78.3307H16.382V78.344H16.401V78.3538H16.4206V78.3647L16.4396 78.3687V78.3785H16.4638V78.3877H16.4834V78.4026H16.5023V78.4113H16.5213V78.4274H16.5415V78.4354H16.5611V78.4452H16.5841V78.4602H16.6031V78.4693H16.6233V78.4791L16.6429 78.4843V78.4941H16.6618V78.4981H16.6808V78.513H16.7038V78.5228H16.7187V78.532H16.7435V78.547H16.7625V78.5568H16.7814V78.5706H16.8004V78.5815H16.8194V78.5895H16.8441V78.6056H16.8631V78.6137H16.882V78.6235L16.9016 78.6275V78.6373H16.9206V78.6482H16.9396V78.6615H16.9638V78.6713H16.9834V78.6805H17.0023V78.6954H17.0213V78.7012H17.0403V78.7133H17.065V78.7259H17.084V78.734H17.103V78.7473H17.1219V78.7571H17.1409V78.768L17.1616 78.772V78.7818H17.1846V78.791H17.2036V78.8019L17.2185 78.8059V78.8157L17.2433 78.8209V78.8249H17.2622V78.8399H17.2812V78.8496H17.3042V78.8646H17.3198V78.8726H17.344V78.8824H17.363V78.8974H17.3819V78.9014L17.4015 78.9066V78.9112H17.4205V78.9261H17.4447V78.9353L17.4643 78.9411V78.9503H17.4833V78.9652H17.5022V78.9692H17.5212V78.9842H17.5402V78.9969H17.5649V79.0089H17.5839V79.0187H17.6029V79.0308H17.6218V79.0428H17.6408V79.0555H17.6615V79.0647H17.6845V79.0745H17.7035V79.0894H17.7225V79.0986H17.742V79.1044H17.7622V79.1182H17.7852V79.1286H17.8048V79.1424H17.8238V79.1505H17.844V79.1603H17.863V79.1752H17.8819V79.185L17.9055 79.1902V79.1942H17.9205V79.2091H17.9447V79.2189L17.9643 79.2241V79.2339H17.9833V79.243H18.0022V79.2528H18.0212V79.2678H18.046V79.2816H18.0649V79.2925H18.0839V79.3017H18.1029V79.3057L18.1218 79.3098V79.3195H18.1408V79.3305H18.1655V79.3385L18.1845 79.3443V79.3535H18.2035V79.3684H18.2225V79.3782H18.242V79.3874H18.261V79.4023H18.2852V79.4121H18.3048V79.4259H18.3238V79.434H18.3428V79.446H18.363V79.4587H18.3866V79.4679H18.4055V79.4777H18.4245V79.4926H18.4447V79.5018H18.4643V79.5076L18.4833 79.5116V79.5225H18.5063V79.5317H18.5212V79.5455H18.546V79.5553H18.5649V79.5662L18.5839 79.5703V79.5794H18.6029V79.5892H18.6218V79.6042H18.6408V79.6122H18.6655V79.622L18.6845 79.6289V79.637H18.7035V79.6461H18.7231V79.6611H18.742V79.6709H18.7663V79.6801H18.7852V79.6956H18.8048V79.6996H18.8238V79.7146H18.8428V79.7238H18.8617V79.7336H18.8865V79.7485H18.9054V79.7566H18.9244V79.7715H18.9434V79.7813H18.9641V79.7905H18.9871V79.8054H19.0061V79.8152H19.025V79.825L19.044 79.829V79.8382H19.0647V79.8491H19.0837V79.8629H19.1067V79.871H19.1216V79.8819L19.1464 79.8871V79.8957H19.1653V79.902H19.1843V79.9147H19.2033V79.9268H19.2229V79.9348H19.2471V79.9486H19.2661V79.9584H19.2856V79.9693H19.3046V79.9826H19.3236V79.9924H19.3426V80.0074H19.3673V80.0165H19.3863V80.0263H19.4052V80.0413H19.4242V80.0511L19.4432 80.0562V80.0591H19.4621V80.0741L19.4869 80.0781V80.0832H19.5059V80.0982H19.5248V80.1028H19.5438V80.112H19.5645V80.127H19.5835V80.1368H19.6065V80.1517H19.6214V80.1667H19.645V80.1707L19.6652 80.1758V80.1856H19.6842V80.1977H19.7078V80.2104H19.7228V80.2195H19.747V80.2293L19.766 80.2322V80.2443H19.7855V80.2563H19.8045V80.2661H19.8235V80.2753H19.8482V80.2903H19.8672V80.296L19.8862 80.3001V80.3052H19.9051V80.319H19.9241V80.33H19.9431V80.3397H19.9678V80.3518H19.9868V80.361L20.0057 80.3679V80.3765H20.0247V80.3857H20.0443V80.3955L20.0633 80.4007V80.4105H20.0875V80.4196H20.1065V80.4294L20.1261 80.4346V80.4444H20.145V80.4542L20.164 80.4593V80.4634H20.1887V80.4783H20.2077V80.4933H20.2267V80.503H20.2456V80.5059H20.2659V80.5209H20.2854V80.5301H20.3084V80.545H20.3234V80.549L20.3481 80.5548V80.564H20.3671V80.5789H20.3861V80.5887H20.405V80.5985H20.424V80.6135H20.443V80.6226H20.4677V80.6347H20.4867V80.6474H20.5056V80.6565L20.5246 80.6594V80.6692H20.5442V80.6784L20.5684 80.6842V80.6934H20.5874V80.7031H20.6064V80.7083H20.626V85.7741C18.1187 85.7741 15.608 85.1111 13.3271 83.7939H13.3167L13.3029 83.7841V83.7789L13.2879 83.7749L13.2781 83.7691L13.2648 83.76L13.2591 83.7542L13.2452 83.7502L13.2401 83.745L13.2251 83.7404L13.2153 83.7352L13.202 83.7254V83.7203L13.1871 83.7162L13.1773 83.7105H13.1635L13.1583 83.7013L13.1434 83.6973L13.1394 83.6915L13.1244 83.6823H13.1204L13.1054 83.6725L13.1008 83.6674L13.0859 83.6627L13.0818 83.6587L13.0669 83.6547L13.0577 83.6478L13.0428 83.6386L13.0381 83.6346L13.0232 83.6237H13.0192L13.0042 83.6208L13.0002 83.611L12.9852 83.6058L12.9812 83.5989L12.9663 83.5909H12.9565L12.9415 83.5811L12.9375 83.5771L12.9226 83.5719L12.9185 83.5661L12.9036 83.557H12.8996L12.8846 83.5472L12.8788 83.5431L12.8655 83.5351H12.8598L12.8465 83.523L12.8367 83.5184L12.8217 83.5132L12.8177 83.5104L12.8028 83.5035H12.797L12.7837 83.4954L12.7779 83.4885L12.7646 83.4793H12.7589L12.745 83.4713H12.7399L12.7261 83.4615L12.7151 83.4575L12.7018 83.4465L12.6869 83.4367L12.6823 83.4327L12.6633 83.4236H12.6581L12.6443 83.4138L12.6392 83.4086L12.6242 83.4028L12.6144 83.3988L12.6006 83.389V83.3839L12.5857 83.3798L12.5765 83.3741L12.5627 83.3689L12.5575 83.3649L12.5426 83.3569L12.5379 83.3499L12.523 83.3471L12.519 83.3402L12.504 83.3373L12.5 83.3321L12.485 83.3223L12.481 83.3172L12.4661 83.3131L12.4563 83.3074L12.4413 83.3034L12.4373 83.2982L12.4224 83.2942L12.4183 83.2884L12.4034 83.2832L12.3994 83.2792L12.3844 83.2694L12.3804 83.2643L12.3654 83.2596L12.3597 83.2545L12.3407 83.2447H12.3367L12.3217 83.2355L12.3177 83.2297L12.3028 83.2206H12.2987L12.2838 83.2108L12.278 83.2056L12.2642 83.1976H12.2591L12.2452 83.1929L12.2361 83.1866L12.2211 83.178L12.2171 83.174L12.2022 83.1619L12.1964 83.159L12.1826 83.1539H12.1774L12.1636 83.1401H12.1584L12.1446 83.1349L12.1395 83.1309L12.1257 83.12H12.1159L12.1009 83.1102V83.1061L12.086 83.1004H12.0768L12.063 83.0912L12.0578 83.0854L12.044 83.0762L12.0382 83.0722L12.0233 83.0664L12.0141 83.0624L12.0043 83.0544H12.0003L11.9853 83.0423L11.9756 83.0383L11.9623 83.0337H11.9565L11.9432 83.0204L11.9374 83.0146L11.9225 83.0106L11.9184 83.0054L11.9035 82.9996L11.8995 82.9956L11.8845 82.9864L11.8805 82.9807L11.8656 82.9766L11.8558 82.9709L11.8408 82.9657L11.8368 82.9617L11.8218 82.9519L11.8178 82.9468L11.8029 82.9427L11.7989 82.937L11.7839 82.9278L11.7793 82.922L11.7643 82.918L11.7551 82.9128L11.7402 82.9099H11.7362L11.7212 82.899L11.7172 82.895L11.7016 82.8881L11.6976 82.8852L11.6827 82.876L11.6775 82.8703L11.6637 82.8662L11.6585 82.8611L11.6447 82.8571L11.6349 82.8513L11.62 82.8421L11.616 82.8363L11.601 82.8323L11.597 82.8265L11.582 82.8174H11.5769L11.5631 82.8076L11.5573 82.8024L11.544 82.7984L11.5382 82.7926L11.5249 82.7834L11.5151 82.7794L11.5002 82.7737V82.7685L11.4852 82.7587H11.4755L11.4622 82.7489L11.4564 82.7467L11.4431 82.7397L11.4373 82.7369L11.4235 82.7248H11.4183L11.3994 82.7168V82.7127L11.3844 82.707H11.3746L11.3608 82.6978L11.3557 82.6931L11.3418 82.688L11.3367 82.6822L11.3217 82.673H11.3119L11.3028 82.6633L11.2987 82.6592L11.2832 82.6541L11.2792 82.6501L11.2642 82.6391H11.2602L11.24 82.6293L11.236 82.6253L11.221 82.6202L11.2164 82.6173L11.2014 82.6046L11.1974 82.6006L11.1825 82.5925H11.1784L11.1635 82.5834H11.1583L11.1387 82.5736L11.1347 82.5684L11.1198 82.5586L11.1158 82.5535L11.1008 82.5488L11.0968 82.5437L11.0818 82.5396L11.0778 82.5339L11.0629 82.5247L11.0571 82.5189L11.0438 82.5149L11.034 82.5097H11.0191L11.015 82.5057L11.0001 82.4971H10.9961L10.9851 82.485L10.9753 82.481L10.962 82.4729L10.9563 82.466L10.9425 82.462L10.9373 82.458L10.9235 82.454L10.9143 82.4482L10.8994 82.4373V82.4332L10.8844 82.4292L10.8746 82.4241L10.8608 82.4143H10.8557L10.8418 82.4045L10.8367 82.3993L10.8229 82.3953L10.8177 82.3895L10.7981 82.3804V82.3763L10.7832 82.3654H10.774L10.7602 82.3614L10.755 82.3556L10.7412 82.3464L10.7361 82.3418L10.7211 82.3338L10.7165 82.3269L10.7015 82.3217L10.6975 82.3177L10.6826 82.3119L10.6785 82.3096H10.6636L10.6538 82.3027L10.6389 82.2947L10.6348 82.2878L10.6199 82.278H10.6159L10.6009 82.2699H10.5969L10.5819 82.2602L10.5779 82.2561L10.563 82.2452L10.559 82.2412L10.544 82.236L10.5342 82.232L10.5193 82.2222H10.5152L10.5003 82.213L10.4963 82.2073L10.4813 82.2021L10.4773 82.1975L10.4624 82.1883H10.4566L10.4428 82.1785L10.4336 82.1734L10.4186 82.1676L10.4146 82.1636L10.3997 82.1555L10.3957 82.1486L10.3859 82.1457L10.3749 82.1394L10.3611 82.1308H10.356L10.3422 82.1216L10.337 82.1158L10.3232 82.1118L10.3134 82.1067L10.2984 82.1026L10.2835 82.0928L10.2743 82.0877L10.2605 82.0819L10.2553 82.0779L10.2415 82.0681L10.2358 82.0629L10.2225 82.0589L10.2167 82.0531L10.1977 82.044L10.1828 82.0342L10.1736 82.029L10.1598 82.025L10.154 82.0192L10.1407 82.0112L10.1349 82.0043L10.12 81.9962H10.116L10.101 81.9922L10.097 81.9864L10.082 81.9773L10.078 81.9732L10.0631 81.9623H10.0533L10.04 81.9525H10.0342L10.0193 81.9434L10.0152 81.9393L10.0003 81.9295H9.99628L9.98133 81.9186L9.97731 81.9146L9.96236 81.9088H9.95772L9.93751 81.8996H9.93349L9.91854 81.8898L9.91452 81.8847L9.89957 81.8749H9.89494L9.87999 81.8657H9.87597L9.86102 81.853H9.85586L9.84205 81.841H9.8369L9.81793 81.8329L9.81329 81.8289L9.79834 81.8191L9.79432 81.814L9.78514 81.8099L9.77422 81.8042L9.7604 81.799L9.75525 81.795L9.74143 81.7852H9.73566L9.72236 81.7754L9.71257 81.7703L9.69762 81.7605V81.7553L9.68267 81.7513H9.67865L9.65968 81.7415L9.65391 81.7363L9.64061 81.7265H9.63483L9.62153 81.7174L9.61576 81.7116L9.60081 81.7087H9.59679L9.58184 81.6995L9.57205 81.6938L9.56288 81.6869L9.55308 81.6846L9.53927 81.6777L9.53411 81.6696L9.5203 81.6656H9.51514L9.50019 81.6558L9.49617 81.6507L9.48123 81.6409L9.4772 81.6351L9.46164 81.6311L9.45246 81.6259L9.43865 81.6161H9.43349L9.41855 81.607L9.41452 81.6012L9.39958 81.5972L9.39494 81.592L9.37999 81.5822L9.37597 81.5782L9.36102 81.573L9.357 81.5673L9.33679 81.5633L9.33277 81.5575L9.3172 81.5483L9.31319 81.5454L9.29824 81.5385L9.29422 81.5362L9.27927 81.5236L9.27525 81.5213L9.2603 81.5155L9.25514 81.5115L9.24133 81.5063H9.23153L9.21659 81.4966L9.21257 81.4925L9.19762 81.4868L9.1936 81.4816L9.1838 81.4718H9.17463L9.15968 81.4626L9.15391 81.4586L9.14061 81.4528L9.13483 81.4488L9.12102 81.4379L9.11184 81.435L9.0969 81.4287V81.4241L9.08195 81.4189L9.07215 81.4109L9.05885 81.404L9.05308 81.4L9.03927 81.3919H9.03411L9.0203 81.3821L9.01514 81.377L9.00133 81.3723L8.99618 81.3672L8.98123 81.3574L8.97659 81.3522L8.96164 81.3482L8.95246 81.3424L8.93865 81.3384L8.93349 81.3332L8.91968 81.3235L8.91452 81.3183L8.89896 81.3143L8.89494 81.3085H8.87999L8.87597 81.3045L8.86102 81.2964L8.85185 81.2895L8.83803 81.2844L8.83226 81.2797L8.81731 81.2717L8.81329 81.2648L8.79834 81.2625L8.79432 81.2568L8.77937 81.2527L8.77535 81.2476L8.7604 81.2378L8.75638 81.2326L8.74143 81.228L8.73164 81.2228L8.71669 81.2188L8.71267 81.213L8.69772 81.1981H8.6937L8.67875 81.1941L8.67473 81.1889L8.65978 81.1791L8.65576 81.1751L8.64082 81.1699L8.63102 81.1642L8.61607 81.1602L8.61205 81.155L8.5971 81.1452L8.59308 81.1412L8.58329 81.1354L8.57411 81.1332L8.55855 81.1262L8.55339 81.1205L8.53958 81.1084H8.53442L8.52061 81.1015H8.51545L8.49649 81.0935V81.0865L8.48267 81.0774H8.4769L8.45793 81.0687H8.45277L8.43896 81.0595L8.4338 81.0555L8.41999 81.0446H8.41422L8.40092 81.0348H8.39514L8.3802 81.0215H8.37617L8.36123 81.0117H8.35205L8.33824 81.0008L8.33246 80.9968L8.31916 80.987H8.31339L8.29844 80.9778L8.29442 80.972L8.27947 80.9669L8.27545 80.9628L8.2605 80.9542H8.25071L8.23741 80.945L8.23164 80.9381L8.21669 80.9352L8.21267 80.9243L8.19772 80.9203L8.1937 80.9151L8.17875 80.9111L8.17473 80.9053L8.15978 80.9013H8.15576L8.14082 80.8921L8.13102 80.8863L8.11607 80.8765H8.11205L8.0971 80.8674H8.09308L8.07813 80.8576L8.0735 80.8524L8.05855 80.8484L8.05453 80.8375L8.03958 80.8346L8.03442 80.8277L8.01545 80.8185H8.01143L7.99649 80.8156L7.99184 80.8036L7.98267 80.8007L7.97288 80.7949L7.95793 80.7857H7.95277L7.93896 80.7759H7.9338L7.91999 80.7668L7.9102 80.761L7.89525 80.7518V80.7478L7.88195 80.742L7.87102 80.738L7.85721 80.7282H7.85205L7.83824 80.7173L7.83246 80.7133L7.81916 80.7081H7.81339L7.80009 80.6983H7.79432L7.77937 80.6891L7.77535 80.6833L7.7604 80.6793L7.75061 80.6742L7.73731 80.6644L7.73154 80.6615L7.71772 80.6563L7.71257 80.6523L7.69762 80.6396H7.6936L7.67865 80.6316L7.67463 80.6276L7.65968 80.6224L7.64989 80.6184L7.63607 80.6086L7.63092 80.6035L7.6171 80.5977L7.61195 80.5937L7.597 80.5839H7.59298L7.57803 80.5747L7.57339 80.5689L7.55845 80.5597L7.55442 80.554L7.53948 80.55H7.53545L7.51525 80.5408L7.51123 80.535L7.49566 80.5321L7.49164 80.5258L7.47669 80.516L7.47267 80.5109L7.45772 80.508H7.4537L7.43875 80.4982H7.4336L7.41401 80.4861L7.40999 80.4833L7.39504 80.4741L7.39102 80.4683L7.38185 80.4643L7.37205 80.4591L7.35711 80.4545L7.35133 80.4493L7.33803 80.4395L7.33226 80.4344L7.31896 80.4304L7.30917 80.4246L7.29422 80.4154C2.72783 77.7745 0 73.0526 0 67.776C0 58.2867 5.10494 49.4419 13.3231 44.7033L13.3309 44.7009Z" fill="#EAEAE9"/>
<path d="M19.3651 48.0824L20.6403 47.3486V53.2421C14.7221 57.2372 11.1037 63.9612 11.1037 71.1558C11.1037 74.6054 12.8835 77.6944 15.8718 79.4229C17.3641 80.2834 18.9994 80.7114 20.6403 80.7114V85.7771C18.1331 85.7771 15.6224 85.1141 13.3415 83.7969C8.76993 81.1589 6.04199 76.4342 6.04199 71.1558C6.04199 61.6671 11.1469 52.8286 19.3651 48.0825V48.0824Z" fill="#C0C4C7"/>
</svg>
