<svg width="234" height="165" viewBox="0 0 234 165" fill="none" xmlns="http://www.w3.org/2000/svg">
<path d="M0 29.3087L0.0594995 51.0153L56.1556 83.6154L56.0967 61.9094L0 29.3087Z" fill="#C0C4C7"/>
<path d="M0 29.3086L56.0967 61.9093L106.863 32.6001L50.7709 0L0 29.3086Z" fill="#EAEAE9"/>
<path d="M51.9117 7.34192L41.7715 13.2045L51.8465 19.0564L61.9887 13.2045L51.9117 7.34192Z" fill="#95A4CD"/>
<path d="M14.2305 29.0992L24.3062 34.9568L34.4489 29.0992L24.3714 23.2417L14.2305 29.0992Z" fill="#95A4CD"/>
<path d="M141.358 122.269C162.412 134.498 196.696 134.498 217.886 122.269C228.556 116.107 233.875 108.023 233.855 99.9505L234.001 133.503C234.02 141.58 228.696 149.665 218.031 155.821C196.841 168.055 162.557 168.055 141.506 155.821L41.8056 97.8819L41.667 64.3298L141.357 122.269H141.358Z" fill="#4A79BB"/>
<path d="M41.6676 64.3297L141.358 122.269C162.412 134.502 196.696 134.502 217.886 122.269C239.08 110.031 239.191 90.1709 218.14 77.938L118.444 19.9987L41.667 64.3297H41.6676Z" fill="#95A4CD"/>
<path d="M202.757 90.5892C194.564 85.8343 181.239 85.8343 172.99 90.5892C164.747 95.3461 164.731 103.058 172.926 107.815C181.084 112.556 194.389 112.576 202.633 107.815C210.877 103.058 210.921 95.3328 202.757 90.5892Z" fill="#4A79BB"/>
</svg>
