<svg width="74" height="123" viewBox="0 0 74 123" fill="none" xmlns="http://www.w3.org/2000/svg">
<path d="M43.0829 122.692C36.6971 122.62 29.2513 120.469 22.1421 116.624C15.0079 112.77 9.03117 107.653 5.31938 102.222L4.89923 101.596L4.68776 101.267C1.32656 95.9391 0.58364 90.9362 2.58979 87.1771C4.62376 83.3401 9.27325 81.231 15.6896 81.231C15.7953 81.231 15.9066 81.231 16.0179 81.231C22.4148 81.2894 29.8578 83.4458 36.9754 87.2884C44.1235 91.156 50.1058 96.2785 53.8148 101.713C57.6963 107.372 58.6702 112.717 56.5416 116.73C54.5299 120.533 49.9527 122.64 43.6421 122.687L43.0801 122.692H43.0829ZM15.9094 81.4787C15.4586 81.4787 15.0246 81.4898 14.5905 81.5093C8.90318 81.7792 4.78793 83.8187 2.91534 87.3496C1.06222 90.8138 1.57976 95.3659 4.36778 100.244L4.99105 101.265L5.19695 101.587L5.60875 102.208C9.28438 107.57 15.1832 112.628 22.2367 116.435C29.1984 120.194 36.4884 122.434 42.7517 122.434C42.8102 122.434 42.8686 122.434 42.927 122.434L43.4835 122.428L44.7635 122.392L45.2253 122.361C50.5593 121.975 54.4297 119.949 56.2244 116.552C58.3252 112.592 57.3624 107.322 53.5338 101.727C49.8665 96.3564 43.9566 91.2896 36.8863 87.4721C29.8551 83.674 22.4983 81.551 16.1821 81.4814C16.093 81.4814 16.004 81.4759 15.915 81.4759L15.9094 81.4787Z" fill="#FEFEFE"/>
<path d="M42.7492 122.439C36.4859 122.439 29.1986 120.197 22.2341 116.44C15.1806 112.631 9.28179 107.575 5.60617 102.214L5.19436 101.593L4.98846 101.27L4.36519 100.249C1.57995 95.3715 1.06242 90.8194 2.91275 87.3552C4.78812 83.8243 8.90338 81.7848 14.5879 81.5149C15.022 81.4926 15.4561 81.4843 15.9068 81.4843C15.9959 81.4843 16.0877 81.4898 16.1739 81.4898C22.4929 81.5594 29.8469 83.6824 36.8782 87.4804C43.9484 91.298 49.8583 96.3648 53.5256 101.735C57.3543 107.33 58.317 112.6 56.2162 116.56C54.4216 119.954 50.5512 121.983 45.2172 122.37L44.7553 122.4L43.4754 122.436L42.9189 122.442C42.8605 122.442 42.8048 122.442 42.7436 122.442L42.7492 122.439ZM16.0626 81.7402C15.623 81.7402 15.1945 81.7514 14.7688 81.7708C9.15101 82.0101 5.08585 84.0441 3.23551 87.5277C1.40188 90.9529 1.91663 95.4438 4.67404 100.257L5.2834 101.27L5.4893 101.582L5.89832 102.2C9.56838 107.475 15.367 112.489 22.3287 116.254C29.2125 119.971 36.4191 122.18 42.61 122.18C42.6629 122.18 42.7102 122.18 42.7631 122.18L43.314 122.175L44.58 122.15L45.0308 122.116C50.298 121.735 54.1294 119.729 55.8963 116.376C57.9664 112.472 57.0204 107.269 53.239 101.752C49.6163 96.4399 43.7731 91.4371 36.7864 87.6669C29.8386 83.9078 22.5736 81.8042 16.3353 81.7402C16.2407 81.7402 16.1489 81.7402 16.0599 81.7402H16.0626Z" fill="#FEFEFE"/>
<path d="M42.61 122.18C36.419 122.18 29.2124 119.974 22.3286 116.254C15.3669 112.489 9.5683 107.475 5.89825 102.2L5.48922 101.582L5.28332 101.27L4.67396 100.257C1.91655 95.4437 1.4018 90.9528 3.23544 87.5276C5.08299 84.044 9.14815 82.01 14.7687 81.7707C15.1916 81.7485 15.6201 81.7401 16.0626 81.7401C16.1516 81.7401 16.2434 81.7401 16.338 81.7401C22.5763 81.8041 29.8413 83.9049 36.7891 87.6667C43.773 91.437 49.619 96.4398 53.2417 101.752C57.0231 107.269 57.9719 112.472 55.899 116.376C54.1321 119.729 50.3007 121.735 45.0335 122.116L44.5827 122.15L43.3167 122.175L42.7658 122.18C42.7129 122.18 42.6656 122.18 42.6127 122.18H42.61ZM16.2295 81.9933C15.7927 81.9933 15.3669 82.0044 14.9468 82.0267C9.39301 82.291 5.38349 84.2666 3.5582 87.7085C1.75795 91.0864 2.25879 95.5188 4.98282 100.274L5.58661 101.27L5.78695 101.582L6.19597 102.188C9.7909 107.411 15.5422 112.35 22.4232 116.073C29.218 119.743 36.3355 121.93 42.4486 121.93C42.5042 121.93 42.5487 121.93 42.6044 121.93L43.1442 121.919L44.3935 121.888L44.8387 121.86C50.0502 121.485 53.826 119.509 55.5734 116.201C57.6241 112.353 56.6808 107.213 52.9468 101.765C49.3685 96.5177 43.5949 91.5789 36.6917 87.8448C29.8357 84.133 22.6598 82.0601 16.4966 81.9933C16.4048 81.9933 16.3213 81.9933 16.2323 81.9933H16.2295Z" fill="#F9FCFE"/>
<path d="M42.4516 121.93C36.3358 121.93 29.2182 119.743 22.4263 116.073C15.5425 112.35 9.79392 107.411 6.19898 102.188L5.78996 101.582L5.58963 101.27L4.98583 100.274C2.26459 95.5189 1.76097 91.0892 3.56122 87.7085C5.38929 84.2666 9.39602 82.2911 14.9498 82.0267C15.37 82.0045 15.7957 81.9933 16.2325 81.9933C16.3216 81.9933 16.405 81.9933 16.4969 81.9933C22.66 82.0629 29.8359 84.1331 36.6919 87.8449C43.598 91.5789 49.3688 96.5178 52.947 101.765C56.6811 107.214 57.6243 112.35 55.5737 116.201C53.8263 119.512 50.0505 121.485 44.8389 121.86L44.3937 121.888L43.1444 121.919L42.6046 121.93C42.5518 121.93 42.5045 121.93 42.4488 121.93H42.4516ZM16.3939 82.2466C15.9654 82.2466 15.5425 82.2577 15.1279 82.2772C9.64088 82.5415 5.68701 84.4836 3.8812 87.8782C2.10321 91.2144 2.62075 95.5773 5.29468 100.277L5.88735 101.267L6.08768 101.579L6.48558 102.172C10.0861 107.308 15.7205 112.205 22.5181 115.886C29.221 119.501 36.2328 121.668 42.2735 121.668C42.3264 121.668 42.3848 121.668 42.4432 121.668L42.9775 121.663L44.2073 121.629L44.6442 121.604C49.7917 121.237 53.523 119.284 55.2509 116.023C57.2654 112.222 56.3388 107.152 52.6576 101.782C49.1211 96.5985 43.4115 91.7097 36.5917 88.0257C29.8192 84.3668 22.7379 82.3133 16.6499 82.2438C16.5664 82.2438 16.4746 82.2438 16.3911 82.2438L16.3939 82.2466Z" fill="#F9F8F8"/>
<path d="M42.2762 121.671C36.2355 121.671 29.2237 119.507 22.5207 115.889C15.7204 112.208 10.0887 107.311 6.48823 102.175L6.09034 101.582L5.89 101.27L5.29734 100.28C2.6234 95.583 2.10586 91.2201 3.88385 87.8811C5.68966 84.4865 9.64631 82.5444 15.1305 82.2801C15.5423 82.2578 15.9653 82.2495 16.3966 82.2495C16.4828 82.2495 16.5718 82.2495 16.6553 82.2495C22.7433 82.319 29.8247 84.3725 36.5972 88.0314C43.417 91.7154 49.1238 96.6041 52.6631 101.788C56.3443 107.158 57.2708 112.225 55.2563 116.028C53.5312 119.289 49.7971 121.243 44.6496 121.61L44.2128 121.635L42.9829 121.668L42.4487 121.674C42.3902 121.674 42.3318 121.674 42.2789 121.674L42.2762 121.671ZM16.4689 82.5082C16.0766 82.5082 15.6842 82.5138 15.3086 82.5333C9.89117 82.7976 5.97904 84.7064 4.19827 88.0564C2.43976 91.3453 2.94338 95.6609 5.60062 100.291L6.18772 101.268L6.38528 101.574L6.7776 102.161C10.3085 107.244 15.9013 112.066 22.6153 115.7C29.2292 119.276 36.1548 121.415 42.1148 121.415C42.1704 121.415 42.2289 121.415 42.2873 121.415H42.816L44.0291 121.379L44.4576 121.351C49.5412 120.998 53.2279 119.07 54.9308 115.85C56.9174 112.1 56.002 107.102 52.3681 101.796C48.8734 96.682 43.2389 91.8573 36.5054 88.215C29.8163 84.5978 22.8212 82.575 16.8111 82.5054C16.6943 82.5054 16.583 82.5054 16.4661 82.5054L16.4689 82.5082Z" fill="#F7F7F8"/>
<path d="M42.1155 121.418C36.1582 121.418 29.2299 119.278 22.616 115.703C15.902 112.072 10.312 107.247 6.77828 102.163L6.38596 101.576L6.1884 101.27L5.6013 100.294C2.94406 95.6608 2.43765 91.3452 4.19895 88.0591C5.97693 84.7063 9.89185 82.8003 15.3093 82.536C15.6849 82.5137 16.0772 82.5109 16.4696 82.5109C16.5864 82.5109 16.6977 82.5109 16.8146 82.5109C22.8247 82.5805 29.8198 84.6033 36.5088 88.2205C43.2424 91.8628 48.8768 96.6875 52.3716 101.802C56.0055 107.108 56.9209 112.105 54.9342 115.856C53.2286 119.075 49.5446 121.003 44.4611 121.357L44.0326 121.385L42.8194 121.421H42.2908C42.2323 121.421 42.1739 121.421 42.1182 121.421L42.1155 121.418ZM16.7144 82.7613C16.2943 82.7613 15.888 82.7725 15.4901 82.7892C10.1423 83.0229 6.28022 84.9317 4.52449 88.2317C2.79937 91.4788 3.28352 95.7359 5.91016 100.305L6.49169 101.267L6.68924 101.568L7.076 102.149C10.5596 107.163 16.0828 111.93 22.7134 115.508C29.2438 119.039 36.0775 121.156 41.9596 121.156C42.0125 121.156 42.0709 121.156 42.1294 121.156L42.6497 121.151L43.8461 121.12L44.2746 121.092C49.2886 120.742 52.9336 118.847 54.6115 115.672C56.5703 111.974 55.666 107.049 52.0822 101.81C48.6348 96.7627 43.0698 91.9908 36.4142 88.3986C29.8114 84.8287 22.9054 82.8337 16.976 82.7586C16.8897 82.7586 16.8062 82.7586 16.7172 82.7586L16.7144 82.7613Z" fill="#F7F5F6"/>
<path d="M41.9585 121.162C36.0764 121.162 29.2399 119.044 22.7122 115.513C16.0817 111.935 10.5585 107.169 7.07485 102.155L6.68809 101.573L6.49053 101.273L5.909 100.31C3.28236 95.7386 2.79543 91.4842 4.52334 88.2371C6.28185 84.9371 10.1411 83.0283 15.489 82.7946C15.8841 82.7779 16.2931 82.7668 16.7133 82.7668C16.8023 82.7668 16.8886 82.7668 16.972 82.7668C22.9015 82.8391 29.8075 84.8369 36.4103 88.4068C43.0659 92.0018 48.6308 96.7737 52.0783 101.818C55.6621 107.06 56.5664 111.985 54.6075 115.68C52.9297 118.858 49.2875 120.753 44.2707 121.101L43.8422 121.128L42.6458 121.159L42.1254 121.165C42.067 121.165 42.0114 121.165 41.9557 121.165L41.9585 121.162ZM16.8747 83.0116C16.4629 83.0116 16.0594 83.0228 15.6615 83.0423C10.3888 83.2704 6.57122 85.1486 4.84332 88.4068C3.13489 91.6039 3.62739 95.8082 6.22063 100.321L6.79104 101.27L6.98303 101.562L7.36422 102.138C10.8172 107.085 16.2597 111.791 22.8041 115.333C29.2482 118.819 35.9873 120.909 41.7915 120.909C41.85 120.909 41.9084 120.909 41.9668 120.909L42.4816 120.903L43.6586 120.87L44.0759 120.845C49.0371 120.505 52.6292 118.63 54.2848 115.497C56.2186 111.857 55.3226 106.999 51.7861 101.835C48.3804 96.8488 42.885 92.1353 36.3129 88.5877C29.7936 85.0595 22.9849 83.084 17.1334 83.0172C17.0444 83.0172 16.9581 83.0116 16.8747 83.0116V83.0116Z" fill="#F7F5F5"/>
<path d="M41.7954 120.909C35.9912 120.909 29.2521 118.816 22.808 115.333C16.2636 111.791 10.8184 107.083 7.36812 102.138L6.98693 101.562L6.79494 101.27L6.22453 100.321C3.63128 95.8082 3.13879 91.6039 4.84722 88.4068C6.57512 85.1514 10.3927 83.2704 15.6654 83.0423C16.0633 83.02 16.464 83.0117 16.8786 83.0117C16.9648 83.0117 17.0483 83.0172 17.1373 83.0172C22.9888 83.0868 29.7975 85.0623 36.3168 88.5877C42.8889 92.1353 48.3843 96.8488 51.79 101.835C55.3265 106.999 56.2225 111.86 54.2887 115.497C52.6331 118.63 49.041 120.505 44.0798 120.845L43.6625 120.87L42.4855 120.903L41.9707 120.909C41.9123 120.909 41.8567 120.909 41.7954 120.909V120.909ZM16.9453 83.2704C16.5753 83.2704 16.2024 83.276 15.8435 83.2927C10.6319 83.5153 6.87841 85.3795 5.1672 88.5877C3.48381 91.7374 3.96518 95.8889 6.52782 100.338L7.09266 101.27L7.28465 101.562L7.65472 102.127C11.0437 107.024 16.4389 111.654 22.8998 115.149C29.2605 118.585 35.9105 120.65 41.6396 120.65C41.6925 120.65 41.7509 120.65 41.8066 120.65H42.3102L43.4733 120.619L43.8878 120.597C48.7794 120.258 52.327 118.416 53.9631 115.322C55.8635 111.738 54.9843 106.944 51.4951 101.852C48.1339 96.9267 42.7053 92.2828 36.2138 88.7686C29.7864 85.2988 23.0667 83.3456 17.2904 83.276C17.1735 83.2704 17.0566 83.2704 16.9398 83.2704H16.9453Z" fill="#F3F4F4"/>
<path d="M41.6428 120.647C35.9137 120.647 29.2636 118.583 22.9029 115.146C16.4421 111.652 11.0469 107.024 7.65787 102.124L7.2878 101.56L7.09581 101.267L6.53097 100.335C3.96833 95.8862 3.48697 91.7376 5.17035 88.585C6.88156 85.3769 10.6351 83.5126 15.8466 83.29C16.2056 83.2733 16.5784 83.2678 16.9485 83.2678C17.0653 83.2678 17.1822 83.2678 17.2991 83.2733C23.0754 83.3429 29.7951 85.2962 36.2225 88.7659C42.714 92.2801 48.1426 96.9241 51.5038 101.849C54.993 106.941 55.8722 111.735 53.9718 115.319C52.3357 118.413 48.7881 120.255 43.8966 120.594L43.482 120.617L42.3189 120.647H41.8153C41.7569 120.647 41.7012 120.647 41.6483 120.647H41.6428ZM17.2045 83.5237C16.801 83.5237 16.4115 83.5349 16.0219 83.5516C10.8799 83.7992 7.17372 85.5939 5.48477 88.7548C3.83199 91.8683 4.30779 95.9557 6.83426 100.346L7.39631 101.267L7.58274 101.56L7.95281 102.116C11.2945 106.944 16.6202 111.521 22.9948 114.963C29.2636 118.352 35.8247 120.397 41.4814 120.397C41.5343 120.397 41.5927 120.397 41.6456 120.397H42.1492L43.2928 120.366L43.7018 120.344C48.5293 120.016 52.0297 118.199 53.6463 115.149C55.5217 111.618 54.6508 106.894 51.2172 101.874C47.8922 97.0075 42.5332 92.422 36.1252 88.9579C29.7812 85.5271 23.1534 83.5989 17.4549 83.5293C17.3686 83.5237 17.2852 83.5237 17.2045 83.5237V83.5237Z" fill="#F1F1F3"/>
<path d="M41.4835 120.394C35.8267 120.394 29.2657 118.349 22.9968 114.96C16.6222 111.518 11.2938 106.944 7.95488 102.113L7.58481 101.557L7.39839 101.265L6.83633 100.344C4.31264 95.953 3.83406 91.8656 5.48684 88.752C7.17579 85.5911 10.882 83.7965 16.024 83.5488C16.4108 83.5321 16.8031 83.521 17.2065 83.521C17.2845 83.521 17.3707 83.521 17.457 83.5266C23.1554 83.5933 29.7832 85.5216 36.1272 88.9551C42.5324 92.4193 47.8915 97.0048 51.2193 101.871C54.6556 106.891 55.5237 111.613 53.6484 115.146C52.0345 118.196 48.5342 120.013 43.7039 120.341L43.2948 120.363L42.1513 120.394H41.6476C41.5948 120.394 41.5363 120.394 41.4835 120.394V120.394ZM17.3651 83.777C16.9728 83.777 16.5861 83.7881 16.2049 83.8048C11.1324 84.0218 7.47351 85.8165 5.8096 88.9357C4.17909 92.0019 4.6521 96.0337 7.14518 100.363L7.69611 101.27L7.87975 101.557L8.24704 102.102C11.5359 106.88 16.8031 111.379 23.0942 114.779C29.2741 118.115 35.7349 120.144 41.3054 120.144C41.3694 120.144 41.4306 120.144 41.4974 120.144L41.9899 120.138L43.1112 120.116L43.5147 120.085C48.281 119.768 51.7396 117.979 53.3256 114.974C55.1731 111.49 54.3161 106.841 50.9271 101.891C47.6494 97.0938 42.3599 92.5612 36.0299 89.1471C29.7693 85.7636 23.2306 83.8632 17.6128 83.7825C17.5265 83.7825 17.4486 83.7825 17.3624 83.7825L17.3651 83.777Z" fill="#F1F1F0"/>
<path d="M41.3029 120.141C35.7324 120.141 29.2715 118.112 23.0917 114.776C16.8006 111.376 11.5334 106.877 8.24451 102.099L7.87722 101.554L7.69358 101.267L7.14265 100.36C4.64957 96.0308 4.17934 91.999 5.80708 88.9328C7.47098 85.8137 11.1299 84.019 16.2023 83.8019C16.5835 83.7852 16.9703 83.7741 17.3626 83.7741C17.4461 83.7741 17.5268 83.7741 17.613 83.7741C23.2308 83.8548 29.7696 85.7552 36.0301 89.1387C42.3574 92.5528 47.6469 97.0854 50.9274 101.882C54.3164 106.835 55.1734 111.482 53.3258 114.965C51.7371 117.968 48.2785 119.757 43.5149 120.077L43.1114 120.107L41.9901 120.13L41.4976 120.135C41.4336 120.135 41.3696 120.135 41.3056 120.135L41.3029 120.141ZM17.7688 84.0384L16.3832 84.0607C11.3775 84.2777 7.76314 86.0362 6.13262 89.1136C4.5188 92.127 4.9946 96.1087 7.45151 100.374L7.99687 101.27L8.18329 101.551L8.54223 102.091C11.7838 106.799 16.9786 111.24 23.1891 114.593C29.2799 117.887 35.6545 119.888 41.147 119.888C41.211 119.888 41.2695 119.888 41.3307 119.888H41.8232L42.9306 119.863L43.3229 119.835C48.0308 119.518 51.4421 117.759 53.0031 114.798C54.8228 111.368 53.9769 106.782 50.6352 101.91C47.3992 97.1689 42.1821 92.703 35.9355 89.3279C29.7612 85.9917 23.3171 84.1191 17.7716 84.0384H17.7688Z" fill="#EEEEEF"/>
<path d="M41.1442 119.885C35.6545 119.885 29.2771 117.884 23.1863 114.59C16.9758 111.237 11.781 106.796 8.53943 102.088L8.1805 101.548L7.99407 101.267L7.44871 100.371C4.9918 96.1032 4.51322 92.1215 6.12983 89.1108C7.76035 86.0335 11.3775 84.2749 16.3804 84.0579L17.7661 84.0356C23.3115 84.1163 29.7557 85.9889 35.9299 89.3251C42.1765 92.7002 47.3936 97.1633 50.6296 101.907C53.9714 106.779 54.8172 111.365 52.9975 114.796C51.4338 117.756 48.0253 119.515 43.3173 119.832L42.925 119.86L41.8176 119.885H41.3251C41.2611 119.885 41.2027 119.885 41.1415 119.885H41.1442ZM17.9302 84.2916L16.564 84.3139C11.6252 84.5254 8.05807 86.256 6.45537 89.2861C4.86659 92.2634 5.34517 96.1699 7.76313 100.391L8.29736 101.27L8.47822 101.546L8.83159 102.074C12.0676 106.696 17.1567 111.098 23.2837 114.406C29.2882 117.653 35.5682 119.634 40.9856 119.634C41.0441 119.634 41.1081 119.634 41.1721 119.634H41.6534L42.7442 119.604L43.1309 119.582C47.7748 119.273 51.136 117.536 52.6775 114.618C54.4694 111.245 53.6375 106.729 50.3486 101.924C47.1571 97.2495 42.004 92.8366 35.8409 89.506C29.7557 86.2199 23.4005 84.3695 17.933 84.2916H17.9302Z" fill="#EEEEEE"/>
<path d="M40.9854 119.632C35.568 119.632 29.288 117.651 23.2834 114.404C17.1565 111.095 12.0674 106.693 8.83137 102.072L8.478 101.543L8.29714 101.268L7.76291 100.388C5.34218 96.1673 4.86638 92.2607 6.45516 89.2835C8.06063 86.2534 11.625 84.5227 16.5638 84.3113L17.93 84.289C23.4003 84.3669 29.7554 86.2172 35.8379 89.5033C42.001 92.8339 47.1541 97.2441 50.3456 101.921C53.6345 106.724 54.4664 111.24 52.6745 114.615C51.1358 117.534 47.7718 119.27 43.1279 119.579L42.7412 119.601L41.6504 119.632H41.1691C41.1051 119.632 41.0411 119.632 40.9826 119.632H40.9854ZM18.0886 84.545L16.7391 84.5672C11.8726 84.7787 8.35836 86.4788 6.77514 89.4644C5.2114 92.3887 5.67885 96.2536 8.07176 100.399L8.60043 101.268L8.77572 101.537L9.1291 102.061C12.3178 106.615 17.3373 110.956 23.3725 114.22C29.2963 117.417 35.4873 119.379 40.824 119.379C40.888 119.379 40.952 119.379 41.0105 119.379H41.4863L42.5575 119.345L42.9443 119.323C47.5186 119.022 50.8353 117.317 52.3545 114.442C54.1186 111.123 53.2978 106.674 50.0562 101.941C46.9121 97.3332 41.8285 92.9814 35.7433 89.6925C29.7443 86.451 23.4782 84.6146 18.0886 84.545V84.545Z" fill="#ECEDEE"/>
<path d="M40.8271 119.378C35.4903 119.378 29.2994 117.417 23.3755 114.22C17.3376 110.956 12.318 106.615 9.13212 102.06L8.77875 101.537L8.60345 101.267L8.07479 100.399C5.68188 96.2535 5.21442 92.3887 6.77816 89.4643C8.36138 86.4787 11.8784 84.7786 16.7421 84.5672L18.0916 84.5449C23.4812 84.6145 29.7473 86.4509 35.7463 89.6925C41.8288 92.9813 46.9151 97.3331 50.0593 101.941C53.3008 106.674 54.1216 111.123 52.3576 114.442C50.8383 117.317 47.5217 119.022 42.9473 119.323L42.5605 119.345L41.4893 119.378H41.0135C40.9551 119.378 40.8911 119.378 40.8271 119.378V119.378ZM18.253 84.8065L16.9258 84.8176C12.1233 85.0124 8.66467 86.7069 7.10371 89.6424C5.56223 92.5222 6.02412 96.3203 8.38642 100.419L8.90396 101.276L9.07925 101.54L9.4215 102.055C12.5462 106.56 17.5184 110.825 23.4701 114.036C29.38 117.228 35.5543 118.992 40.8549 119.12H41.3196L42.3797 119.092L42.7497 119.07C47.2657 118.783 50.5378 117.1 52.032 114.273C53.7683 111.001 52.9586 106.621 49.7643 101.96C46.6619 97.4166 41.6479 93.1232 35.6461 89.8817C29.7334 86.6818 23.5564 84.8983 18.2502 84.8037L18.253 84.8065Z" fill="#ECEDEE"/>
<path d="M41.3203 119.12H40.8557C35.5551 118.992 29.3808 117.228 23.4709 114.036C17.5192 110.822 12.547 106.56 9.42228 102.055L9.08004 101.54L8.90475 101.276L8.38721 100.419C6.02491 96.3203 5.56302 92.5222 7.1045 89.6424C8.66824 86.7069 12.124 85.0124 16.9266 84.8176L18.2538 84.8065C23.5599 84.9011 29.7342 86.6846 35.6497 89.8844C41.6487 93.126 46.6654 97.4193 49.7679 101.963C52.9594 106.621 53.7718 111.003 52.0356 114.275C50.5414 117.102 47.2692 118.786 42.7533 119.072L42.3832 119.095L41.3231 119.122L41.3203 119.12ZM18.4096 85.0569L17.1019 85.0819C12.3745 85.2823 8.96318 86.9239 7.42448 89.8149C5.91082 92.6585 6.36993 96.3926 8.69328 100.427L9.20803 101.273L9.37776 101.532L9.72279 102.035C12.8308 106.457 17.7029 110.678 23.5711 113.85C29.3224 116.963 35.3325 118.864 40.5162 118.864C40.5802 118.864 40.6414 118.864 40.6999 118.864H41.1617L42.1996 118.839L42.5697 118.816C47.0216 118.535 50.2492 116.877 51.7184 114.097C53.424 110.872 52.6255 106.568 49.4785 101.977C46.4178 97.4917 41.4789 93.2623 35.5634 90.0681C29.7342 86.9183 23.649 85.1292 18.4124 85.0541L18.4096 85.0569Z" fill="#EAECEB"/>
<path d="M40.5103 118.864C35.3266 118.864 29.3164 116.963 23.5651 113.85C17.6969 110.678 12.8248 106.457 9.71683 102.035L9.37181 101.532L9.20208 101.273L8.68732 100.427C6.36397 96.3926 5.90209 92.6586 7.41852 89.8149C8.95722 86.9239 12.3685 85.2823 17.0959 85.0819L18.4037 85.0569C23.6402 85.1292 29.7255 86.9183 35.5547 90.0709C41.4702 93.2651 46.4091 97.4945 49.4698 101.98C52.6167 106.571 53.4153 110.875 51.7097 114.1C50.2377 116.88 47.0129 118.538 42.5609 118.819L42.1909 118.841L41.153 118.866H40.6911C40.6327 118.866 40.5687 118.866 40.5075 118.866L40.5103 118.864ZM18.5706 85.3101L17.2795 85.3323C12.6189 85.5327 9.25773 87.1493 7.74407 89.9902C6.25546 92.7865 6.68952 96.4789 8.99896 100.444L9.50537 101.276L9.6751 101.529L10.009 102.027C13.053 106.401 17.8778 110.541 23.6597 113.672C29.3192 116.727 35.2292 118.619 40.3294 118.619C40.399 118.619 40.4657 118.613 40.5353 118.613H40.9916L42.0072 118.585L42.3717 118.563C46.7624 118.288 49.94 116.663 51.3897 113.919C53.0703 110.758 52.2801 106.512 49.1887 101.994C46.1698 97.5779 41.2921 93.3987 35.4573 90.2489C29.7171 87.1465 23.7237 85.3824 18.5706 85.3101V85.3101Z" fill="#EAECEB"/>
<path d="M40.3295 118.616C35.2292 118.616 29.3193 116.724 23.6598 113.669C17.8778 110.538 13.053 106.398 10.009 102.024L9.67515 101.526L9.50542 101.273L8.99901 100.441C6.68957 96.476 6.25551 92.7836 7.74413 89.9873C9.25778 87.1436 12.6218 85.5298 17.2796 85.3295L18.5707 85.3072C23.7238 85.3795 29.7172 87.1436 35.4574 90.246C41.2922 93.3958 46.1698 97.575 49.1888 101.991C52.2801 106.507 53.0703 110.753 51.3897 113.916C49.9401 116.66 46.7625 118.285 42.3718 118.56L42.0073 118.583L40.9917 118.61H40.5354C40.4658 118.61 40.399 118.616 40.3295 118.616V118.616ZM18.7293 85.5687L17.4577 85.5827C12.8611 85.783 9.54716 87.3634 8.06411 90.1626C6.59219 92.9116 7.02625 96.5483 9.30787 100.449L9.80593 101.27L9.97009 101.521L10.2984 102.013C13.2534 106.348 18.0559 110.399 23.7544 113.482C29.4028 116.532 35.3016 118.218 40.374 118.354H40.8247L41.8264 118.332L42.1798 118.31C46.5065 118.04 49.6423 116.44 51.067 113.738C52.7197 110.63 51.9406 106.454 48.8966 102.01C45.925 97.6529 41.1169 93.5377 35.3628 90.4297C29.7116 87.3746 23.8072 85.6689 18.7293 85.5632V85.5687Z" fill="#E8E9EA"/>
<path d="M40.8263 118.357H40.3756C35.3031 118.218 29.4043 116.535 23.7559 113.485C18.0575 110.405 13.255 106.354 10.3 102.016L9.97166 101.523L9.8075 101.273L9.30944 100.452C7.02504 96.551 6.59376 92.9116 8.06568 90.1653C9.54873 87.3661 12.8626 85.7857 17.4592 85.5854L18.7308 85.5715C23.8088 85.6772 29.7132 87.3828 35.3643 90.438C41.1185 93.546 45.9293 97.6612 48.8982 102.019C51.9422 106.462 52.7213 110.639 51.0685 113.747C49.6439 116.446 46.5109 118.046 42.1814 118.318L41.828 118.34L40.8263 118.363V118.357ZM18.8894 85.8219L17.6401 85.8386C13.1131 86.0028 9.8548 87.5888 8.38845 90.3434C6.94992 93.0424 7.37285 96.6234 9.61829 100.463L10.1052 101.273L10.2694 101.515L10.5977 102.002C13.536 106.248 18.2383 110.257 23.8533 113.29C29.3403 116.256 35.0694 118.098 40.0138 118.098C40.0834 118.098 40.153 118.098 40.2197 118.098H40.6566L41.6416 118.076L41.9894 118.054C46.2577 117.79 49.3406 116.217 50.743 113.563C52.3679 110.502 51.6 106.404 48.6033 102.019C45.6761 97.7308 40.9404 93.674 35.2697 90.6133C29.6993 87.6054 23.8839 85.8859 18.8866 85.8163L18.8894 85.8219Z" fill="#E8E9E8"/>
<path d="M40.0122 118.101C35.065 118.101 29.3359 116.259 23.8517 113.293C18.2395 110.26 13.5371 106.251 10.5961 102.005L10.2677 101.518L10.1036 101.276L9.61665 100.466C7.37121 96.629 6.94828 93.048 8.38681 90.3463C9.85316 87.5916 13.1114 86.0056 17.6385 85.8415L18.8878 85.8248C23.8879 85.8943 29.7004 87.6139 35.2709 90.6217C40.9415 93.6824 45.6745 97.7392 48.6044 102.027C51.6011 106.412 52.3691 110.511 50.7441 113.571C49.3418 116.223 46.2588 117.798 41.9905 118.062L41.6427 118.085L40.6577 118.107H40.2209C40.1513 118.107 40.0818 118.107 40.015 118.107L40.0122 118.101ZM19.0492 86.0752L17.8165 86.0919C13.3618 86.2505 10.1481 87.8059 8.70957 90.5188C7.29052 93.176 7.72458 96.693 9.92551 100.483L10.4124 101.273L10.571 101.515L10.8882 101.994C13.7959 106.17 18.4176 110.121 23.9463 113.11C29.347 116.031 34.9871 117.848 39.8592 117.848C39.9232 117.848 39.9927 117.848 40.0595 117.848H40.4936L41.4563 117.82L41.8013 117.806C46.0056 117.553 49.0413 116.006 50.4269 113.393C52.0157 110.38 51.2644 106.351 48.3206 102.046C45.4296 97.8144 40.7635 93.8271 35.1791 90.8054C29.6921 87.8448 23.9741 86.1447 19.0492 86.0752V86.0752Z" fill="#E8E9E8"/>
<path d="M39.8584 117.848C34.9863 117.848 29.3463 116.031 23.9455 113.11C18.4168 110.124 13.7951 106.173 10.8875 101.994L10.5703 101.515L10.4117 101.273L9.92475 100.483C7.72382 96.693 7.28698 93.176 8.70881 90.5188C10.1473 87.8087 13.3639 86.2505 17.8158 86.0919L19.0484 86.0752C23.9734 86.1448 29.6913 87.8448 35.1783 90.8054C40.7655 93.8271 45.4289 97.8144 48.3199 102.046C51.2637 106.351 52.0149 110.383 50.4262 113.393C49.0405 116.003 46.0048 117.55 41.8006 117.806L41.4555 117.82L40.4928 117.848H40.0587C39.9892 117.848 39.9196 117.848 39.8584 117.848V117.848ZM19.207 86.3367L17.9994 86.3479C13.6115 86.512 10.4478 88.0368 9.0288 90.6968C7.63757 93.3124 8.05494 96.771 10.2308 100.494L10.7066 101.279L10.8652 101.518L11.1824 101.982C14.0734 106.073 18.5893 109.988 24.0374 112.934C29.4298 115.847 35.0587 117.45 39.8974 117.595L40.3203 117.6L41.2747 117.573L41.6141 117.559C45.7489 117.308 48.74 115.789 50.1034 113.226C51.6699 110.271 50.9242 106.306 48.0277 102.069C45.184 97.9062 40.5902 93.9718 35.0809 90.9974C29.6857 88.0786 24.0513 86.4425 19.2042 86.3423L19.207 86.3367Z" fill="#E5E6E7"/>
<path d="M40.3238 117.595L39.9009 117.589C35.0622 117.447 29.4333 115.842 24.0409 112.929C18.5928 109.985 14.0769 106.067 11.1859 101.977L10.8687 101.512L10.7101 101.273L10.2343 100.488C8.05844 96.7654 7.63829 93.3069 9.0323 90.6913C10.4514 88.0341 13.6122 86.5065 18.0029 86.3424L19.2105 86.3312C24.0548 86.4314 29.6892 88.0675 35.0872 90.9863C40.5937 93.9635 45.1903 97.8979 48.034 102.058C50.9305 106.293 51.6762 110.26 50.1097 113.215C48.7491 115.778 45.7579 117.297 41.6204 117.548L41.281 117.562L40.3266 117.589L40.3238 117.595ZM19.3663 86.5872L18.1755 86.6039C13.8543 86.7681 10.7463 88.2539 9.35507 90.8722C7.98888 93.4404 8.3979 96.8517 10.5404 100.511L11.0106 101.279L11.1692 101.512L11.4781 101.974C14.3051 106.02 18.7737 109.849 24.1383 112.751C29.3693 115.575 34.8229 117.342 39.5419 117.342C39.6115 117.342 39.6755 117.342 39.7423 117.342H40.1596L41.0917 117.319L41.4201 117.303C45.5019 117.061 48.4486 115.572 49.7814 113.046C51.3228 110.149 50.5855 106.245 47.7363 102.091C44.9399 97.9869 40.4073 94.111 34.9843 91.1838C29.6726 88.3151 24.1355 86.6707 19.3636 86.5928L19.3663 86.5872Z" fill="#E5E6E5"/>
<path d="M39.5384 117.333C34.8221 117.333 29.3657 115.566 24.1347 112.742C18.7701 109.84 14.3015 106.011 11.4745 101.966L11.1657 101.504L11.0071 101.27L10.5368 100.502C8.39433 96.8432 7.98531 93.4319 9.3515 90.8637C10.7455 88.2482 13.8535 86.7596 18.1719 86.5954L19.3628 86.5787C24.1347 86.6566 29.6746 88.3011 34.9835 91.1698C40.4065 94.0969 44.9391 97.9729 47.7355 102.077C50.5847 106.234 51.3193 110.135 49.7806 113.032C48.445 115.558 45.5012 117.047 41.4193 117.289L41.091 117.305L40.1588 117.328H39.7415C39.6719 117.328 39.6079 117.328 39.5411 117.328L39.5384 117.333ZM19.5214 86.8375L18.35 86.8542C14.0984 87.0128 11.0377 88.4736 9.67148 91.0418C8.32755 93.5738 8.74492 96.9156 10.8485 100.516L11.3076 101.273L11.4634 101.501L11.7639 101.955C14.5491 105.933 18.9482 109.701 24.2293 112.556C29.3713 115.33 34.7414 117.083 39.3798 117.083C39.4438 117.083 39.5133 117.083 39.5801 117.077H39.9919L40.9018 117.055L41.2301 117.044C45.2424 116.81 48.1417 115.344 49.455 112.859C50.9631 110.01 50.2425 106.187 47.4489 102.094C44.6915 98.0536 40.2312 94.2416 34.8889 91.3562C29.6606 88.5348 24.2126 86.9126 19.5214 86.8347V86.8375Z" fill="#E2E5E5"/>
<path d="M39.38 117.086C34.7417 117.086 29.3743 115.333 24.2296 112.559C18.9512 109.704 14.5494 105.934 11.7642 101.958L11.4637 101.504L11.3078 101.276L10.8487 100.519C8.7452 96.9185 8.32783 93.5768 9.67176 91.0447C11.0407 88.4765 14.0986 87.0157 18.3502 86.8571L19.5216 86.8405C24.2129 86.9184 29.6609 88.5405 34.8891 91.3619C40.2315 94.2474 44.6917 98.0621 47.4491 102.099C50.2427 106.192 50.9634 110.016 49.4553 112.865C48.142 115.349 45.2454 116.816 41.2304 117.05L40.902 117.061L39.9922 117.083H39.5804C39.5108 117.089 39.444 117.089 39.38 117.089V117.086ZM19.6858 87.0992L18.5311 87.1104C14.3491 87.2662 11.3301 88.6936 9.98896 91.22C8.66451 93.6992 9.06796 96.9964 11.1548 100.533L11.6111 101.276L11.7586 101.498L12.0591 101.944C14.8082 105.845 19.1293 109.562 24.3186 112.375C29.455 115.149 34.8085 116.685 39.4218 116.824L39.8308 116.83L40.724 116.807L41.0412 116.796C44.9922 116.568 47.8443 115.13 49.1325 112.692C50.6156 109.901 49.9116 106.137 47.1598 102.124C44.4469 98.1456 40.0534 94.3865 34.7945 91.5484C29.6526 88.7687 24.2991 87.2105 19.6858 87.0992V87.0992Z" fill="#E2E3E4"/>
<path d="M39.8301 116.824L39.4211 116.819C34.8106 116.682 29.4571 115.146 24.3179 112.37C19.1287 109.556 14.8075 105.842 12.0584 101.938L11.7579 101.493L11.6105 101.27L11.1541 100.527C9.0673 96.9909 8.66663 93.6909 9.98829 91.2145C11.3294 88.688 14.3456 87.2578 18.5304 87.1048L19.6851 87.0937C24.2985 87.205 29.6519 88.7632 34.7939 91.5428C40.0527 94.3809 44.4462 98.14 47.1591 102.119C49.911 106.131 50.6149 109.896 49.1319 112.687C47.8464 115.121 44.9916 116.563 41.0405 116.791L40.7233 116.802L39.8301 116.824ZM39.2653 116.565L39.6604 116.577L40.5397 116.554L40.8513 116.54C44.7384 116.323 47.5431 114.91 48.8091 112.517C50.2643 109.773 49.5715 106.081 46.8642 102.138C44.1958 98.2263 39.8746 94.5312 34.6965 91.7348C29.6436 89.008 24.3764 87.4359 19.8437 87.358L18.7113 87.3691C14.5988 87.5222 11.6383 88.9245 10.3138 91.4037C9.01722 93.8384 9.40954 97.0744 11.4686 100.552L11.9138 101.279L12.0612 101.501L12.3534 101.938C15.0106 105.808 19.3123 109.428 24.4209 112.194C29.3931 114.879 34.5769 116.579 39.0622 116.579C39.1289 116.579 39.1929 116.579 39.2625 116.574L39.2653 116.565Z" fill="#E0E2E4"/>
<path d="M39.6609 116.576L39.2658 116.565C39.1963 116.571 39.1323 116.571 39.0655 116.571C34.5802 116.571 29.3965 114.871 24.4242 112.186C19.3156 109.423 15.014 105.8 12.3567 101.93L12.0646 101.493L11.9171 101.27L11.4719 100.544C9.41287 97.0659 9.02055 93.8299 10.3172 91.3952C11.6416 88.9161 14.6022 87.5137 18.7146 87.3607L19.8471 87.3495C24.3797 87.4275 29.6497 88.9995 34.6998 91.7264C39.878 94.5227 44.1991 98.2178 46.8675 102.13C49.5748 106.075 50.2677 109.765 48.8124 112.509C47.5464 114.901 44.7389 116.315 40.8546 116.532L40.543 116.546L39.6637 116.568L39.6609 116.576ZM20.0057 87.6083L18.8927 87.6194C14.8414 87.7474 11.9282 89.1387 10.6372 91.5733C9.36001 93.9607 9.76903 97.1327 11.7752 100.561L12.2148 101.276L12.3567 101.493L12.6433 101.921C15.2588 105.728 19.4909 109.286 24.516 112.002C29.3937 114.64 34.4828 116.318 38.8819 116.318C38.9542 116.318 39.0293 116.318 39.0989 116.318H39.4968L40.3538 116.301L40.6626 116.284C44.4913 116.073 47.2487 114.693 48.4897 112.339C49.9199 109.648 49.2354 106.034 46.5837 102.152C43.9571 98.3013 39.6999 94.6702 34.6052 91.9183C29.6385 89.2333 24.466 87.6862 20.0057 87.6083V87.6083Z" fill="#E0E2E4"/>
<path d="M38.8853 116.318C34.4834 116.318 29.3943 114.637 24.5195 112.002C19.4943 109.286 15.2622 105.728 12.6467 101.921L12.3601 101.493L12.2182 101.276L11.7786 100.561C9.77245 97.1327 9.36343 93.9635 10.6406 91.5733C11.9316 89.1387 14.8449 87.7447 18.8961 87.6195L20.0091 87.6083C24.4666 87.689 29.642 89.2333 34.6086 91.9184C39.7033 94.6702 43.9605 98.3041 46.5871 102.152C49.2388 106.034 49.9233 109.651 48.4931 112.339C47.2521 114.69 44.4947 116.073 40.666 116.284L40.3572 116.301L39.5002 116.318H39.1023C39.0327 116.318 38.9604 116.318 38.8853 116.318V116.318ZM20.1649 87.8671L19.0742 87.8727C15.0925 87.9951 12.2266 89.3613 10.9633 91.7486C9.70845 94.0887 10.0952 97.2134 12.0847 100.575L12.5132 101.276L12.6579 101.487L12.9417 101.905C15.521 105.644 19.6724 109.142 24.6113 111.818C29.4834 114.451 34.5669 115.923 38.9465 116.062L39.3277 116.067L40.1736 116.053L40.4713 116.037C44.2359 115.831 46.946 114.473 48.1703 112.172C49.5699 109.529 48.8965 105.981 46.2922 102.18C43.7073 98.3931 39.5225 94.8149 34.5113 92.102C29.628 89.4698 24.5445 87.9784 20.1649 87.8727V87.8671Z" fill="#DDE0E2"/>
<path d="M39.3282 116.062L38.947 116.056C34.5674 115.917 29.4839 114.445 24.6118 111.813C19.6729 109.139 15.5215 105.639 12.9422 101.899L12.6583 101.482L12.5137 101.27L12.0852 100.569C10.0929 97.2078 9.70616 94.0831 10.9638 91.7431C12.2298 89.3558 15.093 87.9868 19.0747 87.8671L20.1654 87.8616C24.545 87.9673 29.6285 89.4615 34.5118 92.0909C39.5257 94.8038 43.7078 98.382 46.2927 102.169C48.897 105.97 49.5704 109.517 48.1708 112.161C46.9465 114.465 44.2364 115.82 40.4718 116.026L40.174 116.042L39.3282 116.056V116.062ZM38.7828 115.803L39.164 115.809L39.9848 115.786L40.2853 115.77C43.9832 115.58 46.6516 114.25 47.8481 111.985C49.2198 109.406 48.5576 105.922 46.0061 102.188C43.4657 98.4655 39.3477 94.9513 34.4227 92.2857C29.6258 89.6924 24.6313 88.1927 20.3268 88.1176L19.2528 88.1231C15.3434 88.2706 12.5331 89.5728 11.2894 91.9184C10.0651 94.2167 10.4519 97.2774 12.4024 100.583L12.8253 101.27L12.9644 101.476L13.2399 101.888C15.8081 105.536 19.8593 109.003 24.7092 111.624C29.4171 114.17 34.3253 115.797 38.5714 115.797C38.6437 115.797 38.7188 115.797 38.7884 115.797L38.7828 115.803Z" fill="#DDE0E2"/>
<path d="M39.1634 115.808L38.7822 115.803C38.7126 115.803 38.6375 115.803 38.5651 115.803C34.3191 115.803 29.4081 114.178 24.7029 111.629C19.8531 109.008 15.8019 105.541 13.2337 101.893L12.9582 101.482L12.8191 101.276L12.3961 100.588C10.4456 97.2829 10.0617 94.2222 11.2832 91.9239C12.5269 89.5783 15.34 88.2761 19.2465 88.1286L20.3206 88.123C24.625 88.1982 29.6195 89.6951 34.4165 92.2912C39.3414 94.954 43.4595 98.471 45.9999 102.194C48.5542 105.928 49.2164 109.412 47.8418 111.991C46.6454 114.259 43.977 115.586 40.2791 115.775L39.9786 115.792L39.1578 115.814L39.1634 115.808ZM20.482 88.3735L19.433 88.379C15.5904 88.5209 12.8302 89.8036 11.6059 92.0964C10.4039 94.353 10.7712 97.3608 12.7022 100.602L13.114 101.276L13.2531 101.476L13.523 101.88C16.0606 105.458 20.0256 108.875 24.7975 111.448C29.4999 113.989 34.4026 115.402 38.6291 115.547L38.9992 115.558L39.8033 115.536L40.0955 115.522C43.7349 115.335 46.3532 114.033 47.5246 111.816C48.8686 109.292 48.2175 105.87 45.7133 102.216C43.2146 98.5517 39.1689 95.0931 34.3247 92.4776C29.6112 89.9372 24.7085 88.4903 20.4847 88.379L20.482 88.3735Z" fill="#DDDEE0"/>
<path d="M38.9982 115.555L38.6281 115.544C34.4016 115.402 29.4989 113.989 24.7965 111.446C20.0246 108.872 16.0596 105.455 13.522 101.877L13.2521 101.473L13.113 101.273L12.7012 100.6C10.7702 97.3581 10.4029 94.3503 11.6049 92.0937C12.8292 89.801 15.5866 88.521 19.4319 88.3764L20.4809 88.3708C24.7075 88.4849 29.6074 89.929 34.3209 92.4693C39.1651 95.0848 43.2108 98.5434 45.7094 102.208C48.2137 105.861 48.8648 109.281 47.5208 111.807C46.3494 114.028 43.7283 115.327 40.0917 115.514L39.7995 115.528L38.9954 115.55L38.9982 115.555ZM20.6395 88.6296L19.6072 88.6351C15.837 88.7409 13.1213 90.0236 11.9249 92.2773C10.7507 94.4866 11.1319 97.4305 13.01 100.611L13.4191 101.273L13.5554 101.471L13.8197 101.866C16.3072 105.377 20.2055 108.727 24.8911 111.265C29.5072 113.758 34.3236 115.146 38.4639 115.288L38.834 115.294L39.6187 115.277L39.9052 115.263C43.4807 115.082 46.0545 113.811 47.2036 111.635C48.5225 109.156 47.8798 105.817 45.4229 102.222C42.9715 98.6325 38.9898 95.2268 34.229 92.653C29.6074 90.1543 24.7937 88.7436 20.6395 88.6296V88.6296Z" fill="#DBDDDE"/>
<path d="M38.8349 115.297L38.4649 115.291C34.3246 115.149 29.5109 113.761 24.892 111.268C20.2064 108.73 16.3082 105.38 13.8207 101.869L13.5563 101.473L13.42 101.276L13.011 100.614C11.1328 97.4305 10.7516 94.4894 11.9258 92.2802C13.1223 90.0264 15.8379 88.7437 19.6082 88.6379L20.6405 88.6324C24.7919 88.7465 29.6055 90.1572 34.23 92.6558C38.9907 95.2296 42.9724 98.6353 45.4238 102.225C47.8807 105.82 48.5207 109.161 47.2046 111.638C46.0554 113.814 43.4816 115.085 39.9062 115.266L39.6196 115.28L38.8349 115.297V115.297ZM38.3118 115.038L38.6652 115.049L39.4387 115.027L39.7142 115.016C43.2256 114.84 45.7521 113.597 46.8846 111.462C48.1673 109.036 47.5412 105.758 45.1372 102.244C42.722 98.7077 38.8155 95.3771 34.1326 92.8395C29.5944 90.3881 24.8781 88.9691 20.7991 88.8828L19.7862 88.8884C16.08 88.9997 13.4228 90.2434 12.2458 92.4527C11.0911 94.6119 11.4723 97.5001 13.3143 100.63L13.7177 101.276L13.8513 101.473L14.11 101.86C16.5085 105.338 20.3845 108.596 24.9867 111.078C29.4414 113.482 34.0714 115.043 38.092 115.043C38.1644 115.043 38.2339 115.043 38.309 115.038H38.3118Z" fill="#DBDDDE"/>
<path d="M38.6665 115.046L38.3131 115.035C38.238 115.041 38.1684 115.041 38.0961 115.041C34.0755 115.041 29.4454 113.48 24.9907 111.076C20.3886 108.594 16.5126 105.335 14.1141 101.857L13.8553 101.47L13.7218 101.273L13.3183 100.627C11.4763 97.4971 11.0952 94.6117 12.2499 92.4498C13.4268 90.2433 16.0841 88.9968 19.7903 88.8855L20.8031 88.8799C24.8822 88.9661 29.5985 90.3852 34.1367 92.8365C38.8195 95.3741 42.7261 98.7047 45.1413 102.241C47.5453 105.755 48.1686 109.036 46.8887 111.46C45.7562 113.594 43.2297 114.837 39.7183 115.013L39.4428 115.024L38.6693 115.046H38.6665ZM19.9684 89.1414C16.3317 89.2472 13.7218 90.4659 12.5726 92.6251C11.4402 94.7425 11.788 97.5862 13.6272 100.641L14.0251 101.273L14.1586 101.462L14.4091 101.841C16.7769 105.249 20.5722 108.449 25.0881 110.895C29.5317 113.293 34.1645 114.637 38.1517 114.779L38.5079 114.79L39.2592 114.773L39.5291 114.757C42.9765 114.593 45.4613 113.371 46.5687 111.284C47.8291 108.914 47.2142 105.703 44.8519 102.255C42.484 98.7882 38.647 95.5105 34.0448 93.0202C29.5901 90.6161 24.9629 89.2499 20.9701 89.1386H19.974L19.9684 89.1414Z" fill="#D9DADB"/>
<path d="M38.5036 114.793L38.1474 114.782C34.1602 114.64 29.5274 113.296 25.0838 110.897C20.5679 108.452 16.7726 105.252 14.4047 101.843L14.1543 101.465L14.0208 101.276L13.6229 100.644C11.7865 97.589 11.4359 94.7453 12.5683 92.6279C13.7175 90.4687 16.3274 89.25 19.9641 89.1442H20.9602C24.953 89.2555 29.5803 90.6217 34.035 93.0257C38.6344 95.5133 42.4742 98.7938 44.842 102.261C47.2043 105.708 47.8165 108.916 46.5588 111.29C45.4514 113.377 42.9694 114.598 39.5192 114.762L39.2493 114.779L38.498 114.796L38.5036 114.793ZM20.1505 89.3974C16.5834 89.4976 14.018 90.6913 12.8967 92.8087C11.7837 94.8789 12.151 97.6585 13.9401 100.655L14.3268 101.276L14.4521 101.462L14.7025 101.832C17.0286 105.174 20.7515 108.313 25.184 110.705C29.5413 113.062 34.0795 114.387 37.9916 114.529L38.3366 114.54L39.0712 114.526L39.3355 114.509C42.7246 114.356 45.162 113.16 46.2416 111.114C47.4687 108.794 46.8704 105.655 44.5582 102.277C42.2321 98.8772 38.4619 95.6524 33.9459 93.2122C29.583 90.8554 25.0393 89.5115 21.1216 89.4002H20.1505V89.3974Z" fill="#D8DADD"/>
<path d="M38.3344 114.537L37.9894 114.526C34.0773 114.384 29.5391 113.06 25.1818 110.703C20.7493 108.31 17.0264 105.169 14.7002 101.83L14.4498 101.459L14.3246 101.273L13.9379 100.653C12.1487 97.6559 11.7815 94.8762 12.8944 92.8061C14.0158 90.6886 16.5812 89.4949 20.1483 89.3948H21.1194C25.0371 89.5061 29.5808 90.85 33.9437 93.2067C38.4596 95.6497 42.2299 98.8746 44.556 102.272C46.8682 105.65 47.4692 108.791 46.2394 111.109C45.1598 113.151 42.7224 114.351 39.3333 114.504L39.069 114.52L38.3344 114.534V114.537ZM37.8308 114.273L38.1675 114.278L38.8826 114.267L39.1413 114.253C42.4664 114.103 44.8565 112.94 45.9138 110.934C47.1159 108.666 46.5288 105.6 44.2666 102.297C41.985 98.9497 38.2843 95.7944 33.8463 93.4015C29.5669 91.0893 25.1205 89.7342 21.2808 89.6535L20.3264 89.6591C16.826 89.7565 14.3135 90.9084 13.2116 92.9869C12.132 95.0098 12.4854 97.731 14.2439 100.675L14.6251 101.279L14.7475 101.459L14.9896 101.824C17.2462 105.124 20.9246 108.179 25.2736 110.525C29.464 112.79 33.8157 114.278 37.5999 114.278C37.6722 114.278 37.7529 114.278 37.828 114.278L37.8308 114.273Z" fill="#D7D9DB"/>
<path d="M38.1674 114.278L37.8307 114.272C37.7556 114.272 37.6749 114.272 37.6025 114.272C33.8184 114.272 29.4638 112.784 25.2762 110.519C20.93 108.173 17.2489 105.115 14.9923 101.818L14.7502 101.454L14.6278 101.273L14.2466 100.669C12.4881 97.7252 12.1319 95.004 13.2143 92.9812C14.3162 90.9054 16.8287 89.7507 20.329 89.6533L21.2834 89.6478C25.1232 89.7285 29.5696 91.0835 33.849 93.3957C38.287 95.7886 41.9877 98.944 44.2693 102.291C46.5314 105.594 47.1185 108.66 45.9165 110.928C44.8592 112.934 42.469 114.1 39.144 114.247L38.8852 114.261L38.1701 114.272L38.1674 114.278ZM20.5071 89.9121C17.0763 90.0067 14.6139 91.128 13.5343 93.1564C12.4797 95.1348 12.8136 97.8115 14.5499 100.68L14.9255 101.273L15.0479 101.448L15.2872 101.807C17.5271 105.012 21.1053 108.029 25.3681 110.338C29.5529 112.595 33.9102 113.869 37.6693 114.014L38.0032 114.025L38.7016 114.014L38.9548 113.997C42.2103 113.855 44.5559 112.717 45.5882 110.755C46.7624 108.546 46.1864 105.541 43.9743 102.311C41.7345 99.033 38.1089 95.9305 33.7488 93.5766C29.5557 91.3117 25.1983 90.0123 21.4365 89.9093H20.5043L20.5071 89.9121Z" fill="#D7D8DA"/>
<path d="M38.0054 114.025L37.6715 114.014C33.9124 113.872 29.5551 112.595 25.3703 110.338C21.1075 108.029 17.5293 105.01 15.2894 101.807L15.0501 101.448L14.9277 101.273L14.5521 100.68C12.8158 97.8117 12.4819 95.135 13.5365 93.1567C14.6161 91.1283 17.0785 90.007 20.5093 89.9124H21.4414C25.2005 90.0181 29.5579 91.3147 33.7538 93.5796C38.1139 95.9308 41.7394 99.036 43.9793 102.314C46.1942 105.544 46.7701 108.549 45.5931 110.759C44.5609 112.717 42.2152 113.855 38.9598 114L38.7066 114.017L38.0082 114.028L38.0054 114.025ZM20.6846 90.16C17.3206 90.2546 14.9082 91.3509 13.8565 93.332C12.8186 95.2714 13.1692 97.8757 14.8637 100.7L15.2282 101.276L15.3451 101.451L15.5788 101.799C17.7853 104.929 21.2884 107.895 25.4649 110.155C29.5634 112.372 33.8317 113.619 37.5129 113.761L37.8357 113.772L38.5201 113.761L38.7706 113.744C41.9704 113.613 44.2603 112.5 45.2787 110.583C46.4223 108.427 45.8547 105.489 43.6899 102.333C41.4974 99.1167 37.9358 96.0727 33.662 93.7661C29.5523 91.5484 25.2896 90.2713 21.6056 90.16H20.6902H20.6846Z" fill="#D4D7DA"/>
<path d="M37.8358 113.772L37.5131 113.761C33.8319 113.616 29.5664 112.372 25.4651 110.155C21.2886 107.895 17.7883 104.926 15.579 101.799L15.3453 101.451L15.2284 101.276L14.8639 100.7C13.1694 97.8757 12.8188 95.2713 13.8567 93.3319C14.9056 91.3536 17.3208 90.2573 20.6848 90.1599H21.6002C25.2842 90.2712 29.5497 91.5484 33.6566 93.766C37.9305 96.0754 41.4948 99.1194 43.6846 102.333C45.8493 105.488 46.4169 108.427 45.2734 110.583C44.255 112.5 41.9622 113.613 38.7652 113.744L38.5148 113.761L37.8303 113.772H37.8358ZM37.3545 113.513H37.6717L38.3339 113.507L38.576 113.496C41.7118 113.366 43.9545 112.28 44.945 110.405C46.0664 108.302 45.5099 105.438 43.398 102.35C41.2416 99.2001 37.7524 96.2173 33.5648 93.9524C29.5414 91.7821 25.3621 90.5049 21.756 90.4159H20.8629C17.5684 90.4855 15.2061 91.5734 14.1794 93.5072C13.1666 95.3965 13.5061 97.9452 15.17 100.708L15.5261 101.273L15.6402 101.443L15.8739 101.777C18.0721 104.826 21.4611 107.756 25.5597 109.968C29.4885 112.091 33.5703 113.51 37.1235 113.51C37.1987 113.51 37.2794 113.51 37.3517 113.51L37.3545 113.513Z" fill="#D4D7D8"/>
<path d="M37.6719 113.51H37.3547C37.2824 113.51 37.2017 113.51 37.1266 113.51C33.5734 113.51 29.4915 112.091 25.5627 109.968C21.4641 107.753 18.0751 104.826 15.877 101.777L15.6432 101.443L15.5292 101.273L15.173 100.708C13.5091 97.9424 13.1724 95.3965 14.1825 93.5072C15.2092 91.5734 17.5715 90.4855 20.8659 90.4159H21.7591C25.3651 90.5049 29.5444 91.7821 33.5678 93.9524C37.7554 96.2201 41.2446 99.2001 43.401 102.35C45.5129 105.438 46.0694 108.302 44.9481 110.405C43.9575 112.28 41.7121 113.366 38.579 113.496L38.337 113.507L37.6747 113.513L37.6719 113.51ZM21.0468 90.6663C17.8219 90.7303 15.5069 91.7932 14.4997 93.6797C13.5147 95.5273 13.8486 98.0231 15.4846 100.719L15.8297 101.276L15.941 101.44L16.1691 101.774C18.2754 104.787 21.6506 107.614 25.6573 109.779C29.5861 111.908 33.6708 113.098 37.1961 113.246L37.5078 113.257L38.1533 113.246L38.387 113.24C41.4589 113.118 43.6626 112.058 44.6309 110.227C45.7216 108.176 45.1762 105.383 43.1116 102.364C41.0053 99.2752 37.5773 96.3537 33.4732 94.136C29.5333 92.013 25.4514 90.7832 21.9205 90.6719L21.0468 90.6663V90.6663Z" fill="#D4D5D7"/>
<path d="M37.505 113.254L37.1934 113.243C33.668 113.096 29.5862 111.905 25.6546 109.776C21.6478 107.611 18.2727 104.782 16.1664 101.771L15.9382 101.437L15.8269 101.273L15.4819 100.716C13.8458 98.0203 13.5119 95.5244 14.4969 93.6769C15.5042 91.7904 17.8164 90.7274 21.044 90.6635L21.9177 90.669C25.4487 90.7803 29.5333 92.0074 33.4705 94.1332C37.5746 96.3508 40.9998 99.2752 43.1089 102.361C45.1735 105.38 45.7189 108.173 44.6281 110.224C43.6598 112.055 41.4561 113.115 38.3843 113.238L38.1506 113.243L37.505 113.254V113.254ZM21.2221 90.9194C18.0668 90.9779 15.7991 92.0157 14.8253 93.8549C13.8542 95.6552 14.1742 98.1065 15.788 100.739L16.1274 101.273L16.2387 101.432L16.4558 101.76C18.4953 104.723 21.8203 107.472 25.7492 109.598C29.5862 111.674 33.579 112.848 37.032 112.998L37.3325 113.009L37.9642 112.998L38.1923 112.987C41.2001 112.87 43.3593 111.843 44.3026 110.052C45.3655 108.057 44.8313 105.324 42.814 102.383C40.7494 99.3558 37.3965 96.4899 33.3675 94.314C29.5166 92.2383 25.5266 91.0363 22.0791 90.925L21.2221 90.9194V90.9194Z" fill="#D2D4D7"/>
<path d="M37.3352 113.009L37.0347 112.998C33.5817 112.851 29.5889 111.674 25.7518 109.598C21.823 107.475 18.498 104.726 16.4584 101.76L16.2414 101.432L16.1301 101.273L15.7907 100.739C14.1768 98.1066 13.8568 95.6553 14.8279 93.855C15.8018 92.0186 18.0695 90.978 21.2248 90.9196L22.0818 90.9251C25.5292 91.0364 29.5221 92.2384 33.3702 94.3141C37.3992 96.49 40.7521 99.356 42.8166 102.383C44.8339 105.322 45.3682 108.054 44.3053 110.052C43.362 111.844 41.2028 112.87 38.195 112.987L37.9668 112.998L37.3352 113.009V113.009ZM36.8761 112.745L37.171 112.756L37.7804 112.745L38.003 112.734C40.9524 112.623 43.0587 111.621 43.9825 109.879C45.0204 107.937 44.4972 105.277 42.5273 102.403C40.51 99.4366 37.2211 96.6375 33.2812 94.5089C29.5165 92.4749 25.6127 91.2674 22.2348 91.1811H21.4029C18.3171 91.2618 16.0967 92.2357 15.1451 94.0359C14.2074 95.7944 14.5135 98.1818 16.0967 100.75L16.4306 101.273L16.5364 101.426L16.7534 101.743C18.7818 104.623 22.0011 107.336 25.8437 109.412C29.5082 111.398 33.3146 112.748 36.6368 112.748C36.7175 112.748 36.7954 112.742 36.8761 112.742V112.745Z" fill="#D2D4D5"/>
<path d="M37.1737 112.753L36.8788 112.742C36.7981 112.742 36.7202 112.748 36.6395 112.748C33.32 112.748 29.5108 111.398 25.8464 109.412C22.0038 107.336 18.7817 104.626 16.7561 101.743L16.539 101.426L16.4333 101.273L16.0994 100.75C14.5162 98.1817 14.2073 95.7943 15.1478 94.0358C16.0994 92.2356 18.3198 91.2617 21.4056 91.181H22.2375C25.6154 91.2673 29.5192 92.4749 33.2839 94.5088C37.2238 96.6374 40.5127 99.4366 42.53 102.403C44.4999 105.277 45.023 107.937 43.9852 109.879C43.0642 111.621 40.9551 112.623 38.0057 112.734L37.7831 112.745L37.1737 112.756V112.753ZM21.5836 91.437C18.5619 91.4843 16.3999 92.4582 15.4678 94.2111C14.5552 95.9223 14.8696 98.2457 16.4027 100.761L16.731 101.281L16.8368 101.429L17.0427 101.738C19.0015 104.57 22.1791 107.197 25.9382 109.231C29.6055 111.217 33.4202 112.339 36.7146 112.486L36.9984 112.497L37.5967 112.492L37.8081 112.481C40.6935 112.381 42.7581 111.407 43.6541 109.712C44.6585 107.812 44.1577 105.221 42.2322 102.428C40.2539 99.5256 37.0374 96.7821 33.1781 94.6953C29.4969 92.7086 25.685 91.5539 22.3905 91.4398H21.5753L21.5836 91.437Z" fill="#CFD2D4"/>
<path d="M37.0038 112.495L36.72 112.484C33.4255 112.336 29.6136 111.215 25.9435 109.228C22.1844 107.194 19.0069 104.567 17.048 101.735L16.8421 101.426L16.7364 101.279L16.408 100.758C14.8721 98.2429 14.5605 95.9196 15.4731 94.2084C16.4053 92.4554 18.5644 91.4816 21.589 91.4343H22.4042C25.6987 91.5483 29.5106 92.7031 33.1918 94.6897C37.0511 96.7766 40.2648 99.5173 42.2459 102.422C44.1686 105.216 44.6722 107.806 43.6678 109.707C42.7718 111.401 40.7072 112.375 37.8218 112.475L37.6104 112.486L37.0121 112.492L37.0038 112.495ZM21.7643 91.6847C18.8093 91.7376 16.6974 92.6808 15.7931 94.3837C14.9027 96.0476 15.1949 98.3292 16.7141 100.769L17.0369 101.279L17.1371 101.421L17.343 101.721C19.2545 104.49 22.3625 107.052 26.0326 109.039C29.6164 110.978 33.3393 112.075 36.5586 112.228L36.8396 112.239L37.4156 112.233L37.6298 112.222C40.4457 112.133 42.463 111.184 43.3422 109.531C44.3161 107.689 43.8236 105.163 41.9482 102.436C40.0172 99.6036 36.8702 96.9185 33.0889 94.8762C29.4939 92.9368 25.771 91.8099 22.5573 91.6875L21.7643 91.6819V91.6847Z" fill="#CFD3D5"/>
<path d="M36.8406 112.239L36.5596 112.228C33.3403 112.075 29.6174 110.978 26.0336 109.039C22.3635 107.052 19.2555 104.49 17.344 101.721L17.1381 101.421L17.0379 101.279L16.7151 100.769C15.1931 98.3292 14.9038 96.0448 15.7942 94.3837C16.6985 92.6808 18.8131 91.7376 21.7653 91.6847L22.5583 91.6903C25.772 91.8127 29.495 92.9396 33.0899 94.8789C36.8713 96.9213 40.0182 99.6063 41.9492 102.439C43.8246 105.166 44.3171 107.692 43.3432 109.534C42.464 111.187 40.4467 112.136 37.6309 112.225L37.4166 112.236L36.8406 112.241V112.239ZM21.9406 91.9379C19.0608 91.9852 16.9962 92.9006 16.1141 94.5645C15.246 96.1867 15.5493 98.3932 17.024 100.789L17.3356 101.281L17.4358 101.418L17.6334 101.71C19.5505 104.384 22.5416 106.916 26.1254 108.864C29.6257 110.75 33.2596 111.83 36.3982 111.977L36.6737 111.988L37.2302 111.977L37.4361 111.972C40.1879 111.894 42.1635 110.967 43.0177 109.356C43.9665 107.564 43.4824 105.118 41.6571 102.45C39.7678 99.687 36.6904 97.0604 32.9953 95.0598C29.4894 93.1677 25.8555 92.0659 22.7169 91.9462L21.9378 91.9407L21.9406 91.9379Z" fill="#CFD2D4"/>
<path d="M36.6756 111.985L36.4002 111.974C33.2588 111.824 29.6277 110.745 26.1273 108.861C22.5435 106.913 19.5524 104.381 17.6353 101.707L17.4377 101.415L17.3376 101.279L17.0259 100.786C15.5484 98.3932 15.2479 96.1839 16.1161 94.5618C16.9953 92.9006 19.0599 91.9824 21.9425 91.9351L22.7216 91.9407C25.863 92.0631 29.4941 93.165 33 95.0542C36.6951 97.0548 39.7725 99.6815 41.6618 102.444C43.4871 105.113 43.9712 107.559 43.0224 109.351C42.171 110.959 40.1954 111.885 37.4408 111.966L37.2349 111.972L36.6784 111.983L36.6756 111.985ZM22.1178 92.1911C19.3047 92.2384 17.2875 93.1232 16.4305 94.7398C15.5874 96.3119 15.8907 98.4683 17.332 100.797L17.6381 101.279L17.7327 101.412L17.9247 101.699C19.7945 104.303 22.7216 106.777 26.2219 108.672C29.6332 110.522 33.1753 111.568 36.2332 111.718L36.5087 111.741L37.0485 111.73L37.246 111.718C39.9394 111.646 41.8621 110.747 42.6941 109.181C43.6151 107.445 43.142 105.06 41.3696 102.472C39.5193 99.7677 36.5142 97.1995 32.897 95.2462C29.4774 93.4043 25.9409 92.3274 22.8746 92.2078L22.1178 92.1967V92.1911Z" fill="#CED1D3"/>
<path d="M36.5112 111.738L36.2357 111.716C33.175 111.565 29.6329 110.519 26.2244 108.669C22.7241 106.774 19.7942 104.3 17.9271 101.696L17.7352 101.409L17.6406 101.276L17.3345 100.794C15.8932 98.4628 15.5927 96.3092 16.433 94.7371C17.29 93.1233 19.3072 92.2384 22.1203 92.1884L22.8771 92.1995C25.9434 92.3219 29.4799 93.3959 32.8995 95.2379C36.5167 97.1912 39.5246 99.7594 41.3721 102.464C43.1445 105.054 43.6148 107.436 42.6966 109.172C41.8646 110.739 39.9419 111.635 37.2485 111.71L37.051 111.721L36.5112 111.732V111.738ZM22.3012 92.4471C19.5577 92.4638 17.5877 93.3459 16.7557 94.9152C15.9405 96.4455 16.2326 98.5435 17.6406 100.814L17.9383 101.281L18.0329 101.407L18.2249 101.682C20.0362 104.239 22.8994 106.638 26.3218 108.485C29.6468 110.285 33.0999 111.307 36.0854 111.465L36.3498 111.476L36.8701 111.471L37.0621 111.465C39.6943 111.393 41.5724 110.522 42.3766 109.003C43.2725 107.319 42.8134 105.004 41.0855 102.483C39.2853 99.8401 36.3414 97.3359 32.8077 95.4244C29.4771 93.6324 26.0241 92.5779 23.0385 92.4527L22.3039 92.4416L22.3012 92.4471Z" fill="#CED1D3"/>
<path d="M36.3485 111.476L36.0841 111.465C33.0985 111.307 29.6455 110.283 26.3205 108.485C22.9008 106.638 20.0349 104.239 18.2235 101.682L18.0316 101.407L17.9369 101.281L17.6392 100.814C16.2313 98.5434 15.9391 96.4454 16.7544 94.9151C17.5864 93.3485 19.5563 92.4637 22.2998 92.447L23.0344 92.4582C26.02 92.5806 29.473 93.6351 32.8036 95.4298C36.3345 97.3414 39.2784 99.8484 41.0814 102.489C42.8093 105.01 43.2684 107.325 42.3725 109.008C41.5683 110.527 39.6874 111.396 37.058 111.471L36.866 111.476L36.3457 111.482L36.3485 111.476ZM22.4807 92.7058C19.7984 92.7364 17.8896 93.5656 17.0772 95.0904C16.2842 96.5762 16.5735 98.6157 17.9509 100.825L18.243 101.281L18.3321 101.404L18.5129 101.674C20.2826 104.156 23.0845 106.501 26.4151 108.301C29.6567 110.054 33.0123 111.056 35.92 111.215L36.1787 111.226L36.6823 111.22L36.8688 111.215C39.4342 111.151 41.2678 110.31 42.0525 108.83C42.9206 107.2 42.4699 104.949 40.7976 102.508C39.0335 99.929 36.1648 97.4777 32.7118 95.619C29.4674 93.8689 26.1035 92.8338 23.1958 92.7141L22.4807 92.7086V92.7058Z" fill="#CBCED1"/>
<path d="M36.1776 111.223L35.9189 111.212C33.0112 111.054 29.6556 110.052 26.414 108.299C23.0834 106.499 20.2815 104.153 18.5118 101.671L18.331 101.401L18.2419 101.279L17.9498 100.822C16.5725 98.616 16.2831 96.5764 17.0761 95.0878C17.8858 93.563 19.7973 92.7366 22.4796 92.7032L23.1947 92.7088C26.1024 92.8312 29.4636 93.8635 32.7107 95.6137C36.1637 97.4724 39.0324 99.9237 40.7965 102.503C42.4688 104.943 42.9195 107.194 42.0514 108.825C41.2668 110.302 39.4359 111.145 36.8677 111.209L36.6813 111.215L36.1776 111.22V111.223ZM22.6577 92.9537C20.0478 92.9898 18.1835 93.7856 17.3989 95.2631C16.6253 96.71 16.9119 98.6939 18.2586 100.839L18.5397 101.279L18.6287 101.401L18.8012 101.66C20.5013 104.095 23.2559 106.36 26.5058 108.115C29.6611 109.821 32.9277 110.8 35.7631 110.953L36.0135 110.967L36.5004 110.962L36.6757 110.956C39.1799 110.898 40.969 110.088 41.7314 108.647C42.5662 107.069 42.1265 104.899 40.5016 102.52C38.782 100.004 35.9801 97.6198 32.6105 95.8001C29.4497 94.0889 26.1831 93.09 23.3505 92.9676L22.6549 92.9509L22.6577 92.9537Z" fill="#CBCED0"/>
<path d="M36.0126 110.97L35.7621 110.956C32.9268 110.803 29.663 109.823 26.5049 108.118C23.255 106.365 20.5004 104.097 18.8003 101.662L18.6278 101.404L18.5387 101.281L18.2577 100.842C16.9138 98.6964 16.6272 96.7125 17.3979 95.2656C18.1826 93.7881 20.0468 92.9951 22.6568 92.9562L23.3524 92.9729C26.1849 93.0953 29.4515 94.0942 32.6124 95.8054C35.9792 97.6251 38.7811 100.01 40.5034 102.525C42.1284 104.904 42.568 107.074 41.7333 108.652C40.9709 110.093 39.179 110.903 36.6776 110.961L36.5023 110.967L36.0153 110.973L36.0126 110.97ZM22.8376 93.2094C20.2973 93.24 18.4803 94.0107 17.7179 95.4437C16.9722 96.8377 17.2532 98.7632 18.5693 100.856L18.8392 101.281L18.9227 101.404L19.098 101.646C20.7619 104.019 23.4359 106.226 26.6023 107.937C29.6658 109.592 32.8433 110.547 35.598 110.703L35.8428 110.717L36.3131 110.711L36.4828 110.705C38.9286 110.658 40.6648 109.871 41.405 108.477C42.2119 106.952 41.7862 104.846 40.2085 102.547C38.5362 100.09 35.8039 97.7643 32.515 95.9863C29.4404 94.3307 26.2656 93.3485 23.5138 93.2205L22.8349 93.2094H22.8376Z" fill="#C8CCCF"/>
<path d="M35.8449 110.714L35.6 110.7C32.8482 110.544 29.6706 109.593 26.6044 107.934C23.4379 106.226 20.764 104.017 19.1001 101.643L18.9248 101.401L18.8413 101.279L18.5714 100.853C17.2525 98.7606 16.9743 96.8351 17.72 95.4411C18.4824 94.0054 20.2993 93.2374 22.8397 93.2068L23.5186 93.2179C26.2705 93.3459 29.4452 94.3253 32.5199 95.9837C35.8087 97.7617 38.5411 100.088 40.2133 102.545C41.791 104.843 42.2167 106.952 41.4098 108.474C40.6669 109.868 38.9306 110.656 36.4876 110.703L36.3179 110.708L35.8477 110.714H35.8449ZM23.015 93.4628C20.5469 93.4628 18.7829 94.2307 18.0427 95.6164C17.3221 96.9631 17.592 98.8357 18.8803 100.864L19.1446 101.279L19.2281 101.39L19.3922 101.632C21.0116 103.936 23.6188 106.078 26.699 107.742C29.679 109.356 32.7675 110.283 35.447 110.441L35.6807 110.458H36.1315L36.3012 110.447C38.6802 110.408 40.3719 109.648 41.087 108.296C41.8661 106.83 41.4543 104.787 39.9295 102.556C38.299 100.168 35.6306 97.898 32.4252 96.1645C29.4369 94.5507 26.3511 93.6019 23.6772 93.4711L23.015 93.46V93.4628Z" fill="#C8CCCF"/>
<path d="M36.1301 110.461H35.6793L35.4456 110.444C32.7661 110.285 29.6775 109.359 26.6975 107.745C23.6173 106.081 21.0102 103.938 19.3908 101.635L19.2266 101.393L19.1432 101.281L18.8788 100.867C17.5906 98.8383 17.3207 96.9657 18.0413 95.6189C18.7814 94.2333 20.5455 93.4653 23.0136 93.4653L23.6758 93.4765C26.3497 93.6072 29.4355 94.5561 32.4238 96.1699C35.6264 97.9033 38.2948 100.174 39.9281 102.561C41.4529 104.793 41.8647 106.835 41.0856 108.301C40.3705 109.654 38.676 110.416 36.2998 110.452L36.1301 110.463V110.461ZM23.2 93.7158C20.7959 93.7158 19.0764 94.4503 18.3641 95.7915C17.6657 97.0992 17.9161 98.9217 19.1849 100.881L19.4437 101.278L19.5216 101.384L19.6857 101.623C21.2384 103.874 23.7954 105.945 26.7921 107.564C29.6887 109.128 32.6854 110.032 35.2814 110.185L35.5151 110.202H35.9492H36.1078C38.4228 110.163 40.07 109.434 40.7628 108.126C41.5141 106.707 41.1134 104.737 39.6359 102.578C38.0472 100.252 35.4511 98.0452 32.3348 96.3563C29.4271 94.7898 26.4304 93.8688 23.8372 93.7352L23.2 93.7185V93.7158Z" fill="#C7C9CC"/>
<path d="M35.9497 110.202H35.5156L35.2819 110.185C32.6859 110.032 29.6892 109.128 26.7926 107.564C23.7959 105.945 21.2361 103.872 19.6862 101.624L19.5221 101.384L19.4442 101.279L19.1854 100.881C17.9166 98.9219 17.6662 97.0994 18.3646 95.7917C19.0741 94.4505 20.7964 93.7159 23.2005 93.7159L23.8377 93.7326C26.4309 93.8662 29.4304 94.7872 32.3353 96.3537C35.4544 98.0427 38.0477 100.249 39.6364 102.575C41.1139 104.734 41.5146 106.707 40.7633 108.123C40.0705 109.431 38.4233 110.16 36.1083 110.199H35.9497V110.202ZM23.3535 93.9719C21.0274 93.9719 19.3718 94.6815 18.6873 95.9697C18.014 97.2302 18.2867 98.9776 19.4915 100.895L19.7447 101.281L19.8226 101.382L19.9756 101.607C21.5338 103.763 23.974 105.8 26.8872 107.375C29.6975 108.897 32.6024 109.773 35.1205 109.938L35.3487 109.949H35.7605H35.9135C38.1645 109.921 39.7672 109.211 40.435 107.954C41.1612 106.588 40.7689 104.679 39.3387 102.6C37.7972 100.335 35.2652 98.1846 32.2323 96.5429C29.4109 95.0237 26.5088 94.1194 23.9879 93.9914L23.3702 93.9747C23.3646 93.9747 23.3535 93.9747 23.348 93.9747L23.3535 93.9719Z" fill="#C7C9CE"/>
<path d="M35.3512 109.949L35.123 109.938C32.6021 109.773 29.7 108.894 26.8898 107.375C23.9765 105.803 21.5363 103.763 19.9781 101.607L19.8251 101.382L19.7472 101.281L19.494 100.895C18.2864 98.9776 18.0165 97.2302 18.6899 95.9697C19.3744 94.6842 21.0299 93.9719 23.356 93.9719C23.3616 93.9719 23.37 93.9719 23.3783 93.9719L23.996 93.9886C26.5169 94.1166 29.419 95.0209 32.2404 96.5401C35.2761 98.1818 37.8053 100.333 39.3468 102.598C40.7742 104.679 41.1665 106.585 40.4431 107.951C39.7753 109.211 38.1698 109.921 35.9216 109.946H35.7686H35.3568L35.3512 109.949ZM23.5536 94.2307C21.2887 94.2529 19.6776 94.8929 19.0099 96.1422C18.3588 97.3582 18.612 99.061 19.7973 100.909L20.0477 101.279L20.1228 101.379L20.2703 101.596C21.7589 103.711 24.1574 105.664 26.9844 107.194C29.7056 108.666 32.5187 109.523 34.9644 109.682L35.1815 109.698L35.5766 109.693H35.7268C37.9194 109.671 39.4692 108.994 40.1176 107.773C40.8159 106.46 40.4348 104.632 39.0574 102.614C37.5549 100.416 35.0952 98.3237 32.143 96.7266C29.4107 95.2491 26.5976 94.3698 24.1518 94.2418L23.5536 94.2307V94.2307Z" fill="#C4C8CC"/>
<path d="M35.1811 109.698L34.9641 109.682C32.5183 109.523 29.7052 108.666 26.984 107.194C24.157 105.664 21.7585 103.711 20.2699 101.596L20.1225 101.379L20.0473 101.279L19.7969 100.909C18.6116 99.0611 18.3584 97.361 19.0095 96.1423C19.6773 94.8929 21.2883 94.2502 23.5532 94.2307L24.1515 94.2418C26.5972 94.3698 29.4103 95.2491 32.1427 96.7266C35.0976 98.3265 37.5545 100.419 39.0571 102.614C40.4344 104.632 40.8156 106.46 40.1172 107.773C39.4689 108.997 37.919 109.673 35.7265 109.693H35.5762L35.1811 109.698V109.698ZM23.6784 94.4867C21.5081 94.4867 19.9666 95.1267 19.3322 96.3176C18.7034 97.4918 18.9677 99.1278 20.1113 100.92L20.3451 101.279L20.4258 101.379L20.5677 101.579C22.0396 103.602 24.3379 105.519 27.0758 107.008C29.7164 108.432 32.446 109.264 34.8055 109.42L35.0169 109.437H35.5373C37.6658 109.426 39.1767 108.769 39.8 107.595C40.465 106.34 40.0949 104.573 38.7677 102.634C37.3125 100.488 34.9168 98.4656 32.0481 96.9074C29.3992 95.48 26.6779 94.6258 24.3128 94.4978L23.7369 94.4839C23.7202 94.4839 23.7035 94.4839 23.684 94.4839L23.6784 94.4867Z" fill="#C4C7CC"/>
<path d="M35.5377 109.44H35.0174L34.8059 109.423C32.4436 109.264 29.7168 108.432 27.0762 107.011C24.3383 105.522 22.04 103.605 20.5681 101.582L20.4262 101.382L20.3455 101.281L20.1117 100.923C18.9682 99.1306 18.7038 97.4946 19.3327 96.3204C19.9671 95.1267 21.5085 94.4895 23.6789 94.4895C23.7011 94.4895 23.715 94.4895 23.7317 94.4895L24.3077 94.5034C26.6756 94.6314 29.3968 95.4828 32.0429 96.913C34.9144 98.4712 37.3073 100.494 38.7625 102.639C40.0898 104.576 40.4626 106.346 39.7948 107.6C39.1716 108.775 37.6607 109.434 35.5321 109.442L35.5377 109.44ZM23.7874 94.7344C21.7228 94.7344 20.2564 95.3604 19.6526 96.4929C19.0488 97.6253 19.3243 99.1863 20.4206 100.934L20.6543 101.279C22.0678 103.343 24.3828 105.313 27.1792 106.821C29.9422 108.316 32.8025 109.156 35.2177 109.184H35.3568C37.4158 109.178 38.8822 108.555 39.4804 107.42C40.1204 106.212 39.7614 104.517 38.4787 102.648C37.0652 100.572 34.7447 98.602 31.9567 97.0939C29.1881 95.5997 26.3333 94.7594 23.9181 94.7371C23.8736 94.7316 23.8319 94.7316 23.7902 94.7316L23.7874 94.7344Z" fill="#C2C6CB"/>
<path d="M35.3515 109.184H35.2124C32.7972 109.156 29.9369 108.315 27.1739 106.821C24.3775 105.313 22.0625 103.343 20.649 101.279L20.4153 100.934C19.319 99.1862 19.0436 97.6224 19.6474 96.4928C20.2512 95.3603 21.7175 94.7343 23.7821 94.7343C23.8238 94.7343 23.8656 94.7342 23.9101 94.7398C26.3225 94.7621 29.1773 95.6024 31.9486 97.0966C34.7394 98.6046 37.0572 100.575 38.4707 102.65C39.7534 104.52 40.1123 106.215 39.4724 107.422C38.8741 108.555 37.4078 109.181 35.3488 109.186L35.3515 109.184Z" fill="#C0C4C7"/>
<path d="M28.7577 24.9753C18.4014 18.9986 9.94554 23.8095 9.91215 35.7184C9.87598 47.6217 32.4973 74.5921 32.4973 74.5921C32.4973 74.5921 39.6928 71.4729 43.1569 68.6654C45.8476 66.4784 47.4781 62.6247 47.4864 57.4187C47.5226 45.5098 39.1196 30.952 28.7577 24.9753V24.9753Z" fill="#31519C"/>
<path d="M28.6378 68.1562C18.2759 62.1794 9.8785 47.6216 9.91467 35.7183C9.94528 23.8094 18.4039 18.9957 28.7602 24.9752C39.1221 30.9519 47.5279 45.5098 47.4889 57.4187C47.4583 69.322 38.9997 74.1468 28.6378 68.1562V68.1562ZM28.7714 22.1232C17.0433 15.3507 7.46889 20.8043 7.43272 34.2881C7.39655 47.7635 16.907 64.2385 28.6295 70.9998C40.3631 77.7723 49.9319 72.3187 49.9737 58.8488C50.0099 45.3706 40.5022 28.8985 28.7714 22.126V22.1232Z" fill="#B08638"/>
<path d="M73.9528 51.4142L73.8833 50.3012L73.836 49.7336L73.7247 48.6262L73.6607 48.1031L73.6328 47.8694L73.5549 47.324L73.3796 46.1693L73.2405 45.3846L73.0235 44.2577L72.9539 43.8877L72.8315 43.3618L72.6562 42.6105L72.4141 41.62L72.2166 40.8798L72.1442 40.5988L71.8799 39.6945L71.7519 39.2549C71.5933 38.7262 71.4236 38.2003 71.2483 37.6717L71.2316 37.6244C70.9672 36.8314 70.6751 36.03 70.3746 35.237L70.28 34.9615L70.1464 34.6388C69.8821 33.9654 69.6122 33.2949 69.3256 32.6271L69.2254 32.3878L69.1948 32.3238C68.8776 31.5781 68.5382 30.8407 68.1876 30.1089L68.0874 29.8919L67.9065 29.5358C67.62 28.9598 67.3278 28.381 67.0273 27.8106L66.8464 27.4573L66.7518 27.282C66.3651 26.5669 65.9727 25.8518 65.5665 25.1478L65.5025 25.0421L65.3272 24.7499C64.9599 24.135 64.5899 23.5257 64.2142 22.9302L64.0167 22.613L63.8748 22.4015C63.4045 21.6698 62.9232 20.9463 62.4251 20.2284L62.3555 20.1283L62.1969 19.9112C61.6766 19.1739 61.1424 18.456 60.6026 17.7465L60.444 17.5406L60.3494 17.4182L59.8346 16.7782L59.1724 15.9574L58.6326 15.3174L58.1123 14.7025L57.9843 14.5606C57.5391 14.057 57.0967 13.5645 56.6404 13.0775L56.5597 12.9857C56.0839 12.4737 55.5914 11.9757 55.0989 11.4888L54.9765 11.3608L54.1445 10.5622L53.8774 10.3118L52.6114 9.16262L52.2691 8.87047L51.3203 8.0719L50.8445 7.69071L49.9959 7.02292L49.4811 6.64172L48.6353 6.0268L48.1261 5.66508L47.1995 5.05016L46.7599 4.76356L45.3826 3.92883L44.0581 3.20261L43.7131 3.02731L42.5417 2.45691L42.3942 2.38735L41.3619 1.93102L41.1922 1.87259L39.9262 1.38566L39.6145 1.2688C39.0914 1.08794 38.5767 0.934905 38.0675 0.793L37.9812 0.765175L37.1715 0.567621L36.7514 0.467452L35.4603 0.225379H35.4492L35.4019 0.219814L34.2444 0.0806912L33.8632 0.0528666L33.3234 0.0111298L33.0368 0.00556491L32.6695 0L31.8237 0.0111298L31.5315 0.0222596L31.4202 0.0278246L30.4603 0.122428L30.2377 0.150253L29.6867 0.230944L29.3862 0.29494L29.0996 0.353372L28.1536 0.581533L28.0896 0.598228L28.0729 0.603793L27.1185 0.926558L26.8598 1.02116L26.5593 1.13802L26.1057 1.34393L25.9082 1.43018L25.1152 1.85033L24.9621 1.93381L8.35645 11.5834L9.30248 11.0909L9.50003 10.9935L10.2624 10.6763L10.5156 10.5761L11.4839 10.2533L11.5424 10.2394L12.494 10.0001L12.7805 9.94728L13.6264 9.80259L13.8546 9.77198L14.9258 9.68016L15.218 9.66625L16.0638 9.65512L16.4283 9.66068L17.2547 9.70799L17.6359 9.73303L18.7934 9.87215L18.8463 9.88328L20.1429 10.1226L20.5547 10.2283L21.4562 10.4453C21.9626 10.5872 22.4774 10.7431 23.0033 10.9239L23.3205 11.0408L24.5865 11.5277L25.7885 12.048L25.9304 12.112L27.0991 12.688L27.4441 12.8689L28.7685 13.5895L30.1458 14.4215L30.5855 14.7136L31.512 15.3285L32.0212 15.6875L32.8671 16.2968L33.3818 16.6836L34.2305 17.3458L34.7063 17.7326L35.6495 18.5256L36.0001 18.8261L37.2661 19.9697L37.536 20.2229L38.4849 21.1411C38.9774 21.6336 39.4643 22.1289 39.9457 22.6381L40.0263 22.7271C40.4827 23.214 40.9306 23.7065 41.3703 24.2157L42.0186 24.967L42.5584 25.6069L43.2206 26.4222L43.7354 27.0705L43.983 27.4044C44.5284 28.1139 45.0626 28.8346 45.5829 29.5691L45.8111 29.8808C46.3063 30.5959 46.7905 31.3221 47.2607 32.0567L47.6002 32.5798C47.9814 33.1836 48.3515 33.7929 48.7132 34.4078L48.9469 34.8002C49.3587 35.5069 49.751 36.2192 50.1378 36.9399L50.4132 37.463C50.7138 38.0389 51.0059 38.6121 51.2869 39.1881L51.568 39.7641C51.9186 40.4959 52.258 41.2304 52.5808 41.9733L52.7088 42.2738C52.9954 42.9416 53.2708 43.6122 53.5352 44.2856L53.7633 44.8838C54.0638 45.6823 54.356 46.4781 54.6259 47.2767C54.8067 47.8165 54.9765 48.3619 55.1406 48.9016L55.2714 49.3468L55.6109 50.5322L55.8029 51.2751L56.0533 52.2601L56.223 53.0169L56.4122 53.9184L56.6293 55.037L56.7684 55.8216L56.9437 56.9791L57.055 57.7471L57.1134 58.2813L57.2247 59.3832L57.272 59.9536L57.3416 61.061L57.3638 61.5646C57.3861 62.0933 57.4028 62.6191 57.3944 63.1423C57.3722 70.8608 52.8145 76.1836 49.0081 79.6895L28.5376 101.963L46.5262 90.9418L67.7591 70.3599C71.5655 66.854 73.9806 61.214 74.0001 53.4899C74.0001 52.9668 73.989 52.4354 73.9695 51.9178L73.9473 51.4142H73.9528Z" fill="#B08638"/>
<path d="M28.6261 70.9998C16.9036 64.2385 7.39314 47.7635 7.42931 34.2881C7.46548 20.8071 17.0399 15.3507 28.768 22.1232C40.496 28.8957 50.0064 45.3679 49.9703 58.8461C49.9285 72.3159 40.3597 77.7695 28.6261 70.997V70.9998ZM28.7902 13.5839C12.9469 4.43515 0.047457 11.7836 0.000155219 30.0003C-0.0221044 37.7217 2.35133 46.1302 6.12712 54.0157C11.8506 65.9664 27.7051 100.163 28.5426 101.963C29.3857 101.125 45.3876 85.3183 51.1528 80.0094C54.9648 76.5035 57.38 70.8635 57.4022 63.145C57.4551 44.9254 44.6474 22.7381 28.793 13.5866L28.7902 13.5839Z" fill="#FCB63B"/>
<path d="M24.8935 28.8346C14.5372 22.8634 6.08692 27.6771 6.04797 39.586C6.0118 51.4838 14.4148 66.0443 24.7711 72.0238C35.133 78.0006 43.5916 73.1813 43.625 61.278C43.6584 49.3691 35.261 34.8196 24.8908 28.8346H24.8935Z" fill="#4A79BB"/>
<path d="M15.378 42.889C13.6251 41.8734 12.1893 42.6886 12.1865 44.7059C12.1865 46.7176 13.6056 49.1857 15.3585 50.1957C17.1087 51.2085 18.5444 50.3932 18.55 48.3787C18.5556 46.3615 17.1309 43.899 15.378 42.889Z" fill="#FEFEFE"/>
<path d="M24.0461 48.9294C22.2932 47.9222 20.863 48.7347 20.8574 50.752C20.8519 52.7692 22.2709 55.2261 24.0239 56.2417C25.774 57.2546 27.2098 56.4365 27.2153 54.4192C27.2209 52.4075 25.7963 49.945 24.0434 48.9294H24.0461Z" fill="#FEFEFE"/>
<path d="M32.7141 54.9814C30.9612 53.9686 29.531 54.7811 29.5255 56.7984C29.5143 58.8101 30.9389 61.2781 32.6975 62.2909C34.4504 63.301 35.8806 62.4857 35.8861 60.474C35.8917 58.4567 34.4671 55.9942 32.7141 54.9814Z" fill="#FEFEFE"/>
</svg>
