<svg width="386" height="487" viewBox="0 0 386 487" fill="none" xmlns="http://www.w3.org/2000/svg">
<path fill-rule="evenodd" clip-rule="evenodd" d="M65.3444 351.591L124.831 319.578C135.787 313.682 151.893 313.112 163.101 319.842L337.65 424.655C348.859 431.385 349.808 445.048 338.816 450.904L279.938 482.275C268.945 488.132 252.905 488.695 241.669 482.012L66.5101 377.841C55.2738 371.158 54.3872 357.488 65.3444 351.592V351.591Z" fill="#C0C4C7"/>
<path d="M211.089 259.872L207.025 257.497L192.729 4.86877L196.793 7.24572L211.089 259.872Z" fill="#31519C"/>
<path d="M211.088 259.872L196.792 7.24577L199.762 5.54965C200.701 5.00803 201.458 5.44937 201.458 6.52734L215.758 255.256C215.758 256.323 214.997 257.641 214.058 258.172L211.088 259.872V259.872Z" fill="#4A79BB"/>
<path d="M206.819 262.317L202.756 259.94L188.466 7.31177L192.523 9.68871L206.819 262.317Z" fill="#BF465A"/>
<path d="M206.819 262.317L192.523 9.68864L196.792 7.24573L211.088 259.872L206.819 262.317Z" fill="#31519C"/>
<path d="M92.7887 311.584C84.7699 316.174 78.2723 312.442 78.2822 303.248L78.4016 91.567C78.4115 82.3692 84.9176 71.1917 92.9417 66.5975L192.524 9.68866L206.82 262.317L92.7887 311.585V311.584Z" fill="#4A79BB"/>
<path d="M230.562 26.4995L234.653 24.17L233.916 270.163L229.824 272.487L230.562 26.4995Z" fill="#31519C"/>
<path d="M229.824 272.487L210.053 261.08L196.347 7.43719L230.562 26.4996L229.824 272.487Z" fill="#31519C"/>
<path d="M114.164 319.586L114.192 320.296V320.28L114.164 319.586ZM115.942 325.425L115.716 325.133L115.956 325.446L115.941 325.426L115.942 325.425ZM115.396 324.669L115.213 324.333L115.405 324.683L115.395 324.668L115.396 324.669ZM114.922 323.734L114.797 323.409L114.926 323.748L114.922 323.734ZM114.499 322.446L114.48 322.363L114.499 322.446ZM114.269 321.195L114.313 321.501V321.486L114.269 321.195ZM116.565 326.057L116.305 325.808L116.578 326.072L116.565 326.057ZM85.5488 305.457L85.6497 306.056L85.6689 306.186L85.7355 306.412L86.0139 307.326L86.0766 307.527L86.1577 307.7L86.4407 308.279L86.5601 308.528L86.6327 308.63L86.9335 309.07L87.1117 309.324L87.1783 309.397L87.5095 309.741L87.7351 309.976L87.8024 310.017L88.1949 310.315L88.4489 310.507L88.5683 310.578L117.328 326.609L116.968 326.361C118.971 327.773 121.873 327.734 125.112 325.876L225.652 268.425L225.802 27.5148L197.038 11.4799L96.4981 68.931L95.4201 69.6118L95.0711 69.8651L94.4576 70.3164L94.3909 70.379C93.9456 70.7333 93.5036 71.1159 93.0774 71.5236L92.9712 71.6186L92.6843 71.9116L92.0041 72.6201L91.822 72.8114L91.568 73.1089L91.0356 73.7403L90.8252 73.9943L90.6048 74.2911L90.1444 74.9093L89.9247 75.2062L89.7334 75.4931L89.3065 76.1502L89.0908 76.4801L88.9318 76.7492L88.5109 77.4815L88.3005 77.8411L88.1903 78.0667L87.7245 79.0048L87.5424 79.3788L87.491 79.4996C87.2469 80.0405 87.0213 80.5914 86.8201 81.1376L86.7864 81.2188L86.6294 81.7024L86.3602 82.5323L86.1927 83.1405L85.9862 83.9408L85.9486 84.1077L85.8998 84.4006L85.6854 85.6752L85.6266 86.1548C85.5699 86.701 85.5316 87.2459 85.5316 87.7829L85.4023 303.546V303.768L85.4307 304.245L85.4723 304.91L85.5495 305.457H85.5488Z" fill="#FEFEFE"/>
<path d="M231.405 271.706L227.347 269.325L227.5 24.3483L231.558 26.7246L231.405 271.706Z" fill="#31519C"/>
<path d="M227.141 274.149L223.079 271.768L223.233 26.787L227.295 29.1719L227.141 274.149Z" fill="#BF465A"/>
<path d="M227.141 274.149L227.294 29.1721L231.559 26.7245L231.405 271.706L227.141 274.149Z" fill="#31519C"/>
<path d="M74.3431 89.1868C74.3431 88.6736 74.3728 88.1564 74.4111 87.6292L74.4487 87.2222C74.4922 86.7538 74.5496 86.2841 74.6215 85.8045L74.6499 85.6224L74.894 84.33L74.9514 84.0991L75.2258 83.0357L75.4402 82.2414L75.8004 81.1443L76.0063 80.5017L76.0538 80.3955C76.3216 79.6639 76.6185 78.9395 76.9391 78.2257L77.007 78.0627L77.2551 77.5647L77.8686 76.329L78.0124 76.0374L78.2895 75.5479L78.8503 74.5808L79.0568 74.2212L79.3437 73.7845L79.9144 72.917L80.1638 72.5343L80.4554 72.1418L81.0676 71.3178L81.3552 70.9293L81.6382 70.5948L82.3468 69.7517L82.6779 69.3578L82.9167 69.1038L83.8265 68.1657L84.2019 67.7772L84.4216 67.5713L84.7574 67.2698L85.7542 66.4076L86.0372 66.1688L86.1705 66.0533L86.9852 65.4635L87.4496 65.1192C87.9194 64.7985 88.393 64.4971 88.8779 64.2239L92.9391 66.5996C92.4555 66.8727 91.9759 67.1795 91.5062 67.5014L91.0418 67.8411L90.0984 68.5457L89.8061 68.7905L88.8152 69.6474L88.4841 69.9542L87.8851 70.544L86.9806 71.4874L86.4047 72.1286L85.7007 72.9724L85.1248 73.6961L84.5166 74.524L83.9703 75.3012L83.4056 76.1634L82.9075 76.9637L82.352 77.9321L81.9259 78.7073L81.3123 79.9482L81.0009 80.6092C80.6803 81.3224 80.3834 82.0507 80.1103 82.779L79.8603 83.5166L79.4968 84.6183L79.2863 85.4139L79.0132 86.4827C78.8971 86.9906 78.7929 87.4986 78.7058 88.0046L78.6827 88.188C78.6108 88.6564 78.5527 89.1301 78.5052 89.6005L78.4716 90.0075C78.4333 90.5346 78.405 91.0518 78.399 91.569L78.2796 301.766C78.2796 302.771 78.2796 303.508 78.2796 303.542C78.2948 304.697 78.4195 305.771 78.6339 306.739C78.7737 307.37 78.9558 307.964 79.1702 308.516C79.3635 308.989 79.574 309.431 79.8128 309.838L80.5411 310.891L81.3704 311.76L82.3184 312.463L82.4721 312.558L78.4089 310.178L78.2572 310.083L77.3132 309.379L76.4832 308.517L75.7556 307.461C75.5108 307.049 75.2951 306.612 75.113 306.14C74.8927 305.587 74.7112 304.994 74.572 304.356C74.3563 303.389 74.2362 302.32 74.2178 301.168V300.87L74.3418 89.1888L74.3431 89.1868Z" fill="#F16136"/>
<path d="M123.645 83.6684L227.164 24.502L196.398 7.43723L92.9401 66.5647L88.8789 64.1831L195.703 3.13458C196.173 2.86146 196.599 2.83705 196.906 3.01847L234.652 24.1412C234.652 24.1412 235.001 24.7211 234.527 24.9849L127.707 86.044L123.645 83.6677V83.6684Z" fill="#95A4CD"/>
<path d="M109.181 107.109L109.215 106.697C109.258 106.227 109.321 105.758 109.393 105.283L109.416 105.097C109.488 104.665 109.57 104.235 109.66 103.799L109.723 103.573L109.992 102.514L110.207 101.713L110.567 100.612L110.777 99.9791L110.82 99.8689C111.088 99.1413 111.385 98.4215 111.711 97.6991L111.774 97.5401L112.022 97.0473L112.636 95.8057L112.784 95.5089L113.062 95.0253L113.618 94.0529L113.824 93.6933L114.116 93.2573L114.681 92.3904L114.93 92.0111L115.222 91.6133L115.835 90.7946L116.122 90.406L116.405 90.0662L117.11 89.2284L117.446 88.8306L117.69 88.5812L118.594 87.6425L118.969 87.2499L119.194 87.0474L119.525 86.7419L120.517 85.8843L120.804 85.6396L120.943 85.5301L121.742 84.9403L122.217 84.5952C122.686 84.2693 123.166 83.9738 123.645 83.6895L127.707 86.071C127.223 86.3488 126.749 86.6516 126.275 86.9768L125.805 87.3166L124.865 88.0211L124.578 88.2599L123.585 89.1222L123.25 89.4237L122.656 90.0227L121.746 90.9628L121.17 91.6093L120.462 92.4531L119.897 93.1709L119.283 93.9995L118.737 94.7759L118.172 95.6428L117.679 96.4331L117.118 97.4056L116.695 98.182L116.078 99.4177L115.767 100.079C115.441 100.797 115.144 101.521 114.876 102.245L114.626 102.992L114.268 104.089L114.048 104.893L113.779 105.953C113.663 106.461 113.559 106.969 113.477 107.477L113.449 107.663C113.377 108.138 113.319 108.603 113.277 109.073L113.237 109.484C113.2 110.007 113.171 110.529 113.171 111.042L113.045 322.727V323.015C113.06 324.173 113.185 325.237 113.4 326.209C113.539 326.842 113.721 327.436 113.936 327.987C114.123 328.46 114.34 328.905 114.578 329.315L115.312 330.367L116.137 331.236L117.084 331.94L117.234 332.032L113.176 329.648L113.023 329.559L112.079 328.854L111.249 327.987L110.521 326.934C110.282 326.525 110.067 326.085 109.879 325.61C109.658 325.06 109.481 324.466 109.338 323.828C109.127 322.861 109.002 321.787 108.983 320.639V320.351L109.113 108.666C109.113 108.152 109.137 107.625 109.179 107.108L109.181 107.109Z" fill="#F16136"/>
<path d="M127.555 331.054C119.536 335.648 113.039 331.922 113.049 322.728L113.174 111.043C113.179 101.844 119.69 90.6671 127.709 86.0729L227.295 29.172L227.142 274.149L127.555 331.054V331.054Z" fill="#4A79BB"/>
<path d="M269.192 242.458L265.599 240.351L265.733 57.5245L269.325 59.627L269.192 242.458Z" fill="#EAEAE9"/>
<path d="M269.19 242.458L269.324 59.6264L271.954 58.1236C272.782 57.6439 273.458 58.0325 273.458 58.9898L273.324 238.362C273.324 239.316 272.649 240.476 271.819 240.949L269.19 242.458V242.458Z" fill="#C0C4C7"/>
<path d="M265.416 244.619L261.822 242.506L261.957 59.6799L265.55 61.7877L265.416 244.619Z" fill="#BF465A"/>
<path d="M265.416 244.619L265.551 61.7877L269.325 59.6271L269.192 242.458L265.416 244.619Z" fill="#95A4CD"/>
<path d="M151.864 305.111L151.032 304.485L150.298 303.724L149.652 302.794L149.085 301.62C148.89 301.131 148.731 300.61 148.605 300.042C148.414 299.185 148.309 298.237 148.291 297.218V296.959L144.697 294.85V295.111C144.716 296.136 144.823 297.073 145.014 297.942C145.137 298.498 145.296 299.028 145.488 299.512L146.058 300.687L146.705 301.621L147.438 302.382L148.272 303.01L148.411 303.086L152.004 305.194L151.864 305.113L151.864 305.111Z" fill="#BD5660"/>
<path d="M161.134 304.332C154.033 308.398 148.284 305.094 148.29 296.959L148.404 143.6C148.409 135.462 154.167 125.568 161.267 121.501L265.549 61.7876L265.415 244.619L161.134 304.332V304.332Z" fill="#C0C4C7"/>
<path d="M286.428 69.8935L290.049 67.8385L289.392 251.555L285.775 253.616L286.428 69.8935Z" fill="#EAEAE9"/>
<path d="M285.776 253.616L268.275 243.521L268.93 59.7953L286.428 69.8935L285.776 253.616Z" fill="#EAEAE9"/>
<path d="M167.265 304.643L167.293 305.269V305.259L167.265 304.643ZM168.836 309.817L168.641 309.558L168.851 309.832L168.836 309.817ZM168.352 309.145L168.195 308.844L168.362 309.16L168.352 309.145V309.145ZM167.935 308.322L167.825 308.035L167.941 308.327L167.935 308.322V308.322ZM167.562 307.182L167.542 307.105L167.562 307.182ZM167.361 306.075L167.398 306.344L167.393 306.329L167.36 306.075H167.361ZM169.393 310.377L169.162 310.156L169.406 310.391L169.393 310.376V310.377ZM154.727 298.908L154.813 299.443L154.833 299.555L154.89 299.756L155.138 300.57L155.191 300.748L155.264 300.892L155.514 301.413L155.618 301.624L155.686 301.719L155.95 302.108L156.107 302.332L156.169 302.394L156.462 302.7L156.658 302.907L156.721 302.956L157.061 303.21L157.29 303.382L157.391 303.44L170.062 310.864L169.742 310.639C171.514 311.89 174.088 311.856 176.957 310.213L282.082 250.018L282.211 70.7986L269.539 63.3722L164.415 123.564L163.457 124.172L163.151 124.392L162.609 124.789L162.546 124.843L161.388 125.863L161.291 125.944L161.037 126.204L160.435 126.827L160.276 126.994L160.05 127.263L159.582 127.823L159.394 128.048L159.198 128.308L158.792 128.859L158.595 129.122L158.426 129.376L158.048 129.956L157.857 130.243L157.718 130.487L157.344 131.139L157.162 131.454L157.061 131.656L156.65 132.485L156.487 132.815L156.443 132.915C156.228 133.4 156.026 133.884 155.849 134.372L155.82 134.439L155.682 134.871L155.438 135.603L155.294 136.136L155.117 136.85L155.074 136.997L155.036 137.257L154.845 138.388L154.792 138.81C154.744 139.297 154.71 139.777 154.71 140.251L154.595 297.222V297.419L154.623 297.84L154.657 298.429L154.729 298.909L154.727 298.908Z" fill="#FEFEFE"/>
<path d="M287.179 252.926L283.581 250.818L283.716 67.9922L287.31 70.1L287.179 252.926Z" fill="#EAEAE9"/>
<path d="M283.4 255.092L279.807 252.984L279.941 70.1528L283.534 72.2559L283.4 255.092Z" fill="#BF465A"/>
<path d="M283.4 255.092L283.534 72.2559L287.311 70.1L287.18 252.926L283.4 255.092Z" fill="#95A4CD"/>
<path d="M169.849 315.585L169.016 314.958L168.282 314.196L167.635 313.258L167.071 312.087C166.874 311.605 166.715 311.075 166.591 310.512C166.4 309.65 166.294 308.706 166.278 307.686V307.426L162.682 305.324L162.687 305.582C162.701 306.602 162.806 307.545 162.998 308.408C163.123 308.971 163.281 309.492 163.477 309.983L164.042 311.154L164.688 312.084L165.422 312.849L166.256 313.472L166.395 313.558L169.987 315.662L169.849 315.585H169.849Z" fill="#BD5660"/>
<path d="M144.808 141.498C144.808 141.041 144.836 140.577 144.87 140.118L144.904 139.754L145.056 138.503L145.08 138.34L145.296 137.189L145.349 136.994L145.588 136.055L145.779 135.346L146.096 134.374L146.283 133.804L146.32 133.713C146.555 133.07 146.819 132.424 147.106 131.791L147.164 131.652L147.384 131.207L147.93 130.115L148.056 129.852L148.304 129.42L148.798 128.562L148.98 128.246L149.234 127.863L149.737 127.096L149.957 126.751L150.221 126.406L150.757 125.679L151.016 125.338L151.265 125.037L151.894 124.293L152.185 123.944L152.4 123.724L153.205 122.89L153.536 122.54L153.732 122.364L154.024 122.095L154.907 121.333L155.159 121.122L155.279 121.022L155.998 120.495L156.405 120.198L157.67 119.392L161.266 121.501L160.002 122.302L159.585 122.603L158.751 123.226L158.494 123.44L157.616 124.198L157.325 124.471L156.797 124.993L155.993 125.827L155.485 126.397L154.858 127.144L154.35 127.787L153.814 128.514L153.334 129.2L152.831 129.966L152.391 130.675L151.897 131.532L151.524 132.217L150.977 133.314L150.699 133.9C150.416 134.531 150.147 135.174 149.914 135.82L149.688 136.477L149.372 137.449L149.18 138.153L148.94 139.102C148.84 139.543 148.749 139.997 148.673 140.444L148.649 140.605L148.495 141.862L148.463 142.226C148.428 142.686 148.404 143.145 148.404 143.6L148.29 296.959L144.696 294.85L144.806 141.499L144.808 141.498Z" fill="#EAEAE9"/>
<path d="M175.66 129.836L279.94 70.1244L283.418 68.1307L268.978 59.7953L265.55 61.7592L161.267 121.472L157.67 119.369L261.956 59.6567L265.726 57.4961L268.361 55.9854L269.425 55.8851L272.543 57.7106L272.549 57.7066L290.049 67.8108L289.972 67.8484L289.943 68.5628L287.309 70.0709L283.533 72.2322L179.252 131.944L175.66 129.836Z" fill="#EAEAE9"/>
<path d="M162.853 150.586L162.887 150.222L163.041 148.971L163.064 148.808L163.28 147.663L163.333 147.463L163.572 146.519L163.763 145.814L164.08 144.836L164.266 144.277L164.305 144.18C164.539 143.533 164.807 142.897 165.091 142.26L165.148 142.126L165.368 141.681L165.914 140.584L166.044 140.324L166.288 139.898L166.782 139.035L166.968 138.721L167.218 138.337L167.721 137.566L167.946 137.226L168.206 136.881L168.746 136.153L169 135.803L169.25 135.511L169.878 134.764L170.169 134.414L170.385 134.194L171.189 133.36L171.515 133.015L171.716 132.837L172.009 132.564L172.891 131.803L173.145 131.593L173.264 131.492L173.973 130.97L174.396 130.668L175.66 129.867L179.253 131.971L177.987 132.777L177.57 133.078L176.738 133.7L176.484 133.915L175.603 134.673L175.31 134.941L174.783 135.468L173.979 136.302L173.471 136.872L172.843 137.615L172.34 138.256L171.798 138.985L171.315 139.675L170.812 140.441L170.376 141.141L169.882 142.003L169.508 142.689L168.962 143.785L168.684 144.37C168.401 145.007 168.137 145.644 167.899 146.29L167.679 146.951L167.357 147.923L167.166 148.632L166.927 149.566C166.827 150.017 166.73 150.468 166.658 150.918L166.635 151.081L166.481 152.325L166.447 152.695C166.414 153.155 166.391 153.614 166.391 154.07L166.278 307.427L162.682 305.325L162.791 151.961C162.797 151.511 162.82 151.051 162.854 150.586L162.853 150.586Z" fill="#EAEAE9"/>
<path d="M179.118 314.799C172.018 318.867 166.268 315.566 166.277 307.426L166.39 154.073C166.393 145.929 172.153 136.036 179.253 131.969L283.533 72.2566L283.4 255.093L179.119 314.799L179.118 314.799Z" fill="#C0C4C7"/>
<path d="M197.779 156.617L252.902 125.051L252.82 237.341L197.779 268.865V156.617Z" fill="#95A4CD"/>
<path d="M324.604 326.164L320.542 323.781L320.696 78.801L324.753 81.1759L324.604 326.164Z" fill="#31519C"/>
<path d="M324.604 326.164L324.753 81.1753L327.729 79.4752C328.661 78.9382 329.423 79.3789 329.423 80.4569L329.281 321.539C329.276 322.608 328.514 323.921 327.579 324.456L324.604 326.163L324.604 326.164Z" fill="#95A4CD"/>
<path d="M320.335 328.601L316.277 326.22L316.427 81.2379L320.489 83.6149L320.335 328.601Z" fill="#BF465A"/>
<path d="M320.337 328.601L320.491 83.6149L324.754 81.1759L324.605 326.164L320.337 328.601Z" fill="#31519C"/>
<path d="M220.756 385.507C212.731 390.1 206.239 386.374 206.243 377.181L206.369 165.494C206.378 156.3 212.884 145.119 220.903 140.524L320.49 83.6149L320.336 328.601L220.756 385.507V385.507Z" fill="#95A4CD"/>
<path d="M344.08 92.7803L348.172 90.4515L347.433 336.444L343.343 338.768L344.08 92.7803Z" fill="#95A4CD"/>
<path d="M343.343 338.768L323.57 327.362L324.313 81.3672L344.081 92.7803L343.343 338.768Z" fill="#31519C"/>
<path d="M213.515 379.389L213.612 379.988L213.631 380.113L213.703 380.337L213.982 381.259L214.039 381.459L214.125 381.627L214.409 382.211L214.528 382.46L214.601 382.56L214.901 382.996L215.074 383.255L215.146 383.322L215.477 383.667L215.702 383.902L215.769 383.954L216.157 384.246L216.417 384.437L216.527 384.5L230.847 392.894L230.488 392.645C232.49 394.052 235.389 394.014 238.636 392.157L339.172 334.704L339.315 93.7955L325 85.4112L224.465 142.862L223.383 143.543L223.034 143.797L222.424 144.248L222.357 144.308C221.907 144.663 221.471 145.052 221.04 145.455L220.934 145.546L220.647 145.842L219.971 146.547L219.785 146.738L219.531 147.039L218.998 147.672L218.788 147.92L218.572 148.218L218.108 148.841L217.887 149.133L217.7 149.424L217.27 150.08L217.053 150.406L216.9 150.679L216.473 151.413L216.267 151.772L216.157 151.998L215.692 152.937L215.506 153.31L215.454 153.43C215.213 153.971 214.988 154.517 214.783 155.073L214.755 155.145L214.596 155.634L214.323 156.463L214.16 157.067L213.953 157.867L213.912 158.04L213.862 158.327L213.652 159.61L213.589 160.084C213.532 160.632 213.495 161.178 213.495 161.709L213.364 377.477V377.692L213.398 378.177L213.436 378.838L213.517 379.389H213.515Z" fill="#FEFEFE"/>
<path d="M344.927 337.987L340.865 335.611L341.013 90.6236L345.076 93.0098L344.927 337.987Z" fill="#31519C"/>
<path d="M340.658 340.43L336.595 338.055L336.748 93.0665L340.806 95.4488L340.658 340.43Z" fill="#BF465A"/>
<path d="M340.657 340.43L340.805 95.4488L345.075 93.0098L344.926 337.987L340.657 340.43Z" fill="#31519C"/>
<path d="M202.31 163.118C202.31 162.606 202.338 162.083 202.377 161.561L202.411 161.15C202.454 160.685 202.516 160.21 202.587 159.737L202.612 159.549L202.862 158.261L202.919 158.031L203.186 156.972L203.402 156.167L203.762 155.074L203.973 154.427L204.016 154.322C204.284 153.593 204.581 152.875 204.907 152.152L204.97 151.994L205.218 151.496L205.832 150.26L205.98 149.963L206.258 149.479L206.819 148.508L207.024 148.147L207.312 147.711L207.876 146.849L208.13 146.466L208.422 146.073L209.03 145.249L209.318 144.861L209.605 144.521L210.309 143.681L210.64 143.289L210.884 143.035L211.794 142.096L212.164 141.703L212.388 141.507L212.724 141.195L213.717 140.333L214.003 140.099L214.138 139.983L214.952 139.389L215.411 139.049C215.881 138.729 216.36 138.426 216.839 138.143L220.901 140.524C220.417 140.802 219.943 141.104 219.473 141.429L219.004 141.771L218.065 142.474L217.773 142.718L216.78 143.576L216.445 143.882L215.852 144.476L214.941 145.414L214.371 146.062L213.662 146.894L213.092 147.624L212.478 148.446L211.932 149.223L211.367 150.086L210.874 150.89L210.317 151.858L209.89 152.635L209.273 153.874L208.962 154.535C208.642 155.25 208.339 155.974 208.075 156.705L207.822 157.444L207.463 158.54L207.247 159.341L206.974 160.409C206.858 160.916 206.754 161.425 206.672 161.923L206.644 162.114C206.571 162.584 206.513 163.054 206.471 163.523L206.438 163.935C206.394 164.457 206.365 164.979 206.365 165.491L206.24 375.688C206.24 376.698 206.24 377.436 206.24 377.47C206.259 378.624 206.378 379.687 206.594 380.665C206.738 381.293 206.916 381.888 207.135 382.442C207.322 382.917 207.533 383.353 207.778 383.764L208.506 384.824L209.33 385.681L210.278 386.391L210.431 386.482L206.368 384.1L206.22 384.013L205.272 383.305L204.443 382.442L203.715 381.388C203.476 380.977 203.26 380.537 203.072 380.067C202.858 379.512 202.676 378.916 202.536 378.28C202.32 377.307 202.196 376.244 202.182 375.084L202.178 374.797L202.306 163.115L202.31 163.118Z" fill="#C0C4C7"/>
<path d="M237.163 149.943L336.749 93.0382L340.683 90.7866L324.365 81.3672L320.489 83.5904L220.903 140.495L216.841 138.109L316.427 81.2102L320.696 78.7673L323.666 77.0613C324.135 76.7928 324.566 76.7697 324.873 76.9517L328.394 79.016L328.398 79.012L348.171 90.4178L348.08 90.4706C348.08 90.4706 348.52 90.9977 348.05 91.2708L345.076 92.9762L340.806 95.4151L241.226 152.32L237.163 149.944V149.943Z" fill="#C0C4C7"/>
<path d="M222.7 173.39L222.733 172.978C222.781 172.508 222.833 172.039 222.91 171.564L222.934 171.377L223.183 170.085L223.236 169.859L223.509 168.796L223.725 167.995L224.089 166.892L224.295 166.256L224.339 166.151C224.606 165.427 224.904 164.699 225.224 163.98L225.292 163.828L225.54 163.324L226.154 162.083L226.302 161.791L226.581 161.308L227.136 160.335L227.347 159.981L227.629 159.54L228.2 158.678L228.448 158.294L228.741 157.896L229.353 157.078L229.641 156.689L229.923 156.349L230.632 155.51L230.963 155.113L231.202 154.869L232.112 153.92L232.486 153.536L232.707 153.33L233.043 153.023L234.034 152.166L234.326 151.921L234.46 151.816L235.264 151.227L235.734 150.883C236.204 150.557 236.683 150.254 237.162 149.977L241.225 152.354C240.741 152.631 240.266 152.938 239.792 153.258L239.322 153.603L238.384 154.302L238.092 154.547L237.104 155.405L236.769 155.712L236.176 156.305L235.264 157.244L234.69 157.891L233.986 158.729L233.416 159.453L232.798 160.281L232.256 161.058L231.691 161.92L231.197 162.714L230.638 163.687L230.215 164.458L229.598 165.699L229.287 166.36C228.965 167.078 228.663 167.802 228.399 168.53L228.146 169.273L227.788 170.374L227.566 171.175L227.298 172.238C227.183 172.742 227.077 173.254 226.997 173.758L226.967 173.944C226.895 174.42 226.838 174.884 226.795 175.353L226.757 175.769C226.719 176.292 226.69 176.814 226.69 177.321L226.565 389.008V389.294C226.584 390.449 226.703 391.517 226.919 392.491C227.058 393.126 227.24 393.722 227.461 394.272C227.643 394.748 227.859 395.187 228.098 395.595L228.826 396.649L229.66 397.515L230.604 398.224L230.757 398.31L226.693 395.934L226.54 395.839L225.596 395.135L224.768 394.268L224.04 393.219C223.8 392.807 223.586 392.364 223.398 391.891C223.182 391.339 223 390.746 222.857 390.114C222.641 389.14 222.521 388.072 222.507 386.913L222.501 386.631L222.626 174.945C222.626 174.432 222.655 173.91 222.699 173.388L222.7 173.39Z" fill="#C0C4C7"/>
<path d="M241.073 397.34C233.054 401.934 226.557 398.202 226.566 389.009L226.692 177.323C226.702 168.125 233.202 156.948 241.227 152.354L340.807 95.4489L340.659 340.43L241.073 397.34V397.34Z" fill="#95A4CD"/>
<path d="M362.337 382.01L358.274 379.633L358.428 134.646L362.486 137.027L362.337 382.01Z" fill="#B08638"/>
<path d="M362.339 382.01L362.488 137.027L365.462 135.327C366.396 134.786 367.158 135.227 367.158 136.309L367.01 377.386C367.01 378.46 366.248 379.771 365.308 380.302L362.339 382.01V382.01Z" fill="#FCB63B"/>
<path d="M358.068 384.453L354.01 382.072L354.158 137.089L358.221 139.47L358.068 384.453Z" fill="#BF465A"/>
<path d="M358.068 384.453L358.222 139.47L362.486 137.027L362.337 382.01L358.068 384.453Z" fill="#B08638"/>
<path d="M258.487 441.357C250.463 445.952 243.966 442.22 243.976 433.027L244.101 221.341C244.11 212.147 250.615 200.969 258.636 196.381L358.222 139.47L358.068 384.453L258.487 441.357V441.357Z" fill="#FCB63B"/>
<path d="M381.813 148.63L385.904 146.308L385.166 392.29L381.074 394.623L381.813 148.63Z" fill="#FCB63B"/>
<path d="M381.073 394.623L361.302 383.208L362.041 137.219L381.812 148.63L381.073 394.623Z" fill="#B08638"/>
<path d="M265.414 441.711L265.443 442.421V442.412L265.414 441.711ZM267.192 447.556L266.97 447.265L267.205 447.577L267.191 447.557L267.192 447.556ZM266.645 446.8L266.463 446.465L266.654 446.809L266.644 446.8H266.645ZM266.171 445.867L266.046 445.545L266.176 445.879L266.17 445.867H266.171ZM265.75 444.574L265.726 444.497L265.75 444.577V444.575V444.574ZM265.519 443.327L265.563 443.634V443.619L265.519 443.327ZM267.814 448.189L267.557 447.941L267.83 448.204L267.814 448.189ZM251.244 435.235L251.344 435.839L251.363 435.962L251.435 436.189L251.713 437.108L251.771 437.311L251.852 437.476L252.139 438.062L252.254 438.306L252.331 438.409L252.634 438.846L252.807 439.1L252.879 439.168L253.209 439.517L253.435 439.752L253.501 439.801L253.89 440.096L254.148 440.283L254.263 440.356L268.578 448.739L268.22 448.49C270.222 449.907 273.12 449.861 276.364 448.005L376.904 390.556L377.048 149.645L362.733 141.262L262.198 198.708L261.116 199.388L260.765 199.647L260.157 200.097L260.085 200.156C259.64 200.514 259.2 200.899 258.773 201.304L258.667 201.392L258.385 201.692L257.704 202.392L257.517 202.589L257.263 202.886L256.736 203.524L256.521 203.777L256.305 204.064L255.841 204.693L255.625 204.985L255.434 205.277L255.002 205.932L254.787 206.255L254.633 206.532L254.207 207.265L254.001 207.619L253.891 207.849L253.426 208.789L253.239 209.162L253.192 209.282C252.947 209.824 252.722 210.37 252.515 210.921L252.482 210.998L252.323 211.486L252.05 212.315L251.893 212.919L251.686 213.719L251.643 213.886L251.595 214.173L251.38 215.457L251.322 215.936C251.266 216.482 251.226 217.024 251.226 217.56L251.097 433.328V433.549L251.13 434.022L251.169 434.689L251.246 435.235L251.244 435.235Z" fill="#FEFEFE"/>
<path d="M382.656 393.844L378.598 391.457L378.745 146.48L382.807 148.855L382.656 393.844Z" fill="#B08638"/>
<path d="M378.391 396.281L374.328 393.899L374.482 148.923L378.539 151.298L378.391 396.281Z" fill="#BF465A"/>
<path d="M378.392 396.281L378.539 151.298L382.808 148.855L382.656 393.844L378.392 396.281Z" fill="#B08638"/>
<path d="M240.042 218.969C240.042 218.452 240.07 217.934 240.109 217.407L240.143 216.996C240.185 216.531 240.243 216.061 240.319 215.592L240.348 215.4C240.415 214.974 240.497 214.543 240.588 214.107L240.65 213.877L240.918 212.819L241.134 212.014L241.494 210.922L241.705 210.28L241.748 210.174C242.015 209.446 242.313 208.722 242.639 207.999L242.701 207.846L242.949 207.347L243.568 206.106L243.711 205.815L243.99 205.331L244.549 204.363L244.756 204.005L245.043 203.569L245.608 202.696L245.862 202.312L246.154 201.92L246.762 201.101L247.05 200.707L247.332 200.372L248.04 199.534L248.371 199.136L248.615 198.888L249.526 197.944L249.894 197.56L250.12 197.354L250.451 197.047L251.447 196.19L251.734 195.95L251.869 195.836L252.682 195.242L253.143 194.902C253.612 194.58 254.092 194.274 254.57 194.001L258.633 196.382C258.15 196.655 257.675 196.956 257.206 197.278L256.736 197.627L255.797 198.327L255.504 198.571L254.513 199.424L254.177 199.735L253.583 200.325L252.672 201.265L252.104 201.911L251.394 202.755L250.825 203.473L250.211 204.301L249.665 205.078L249.1 205.945L248.606 206.741L248.051 207.709L247.624 208.49L247.007 209.725L246.696 210.387C246.373 211.1 246.078 211.823 245.809 212.556L245.555 213.298L245.196 214.395L244.975 215.2L244.708 216.259C244.591 216.771 244.486 217.274 244.405 217.778L244.376 217.969C244.304 218.439 244.247 218.913 244.204 219.377L244.166 219.79C244.128 220.317 244.099 220.835 244.099 221.342L243.974 431.542C243.974 432.552 243.974 433.29 243.974 433.32C243.989 434.473 244.113 435.546 244.328 436.516C244.467 437.151 244.649 437.748 244.87 438.298C245.056 438.767 245.272 439.206 245.511 439.62L246.24 440.675L247.063 441.536L248.012 442.24L248.166 442.335L244.108 439.949L243.949 439.863L243.006 439.159L242.177 438.29L241.449 437.238C241.209 436.825 240.995 436.387 240.807 435.917C240.586 435.36 240.409 434.77 240.27 434.138C240.05 433.165 239.931 432.096 239.915 430.942L239.91 430.65L240.04 218.969H240.042Z" fill="#FEC34B"/>
<path d="M274.896 205.794L378.411 146.632L362.099 137.218L258.636 196.342L254.573 193.966L361.399 132.912C361.869 132.643 362.294 132.62 362.607 132.796L385.812 146.321C385.812 146.321 386.253 146.848 385.784 147.117L278.96 208.175L274.896 205.795V205.794Z" fill="#FEC34B"/>
<path d="M260.433 229.241L260.467 228.824C260.508 228.36 260.567 227.89 260.643 227.416L260.667 227.229C260.74 226.798 260.821 226.372 260.912 225.936L260.974 225.711L261.242 224.646L261.458 223.847L261.822 222.744L262.028 222.107L262.07 222.001C262.339 221.273 262.637 220.549 262.963 219.831L263.024 219.674L263.268 219.18L263.886 217.939L264.029 217.642L264.312 217.158L264.869 216.19L265.08 215.826L265.362 215.396L265.933 214.528L266.181 214.145L266.472 213.747L267.086 212.929L267.374 212.54L267.656 212.195L268.365 211.357L268.696 210.963L268.936 210.715L269.845 209.777L270.219 209.389L270.439 209.178L270.775 208.875L271.768 208.012L272.059 207.774L272.194 207.663L272.998 207.074L273.468 206.729C273.938 206.403 274.412 206.102 274.896 205.823L278.959 208.204C278.474 208.482 278 208.789 277.526 209.106L277.056 209.451L276.118 210.154L275.826 210.394L274.839 211.256L274.503 211.562L273.904 212.151L272.998 213.095L272.424 213.737L271.715 214.585L271.15 215.305L270.531 216.128L269.994 216.904L269.42 217.771L268.926 218.572L268.37 219.544L267.949 220.315L267.331 221.555L267.021 222.212C266.698 222.931 266.397 223.649 266.128 224.377L265.879 225.129L265.52 226.221L265.299 227.027L265.032 228.086C264.917 228.593 264.81 229.102 264.729 229.609L264.701 229.792C264.629 230.265 264.572 230.736 264.528 231.203L264.491 231.616C264.453 232.143 264.424 232.661 264.424 233.173L264.299 444.858V445.147C264.318 446.305 264.437 447.37 264.653 448.341C264.791 448.974 264.973 449.568 265.194 450.124C265.377 450.593 265.591 451.035 265.832 451.446L266.56 452.5L267.388 453.362L268.332 454.071L268.491 454.163L264.428 451.782L264.275 451.692L263.331 450.981L262.502 450.124L261.774 449.065C261.534 448.658 261.32 448.217 261.132 447.742C260.912 447.191 260.73 446.596 260.59 445.96C260.376 444.993 260.254 443.924 260.241 442.763L260.235 442.481L260.361 230.792C260.361 230.284 260.389 229.757 260.433 229.239V229.241Z" fill="#FEC34B"/>
<path d="M278.805 453.19C270.785 457.778 264.29 454.048 264.299 444.859L264.424 233.173C264.428 223.976 270.934 212.794 278.959 208.209L378.539 151.298L378.392 396.281L278.805 453.19V453.19Z" fill="#FCB63B"/>
<path d="M234.193 410.131L155.068 364.088C149.276 360.719 139.921 360.719 134.086 364.088L103.966 381.841C98.1397 385.205 98.0579 390.653 103.85 394.019L182.979 440.06C188.724 443.398 198.175 443.398 204.007 440.026L234.126 422.281C239.962 418.918 239.942 413.465 234.193 410.132V410.131Z" fill="#F1F1F0"/>
<path d="M234.126 422.28L204.006 440.031C201.103 441.708 197.3 442.546 193.5 442.55C189.677 442.56 185.864 441.736 182.979 440.06L103.851 394.019C100.985 392.349 99.5574 390.178 99.5488 387.999L99.568 394.049C99.5732 396.232 101.005 398.408 103.87 400.067L182.995 446.11C185.88 447.783 189.683 448.616 193.501 448.606C197.304 448.602 201.118 447.764 204.026 446.085L234.146 428.337C237.073 426.645 238.53 424.427 238.52 422.219L238.501 416.164C238.511 418.374 237.059 420.589 234.127 422.28H234.126Z" fill="#C4C7CC"/>
<path d="M131.743 343.539L195.316 380.352L205.785 374.267L142.211 337.45L131.743 343.539Z" fill="#29485B"/>
<path d="M131.623 386.574L195.192 423.387L195.316 380.352L131.743 343.539L131.623 386.574Z" fill="#C4C7CC"/>
<path d="M344.946 171.386L50.6195 1.45354C47.6732 -0.242586 45.0001 -0.405536 43.0744 0.710699L32.6113 6.78996C34.5331 5.67372 37.2056 5.83667 40.1525 7.54137L334.479 177.472C340.267 180.811 344.99 188.936 344.971 195.638L344.481 456.525C344.477 459.855 343.289 462.202 341.387 463.309L351.86 457.225C353.757 456.123 354.939 453.771 354.949 450.436L355.438 189.558C355.457 182.851 350.728 174.725 344.946 171.386V171.386Z" fill="#95A4CD"/>
<path d="M334.478 177.472L40.1517 7.54133C34.3198 4.1735 29.5626 6.82819 29.5442 13.5302L29.0606 274.412C29.0415 281.11 33.765 289.298 39.5949 292.665L333.922 462.59C339.704 465.93 344.467 463.223 344.481 456.525L344.97 195.638C344.989 188.936 340.266 180.811 334.478 177.472V177.472Z" fill="#F1F1F0"/>
<path d="M40.708 267.567L332.836 436.227V195.705L40.708 27.045V267.567Z" fill="#4A79BB"/>
<path d="M268.957 367.966C265.526 376.624 267.754 389.468 273.931 396.661C280.105 403.846 287.895 402.655 291.325 394C294.756 385.34 292.527 372.49 286.352 365.305C280.177 358.119 272.388 359.311 268.957 367.966Z" fill="#F2973C"/>
<path d="M241.345 353.115C237.915 361.767 240.138 374.617 246.314 381.807C252.493 388.994 260.284 387.801 263.714 379.144C267.139 370.489 264.917 357.639 258.741 350.454C252.561 343.267 244.772 344.455 241.345 353.115V353.115Z" fill="#F28E39"/>
<path fill-rule="evenodd" clip-rule="evenodd" d="M20.9551 47.5068L45.8625 61.4485V56.8582L20.9551 42.9125V47.5068Z" fill="#F1F1F0"/>
<path fill-rule="evenodd" clip-rule="evenodd" d="M55.3242 66.7374L88.9465 85.5504V80.9608L55.3242 62.1471V66.7374Z" fill="#C4C7CC"/>
<path fill-rule="evenodd" clip-rule="evenodd" d="M5.79785 51.6933L37.7768 69.5919V64.9977L5.79785 47.1043V51.6933Z" fill="#C4C7CC"/>
<path fill-rule="evenodd" clip-rule="evenodd" d="M44.1709 73.1663L60.9533 82.5553V77.967L44.1709 68.576V73.1663Z" fill="#C4C7CC"/>
<path fill-rule="evenodd" clip-rule="evenodd" d="M68.1592 86.5901L88.9467 98.2176V93.6326L68.1592 82.0005V86.5901Z" fill="#F1F1F0"/>
<path fill-rule="evenodd" clip-rule="evenodd" d="M16.1797 68.8261L52.5312 89.1677V84.5735L16.1797 64.2358V68.8261Z" fill="#C4C7CC"/>
<path fill-rule="evenodd" clip-rule="evenodd" d="M57.9551 92.2043L68.8107 98.275V93.6847L57.9551 87.61V92.2043Z" fill="#C4C7CC"/>
<path fill-rule="evenodd" clip-rule="evenodd" d="M5.79785 75.2398L30.3887 88.9995V84.4105L5.79785 70.6509V75.2398Z" fill="#C4C7CC"/>
<path fill-rule="evenodd" clip-rule="evenodd" d="M35.2988 91.7458L48.2285 98.9796V94.3893L35.2988 87.1555V91.7458Z" fill="#F1F1F0"/>
<path fill-rule="evenodd" clip-rule="evenodd" d="M53.7686 102.079L69.7593 111.022V106.434L53.7686 97.4886V102.079Z" fill="#C4C7CC"/>
<path fill-rule="evenodd" clip-rule="evenodd" d="M32.1475 101.331L60.9532 117.447V112.859L32.1475 96.7411V101.331Z" fill="#C4C7CC"/>
<path fill-rule="evenodd" clip-rule="evenodd" d="M0 106.011L33.7707 124.911V120.322L0 101.422V106.011Z" fill="#F1F1F0"/>
<path fill-rule="evenodd" clip-rule="evenodd" d="M5.79785 97.9109L37.7768 115.81V111.215L5.79785 93.3206V97.9109Z" fill="#C4C7CC"/>
<path fill-rule="evenodd" clip-rule="evenodd" d="M44.1709 119.383L60.9533 128.768V124.179L44.1709 114.794V119.383Z" fill="#F1F1F0"/>
<path fill-rule="evenodd" clip-rule="evenodd" d="M68.1592 132.802L88.9467 144.434V139.845L68.1592 128.212V132.802Z" fill="#C4C7CC"/>
<path fill-rule="evenodd" clip-rule="evenodd" d="M40.1621 128.491L69.7588 145.048V140.458L40.1621 123.9V128.491Z" fill="#C4C7CC"/>
<path fill-rule="evenodd" clip-rule="evenodd" d="M21.7891 130.815L68.2744 156.823V152.229L21.7891 126.22V130.815Z" fill="#C4C7CC"/>
<path fill-rule="evenodd" clip-rule="evenodd" d="M21.7891 141.248L46.1549 154.878V150.293L21.7891 136.654V141.248Z" fill="#C4C7CC"/>
<path fill-rule="evenodd" clip-rule="evenodd" d="M9.7832 145.882L52.5313 169.796V165.177L9.7832 141.262V145.882Z" fill="#C4C7CC"/>
<path fill-rule="evenodd" clip-rule="evenodd" d="M57.9551 172.834L68.8107 178.908V174.286L57.9551 168.216V172.834Z" fill="#F1F1F0"/>
<path fill-rule="evenodd" clip-rule="evenodd" d="M24.8262 165.619L63.5652 187.293V182.703L24.8262 161.025V165.619Z" fill="#C4C7CC"/>
<path fill-rule="evenodd" clip-rule="evenodd" d="M69.3281 190.517L80.9061 196.993V192.399L69.3281 185.927V190.517Z" fill="#C4C7CC"/>
<path fill-rule="evenodd" clip-rule="evenodd" d="M35.2988 183.713L48.2285 190.948V186.353L35.2988 179.119V183.713Z" fill="#F1F1F0"/>
<path fill-rule="evenodd" clip-rule="evenodd" d="M53.7686 194.042L69.7593 202.991V198.397L53.7686 189.453V194.042Z" fill="#C4C7CC"/>
<path fill-rule="evenodd" clip-rule="evenodd" d="M32.1475 193.3L60.9532 209.416V204.822L32.1475 188.705V193.3Z" fill="#C4C7CC"/>
<path fill-rule="evenodd" clip-rule="evenodd" d="M21.7891 199.432L88.9465 237.011V232.417L21.7891 194.838V199.432Z" fill="#F1F1F0"/>
<path fill-rule="evenodd" clip-rule="evenodd" d="M21.7891 210.106L46.1549 223.741V219.15L21.7891 205.512V210.106Z" fill="#C4C7CC"/>
<path fill-rule="evenodd" clip-rule="evenodd" d="M52.5508 227.32L67.3726 235.608V231.019L52.5508 222.725V227.32Z" fill="#C4C7CC"/>
<path fill-rule="evenodd" clip-rule="evenodd" d="M74.5791 239.642L88.9477 247.685V243.091L74.5791 235.051V239.642Z" fill="#C4C7CC"/>
<path fill-rule="evenodd" clip-rule="evenodd" d="M9.7832 214.71L52.5313 238.626V234.036L9.7832 210.121V214.71Z" fill="#F1F1F0"/>
<path fill-rule="evenodd" clip-rule="evenodd" d="M57.9551 241.662L68.8107 247.738V243.143L57.9551 237.074V241.662Z" fill="#C4C7CC"/>
<path d="M213.085 148.823L213.158 148.769C216.262 146.378 215.27 140.586 211.399 138.526L199.724 132.298C196.006 130.316 191.948 130.52 188.994 132.855L187.542 133.99L89.4795 77.1661L90.0389 277.708L320.854 411.869L320.424 211.246L213.086 148.823H213.085Z" fill="#31519C"/>
<path d="M196.149 150.58L196.481 325.215C196.471 351.204 220.803 382.434 242.86 394.335L289.982 419.78L289.561 236.221L196.149 150.58V150.58Z" fill="#FEFEFE"/>
<path d="M202.803 319.226C202.799 327.715 206.07 337.742 212.073 347.852L212.677 340.109C206.392 329.752 202.956 319.437 202.956 310.747L202.803 319.226H202.803Z" fill="#EAEAE9"/>
<path d="M216.971 346.571C216.77 349.192 216.569 351.808 216.362 354.424C224.4 365.725 234.86 375.479 244.81 380.855L265.128 391.825C265.344 389.081 265.56 386.345 265.771 383.604L244.969 372.375C235.2 367.101 224.953 357.609 216.972 346.571H216.971Z" fill="#EAEAE9"/>
<path d="M201.482 306.66C201.482 309.98 201.994 313.53 202.958 317.228L203.508 310.185C202.282 305.969 201.64 301.922 201.64 298.185L201.482 306.66Z" fill="#EAEAE9"/>
<path d="M213.363 330.724C211.097 327.298 209.142 323.867 207.51 320.476C207.313 322.995 207.116 325.521 206.92 328.04C208.639 331.728 210.738 335.471 213.21 339.198C219.606 348.846 227.855 357.538 236.24 363.664L236.871 355.525C228.325 349.387 219.883 340.549 213.362 330.723L213.363 330.724Z" fill="#EAEAE9"/>
<path d="M241.435 358.544L240.798 366.726C241.698 367.277 242.595 367.805 243.491 368.288L255.831 374.947C256.042 372.212 256.254 369.47 256.469 366.726L243.645 359.808C242.912 359.411 242.174 358.985 241.436 358.544H241.435Z" fill="#EAEAE9"/>
<path d="M201.213 285.56L201.06 294.036C201.055 303.497 205.123 314.871 212.5 326.134L213.103 318.339L212.94 318.1C205.376 306.688 201.213 295.137 201.213 285.56V285.56Z" fill="#EAEAE9"/>
<path d="M217.441 324.334C217.254 326.729 217.066 329.124 216.88 331.515L216.765 332.14C224.473 342.192 233.983 350.759 243.067 355.664L244.873 356.642C245.087 353.901 245.299 351.162 245.514 348.42L243.22 347.185C234.337 342.39 225.053 334.103 217.441 324.334Z" fill="#EAEAE9"/>
<path d="M249.534 358.434L249.408 359.089L268.155 369.208C268.366 366.471 268.582 363.728 268.793 360.993L250.119 350.914C249.925 353.417 249.73 355.923 249.533 358.434H249.534Z" fill="#EAEAE9"/>
<path d="M273.402 363.478C273.186 366.218 272.975 368.953 272.76 371.695L281.891 376.623L281.872 368.053L273.402 363.478H273.402Z" fill="#EAEAE9"/>
<path d="M201.371 282.427C201.367 290.912 204.644 300.944 210.642 311.049L211.241 303.31C204.96 292.953 201.524 282.638 201.524 273.948L201.371 282.427Z" fill="#EAEAE9"/>
<path d="M215.538 309.774C215.337 312.393 215.13 315.005 214.93 317.626C222.969 328.931 233.427 338.68 243.378 344.051L263.7 355.023C263.911 352.287 264.126 349.541 264.337 346.801L243.531 335.571C233.766 330.308 223.515 320.808 215.539 309.774H215.538Z" fill="#EAEAE9"/>
<path d="M268.946 349.292L268.304 357.514L282.202 365.012L282.183 356.441L268.946 349.292Z" fill="#EAEAE9"/>
<path d="M200.054 269.866C200.054 273.176 200.557 276.736 201.524 280.43L202.07 273.387C200.85 269.166 200.207 265.123 200.207 261.382L200.054 269.866H200.054Z" fill="#EAEAE9"/>
<path d="M211.93 293.922C209.664 290.502 207.71 287.066 206.071 283.683C205.875 286.203 205.678 288.723 205.481 291.242C207.206 294.932 209.304 298.673 211.777 302.407C218.172 312.045 226.421 320.744 234.806 326.862L235.438 318.728C226.892 312.596 218.45 303.747 211.93 293.922V293.922Z" fill="#EAEAE9"/>
<path d="M240.004 321.745L239.373 329.93C240.268 330.48 241.164 331.007 242.061 331.49L254.397 338.154C254.612 335.408 254.823 332.674 255.039 329.933L242.214 323.011C241.481 322.615 240.743 322.188 240.004 321.745Z" fill="#EAEAE9"/>
<path d="M259.642 332.42L259.006 340.634L280.885 352.45L280.865 343.875L259.642 332.42Z" fill="#EAEAE9"/>
<path d="M199.782 248.758L199.628 257.243C199.624 266.7 203.691 278.069 211.069 289.336L211.672 281.542L211.509 281.298C203.945 269.891 199.782 258.341 199.782 248.758Z" fill="#EAEAE9"/>
<path d="M216.007 287.535C215.82 289.93 215.634 292.32 215.447 294.716L215.331 295.339C223.04 305.4 232.546 313.96 241.633 318.867L243.439 319.838C243.655 317.104 243.866 314.363 244.076 311.624L241.787 310.386C232.904 305.591 223.619 297.299 216.007 287.535V287.535Z" fill="#EAEAE9"/>
<path d="M248.101 321.635L247.977 322.288L266.723 332.405C266.933 329.67 267.15 326.936 267.36 324.189L248.686 314.109C248.489 316.615 248.297 319.131 248.101 321.634V321.635Z" fill="#EAEAE9"/>
<path d="M271.969 326.68C271.752 329.416 271.542 332.161 271.326 334.896L280.457 339.827L280.438 331.251L271.968 326.681L271.969 326.68Z" fill="#EAEAE9"/>
<path d="M199.939 245.629C199.934 254.114 203.206 264.142 209.209 274.255L209.812 266.508C203.527 256.15 200.093 245.842 200.093 237.151L199.939 245.63V245.629Z" fill="#EAEAE9"/>
<path d="M214.111 272.976C213.904 275.591 213.698 278.213 213.497 280.828C221.536 292.134 231.994 301.884 241.945 307.253L262.262 318.225C262.479 315.484 262.689 312.75 262.905 310.008L242.099 298.774C232.335 293.503 222.089 284.014 214.111 272.976L214.111 272.976Z" fill="#EAEAE9"/>
<path d="M267.513 312.496L266.871 320.71L280.769 328.213L280.75 319.639L267.513 312.496Z" fill="#EAEAE9"/>
<path d="M198.621 233.064C198.617 236.379 199.128 239.934 200.093 243.632L200.643 236.589C199.417 232.37 198.77 228.331 198.774 224.584L198.621 233.063V233.064Z" fill="#EAEAE9"/>
<path d="M210.501 257.124C208.231 253.707 206.277 250.272 204.643 246.885C204.446 249.404 204.245 251.925 204.049 254.445C205.769 258.128 207.873 261.875 210.344 265.603C216.735 275.246 224.989 283.942 233.374 290.059L234.007 281.929C225.459 275.792 217.018 266.954 210.502 257.123L210.501 257.124Z" fill="#EAEAE9"/>
<path d="M238.573 284.948L237.935 293.126C238.836 293.676 239.732 294.207 240.628 294.686L252.963 301.351C253.18 298.616 253.39 295.872 253.606 293.13L240.781 286.213C240.047 285.815 239.31 285.394 238.573 284.948H238.573Z" fill="#EAEAE9"/>
<path d="M258.21 295.621L257.572 303.838L279.452 315.651L279.433 307.077L258.21 295.621Z" fill="#EAEAE9"/>
<path d="M198.348 211.965L198.195 220.439C198.19 229.902 202.253 241.276 209.635 252.534L210.239 244.739L210.076 244.5C202.512 233.093 198.348 221.546 198.348 211.966L198.348 211.965Z" fill="#EAEAE9"/>
<path d="M214.574 250.731C214.387 253.127 214.201 255.522 214.019 257.914L213.899 258.541C221.608 268.601 231.112 277.162 240.2 282.063L242.006 283.045C242.222 280.3 242.433 277.566 242.648 274.825L240.353 273.589C231.47 268.792 222.187 260.504 214.574 250.731L214.574 250.731Z" fill="#EAEAE9"/>
<path d="M246.669 284.842L246.544 285.49L265.286 295.611C265.501 292.871 265.717 290.131 265.927 287.39L247.253 277.305C247.062 279.821 246.865 282.326 246.669 284.841V284.842Z" fill="#EAEAE9"/>
<path d="M270.531 289.878C270.32 292.622 270.11 295.358 269.894 298.099L279.025 303.024L279.006 294.453L270.531 289.878V289.878Z" fill="#EAEAE9"/>
<path d="M198.507 208.832C198.501 217.316 201.774 227.347 207.776 237.451L208.375 229.711C202.094 219.357 198.655 209.043 198.66 200.352L198.507 208.832Z" fill="#EAEAE9"/>
<path d="M212.672 236.178C212.471 238.793 212.266 241.414 212.063 244.029C220.103 255.33 230.561 265.085 240.512 270.455L260.834 281.431C261.045 278.686 261.257 275.946 261.471 273.21L240.665 261.975C230.902 256.706 220.65 247.215 212.672 236.177L212.672 236.178Z" fill="#EAEAE9"/>
<path d="M266.076 275.692L265.438 283.914L279.336 291.415L279.317 282.844L266.076 275.692Z" fill="#EAEAE9"/>
<path d="M197.185 196.266C197.185 199.585 197.698 203.135 198.661 206.833L199.207 199.792C197.985 195.576 197.344 191.528 197.344 187.786L197.185 196.266H197.185Z" fill="#EAEAE9"/>
<path d="M209.065 220.33C206.799 216.905 204.844 213.469 203.206 210.082C203.01 212.603 202.813 215.127 202.621 217.647C204.336 221.335 206.44 225.077 208.911 228.805C215.307 238.448 223.557 247.143 231.94 253.267L232.573 245.132C224.022 238.994 215.58 230.156 209.065 220.33H209.065Z" fill="#EAEAE9"/>
<path d="M237.14 248.145L236.503 256.328C237.403 256.879 238.3 257.41 239.191 257.895L251.531 264.554C251.748 261.813 251.958 259.073 252.174 256.333L239.349 249.411C238.615 249.019 237.878 248.593 237.141 248.145L237.14 248.145Z" fill="#EAEAE9"/>
<path d="M256.777 258.818L256.14 267.046L278.019 278.855L278 270.279L256.777 258.818Z" fill="#EAEAE9"/>
<path d="M196.916 175.162L196.763 183.641C196.757 193.098 200.825 204.477 208.203 215.74L208.807 207.945L208.638 207.706C201.079 196.293 196.91 184.744 196.916 175.161V175.162Z" fill="#EAEAE9"/>
<path d="M213.143 213.938C212.956 216.33 212.769 218.724 212.582 221.115L212.468 221.743C220.176 231.799 229.68 240.369 238.769 245.27L240.574 246.243C240.785 243.507 241.001 240.771 241.211 238.027L238.922 236.786C230.041 231.991 220.756 223.703 213.143 213.938Z" fill="#EAEAE9"/>
<path d="M245.236 248.04L245.11 248.691L263.852 258.814C264.067 256.074 264.279 253.333 264.493 250.593L245.82 240.514C245.624 243.019 245.431 245.535 245.236 248.04V248.04Z" fill="#EAEAE9"/>
<path d="M269.103 253.085C268.888 255.826 268.677 258.56 268.461 261.296L277.592 266.231L277.573 257.655L269.103 253.085H269.103Z" fill="#EAEAE9"/>
<path d="M197.069 172.034C197.069 180.517 200.342 190.545 206.34 200.654L206.944 192.911C200.663 182.554 197.223 172.243 197.228 163.548L197.069 172.033V172.034Z" fill="#EAEAE9"/>
<path d="M211.241 199.379C211.04 202 210.834 204.616 210.634 207.227C218.672 218.538 229.13 228.287 239.081 233.657L259.403 244.629C259.616 241.888 259.826 239.153 260.042 236.407L239.234 225.174C229.471 219.908 219.219 210.413 211.243 199.379L211.241 199.379Z" fill="#EAEAE9"/>
<path d="M264.644 238.899L264.007 247.115L277.905 254.618L277.886 246.046L264.644 238.899Z" fill="#EAEAE9"/>
<path d="M68.2588 289.485C68.2588 289.485 108.44 317.501 119.256 325.464C140.297 340.947 183.994 355.683 196.389 326.143L196.632 151.606L76.2928 110.242L68.2588 289.485V289.485Z" fill="#FEFEFE"/>
<path d="M74.7852 279.137C80.2509 282.954 90.6143 290.198 100.498 297.159L101.11 289.269C91.1843 282.279 80.749 274.983 75.2555 271.15L74.7852 279.137V279.137Z" fill="#EAEAE9"/>
<path d="M175.582 320.069C159.774 323.7 136.462 314.78 122.553 304.542C120.163 302.789 116.393 300.082 111.956 296.941L111.343 304.82C115.836 308.012 119.67 310.755 122.079 312.532C135.992 322.777 159.303 331.692 175.108 328.059C182.088 326.46 187.109 322.527 190.069 316.371L190.075 309.277C187.076 314.918 182.208 318.551 175.582 320.069V320.069Z" fill="#EAEAE9"/>
<path d="M176.02 308.106C167.919 309.971 157.843 308.528 148.076 305.309L147.458 313.249C157.274 316.501 167.406 317.972 175.551 316.098C182.522 314.493 187.552 310.565 190.507 304.409L190.517 297.319C187.514 302.958 182.646 306.588 176.02 308.107L176.02 308.106Z" fill="#EAEAE9"/>
<path d="M75.695 259.188L75.2207 267.175C85.5973 274.422 113.615 294.017 122.521 300.571C126.497 303.493 131.245 306.315 136.36 308.764L136.974 300.838C131.8 298.38 127.005 295.536 122.989 292.58C114.083 286.027 86.0677 266.437 75.695 259.188V259.188Z" fill="#EAEAE9"/>
<path d="M75.6553 255.215C80.4217 258.541 88.9162 264.477 97.5637 270.552C97.7689 267.927 97.9694 265.296 98.1759 262.665C89.4769 256.553 80.9198 250.57 76.125 247.221L75.6553 255.215Z" fill="#EAEAE9"/>
<path d="M101.981 265.344C101.775 267.974 101.57 270.599 101.369 273.23C110.247 279.476 118.739 285.504 122.956 288.604C133.333 296.24 148.94 303.144 162.763 304.652L163.38 296.68C149.52 295.21 133.84 288.282 123.425 280.618C119.234 277.532 110.812 271.559 101.981 265.345V265.344Z" fill="#EAEAE9"/>
<path d="M177.884 295.775L177.257 303.813C183.57 302.031 188.17 298.224 190.943 292.44L190.954 285.35C188.17 290.582 183.787 294.075 177.885 295.775H177.884Z" fill="#EAEAE9"/>
<path d="M75.71 242.414C81.1757 246.233 91.5391 253.477 101.421 260.433L102.035 252.543C92.1078 245.562 81.6738 238.262 76.1797 234.424L75.71 242.414Z" fill="#EAEAE9"/>
<path d="M176.503 283.348C160.698 286.979 137.385 278.058 123.478 267.821C121.089 266.058 117.312 263.36 112.886 260.213L112.273 268.099C116.767 271.289 120.595 274.035 123.004 275.807C136.917 286.045 160.229 294.968 176.033 291.333C183.008 289.734 188.04 285.805 190.99 279.649L191.004 272.555C187.996 278.194 183.133 281.829 176.503 283.348V283.348Z" fill="#EAEAE9"/>
<path d="M176.94 271.386C168.843 273.245 158.768 271.807 149 268.583L148.383 276.522C158.198 279.779 168.331 281.25 176.475 279.377C183.45 277.772 188.476 273.843 191.431 267.687L191.441 260.597C188.437 266.235 183.57 269.866 176.94 271.386V271.386Z" fill="#EAEAE9"/>
<path d="M76.6142 222.467L76.1445 230.452C86.5212 237.695 114.537 257.296 123.444 263.844C127.421 266.771 132.168 269.589 137.284 272.042L137.902 264.118C132.727 261.656 127.928 258.81 123.912 255.854C115.007 249.3 86.9909 229.711 76.6142 222.467V222.467Z" fill="#EAEAE9"/>
<path d="M76.585 218.491C81.3481 221.819 89.8426 227.756 98.4888 233.83C98.6952 231.2 98.9017 228.57 99.1023 225.945C90.4033 219.827 81.8462 213.848 77.0553 210.499L76.585 218.491V218.491Z" fill="#EAEAE9"/>
<path d="M102.907 228.617C102.701 231.248 102.499 233.878 102.293 236.509C111.176 242.756 119.67 248.783 123.881 251.881C134.258 259.518 149.866 266.421 163.688 267.93L164.306 259.953C150.451 258.488 134.766 251.555 124.35 243.894C120.159 240.809 111.737 234.831 102.907 228.617V228.617Z" fill="#EAEAE9"/>
<path d="M178.802 259.049L178.179 267.087C184.493 265.311 189.094 261.496 191.872 255.714L191.876 248.629C189.093 253.856 184.704 257.348 178.802 259.049Z" fill="#EAEAE9"/>
<path d="M77.6592 205.052C83.1196 208.871 93.4831 216.114 103.367 223.076L103.979 215.184C94.0537 208.195 83.6184 200.903 78.1243 197.065L77.6598 205.052H77.6592Z" fill="#EAEAE9"/>
<path d="M178.453 245.989C162.643 249.62 139.331 240.7 125.424 230.458C123.032 228.705 119.263 225.998 114.831 222.855L114.218 230.737C118.712 233.927 122.539 236.672 124.954 238.448C138.867 248.687 162.174 257.608 177.983 253.976C184.957 252.377 189.984 248.448 192.94 242.286L192.95 235.196C189.946 240.84 185.083 244.465 178.453 245.989V245.989Z" fill="#EAEAE9"/>
<path d="M178.889 234.022C170.787 235.885 160.717 234.443 150.949 231.224L150.33 239.163C160.141 242.415 170.279 243.882 178.419 242.013C185.393 240.408 190.42 236.479 193.376 230.323L193.386 223.233C190.382 228.871 185.519 232.502 178.889 234.022Z" fill="#EAEAE9"/>
<path d="M78.5635 185.103L78.0898 193.089C88.4665 200.338 116.488 219.931 125.393 226.486C129.366 229.408 134.113 232.23 139.235 234.679L139.848 226.759C134.674 224.292 129.873 221.452 125.86 218.495C116.958 211.946 88.9421 192.351 78.5635 185.103Z" fill="#EAEAE9"/>
<path d="M78.5322 181.126C83.2987 184.455 91.7878 190.391 100.439 196.472C100.641 193.842 100.847 191.211 101.048 188.586C92.3526 182.468 83.7915 176.49 79.0006 173.141L78.5322 181.126Z" fill="#EAEAE9"/>
<path d="M104.852 191.264C104.647 193.889 104.445 196.515 104.24 199.15C113.121 205.397 121.616 211.42 125.827 214.524C136.203 222.161 151.813 229.059 165.633 230.568L166.257 222.601C152.397 221.125 136.711 214.198 126.297 206.533C122.109 203.447 113.682 197.473 104.852 191.264V191.264Z" fill="#EAEAE9"/>
<path d="M180.752 221.69L180.125 229.73C186.444 227.956 191.038 224.139 193.817 218.357L193.826 211.271C191.038 216.498 186.654 219.991 180.752 221.69V221.69Z" fill="#EAEAE9"/>
<path d="M78.7617 168.015C84.2274 171.834 94.5909 179.071 104.474 186.037L105.086 178.147C95.1609 171.158 84.7255 163.86 79.2314 160.028L78.7617 168.015Z" fill="#EAEAE9"/>
<path d="M179.558 208.947C163.749 212.578 140.438 203.653 126.529 193.42C124.139 191.656 120.369 188.959 115.938 185.812L115.318 193.697C119.814 196.889 123.646 199.629 126.06 201.411C139.968 211.643 163.28 220.57 179.09 216.938C186.06 215.333 191.085 211.399 194.045 205.243L194.056 198.153C191.053 203.797 186.184 207.419 179.558 208.947V208.947Z" fill="#EAEAE9"/>
<path d="M79.9824 133.243C85.4481 137.061 95.8103 144.305 105.693 151.266L106.308 143.376C96.3803 136.384 85.9462 129.089 80.4508 125.255L79.9824 133.243V133.243Z" fill="#EAEAE9"/>
<path d="M180.781 174.176C164.971 177.807 141.665 168.881 127.752 158.648C125.363 156.889 121.591 154.183 117.16 151.041L116.548 158.926C121.042 162.117 124.869 164.862 127.283 166.638C141.19 176.873 164.507 185.798 180.312 182.166C187.282 180.561 192.313 176.632 195.269 170.472L195.279 163.382C192.275 169.025 187.408 172.656 180.781 174.176V174.176Z" fill="#EAEAE9"/>
<path d="M179.991 196.983C171.894 198.842 161.824 197.406 152.051 194.181L151.438 202.125C161.249 205.377 171.382 206.839 179.526 204.975C186.497 203.37 191.527 199.437 194.482 193.28L194.493 186.189C191.489 191.828 186.621 195.455 179.991 196.983V196.983Z" fill="#EAEAE9"/>
<path d="M79.667 148.061L79.1973 156.051C89.5739 163.295 117.591 182.89 126.497 189.439C130.473 192.371 135.221 195.187 140.338 197.636L140.956 189.717C135.782 187.249 130.981 184.413 126.967 181.458C118.065 174.899 90.0476 155.305 79.667 148.061V148.061Z" fill="#EAEAE9"/>
<path d="M79.6338 144.089C84.4009 147.413 92.8953 153.349 101.543 159.429C101.747 156.799 101.949 154.169 102.155 151.543C93.4601 145.425 84.899 139.447 80.1035 136.098L79.6338 144.089V144.089Z" fill="#EAEAE9"/>
<path d="M105.959 154.217C105.754 156.847 105.551 159.472 105.347 162.103C114.224 168.354 122.717 174.377 126.933 177.476C137.31 185.117 152.918 192.022 166.74 193.524L167.358 185.558C153.503 184.078 137.818 177.155 127.404 169.489C123.211 166.409 114.788 160.435 105.959 154.217Z" fill="#EAEAE9"/>
<path d="M181.855 184.643L181.232 192.681C187.552 190.909 192.146 187.096 194.92 181.319L194.93 174.228C192.146 179.451 187.762 182.952 181.855 184.643H181.855Z" fill="#EAEAE9"/>
<path d="M289.605 236.187L289.489 420.152L313.093 402.039L312.672 218.49L289.605 236.187Z" fill="#95A4CD"/>
<path d="M220.549 193.578C240.972 211.357 289.234 236.47 289.234 236.47L312.671 218.491L196.149 150.58C196.149 150.58 200.126 175.8 220.549 193.578V193.578Z" fill="#EAEAE9"/>
<path d="M76.293 110.242C76.293 110.242 131.335 147.285 155.102 155.405C178.868 163.52 196.014 150.681 196.014 150.681L98.5418 93.1821L76.2936 110.242H76.293Z" fill="#EAEAE9"/>
<path d="M170.303 246.588L170.188 419.401L183.774 393.962C190.131 382.066 197.145 350.83 197.145 324.84L197.231 153.713C196.954 179.344 190.099 209.517 183.875 221.172L170.303 246.588V246.588Z" fill="#F1F1F0"/>
<path d="M270.378 386.087L269.736 394.306L283.634 401.815L283.615 393.238L270.378 386.087Z" fill="#EAEAE9"/>
<path d="M261.075 369.217L260.437 377.439L282.317 389.247L282.298 380.672L261.075 369.217Z" fill="#EAEAE9"/>
</svg>
