<svg width="72" height="166" viewBox="0 0 72 166" fill="none" xmlns="http://www.w3.org/2000/svg">
<path d="M62.0094 94.1316C75.7301 85.8782 75.2595 72.7274 60.9591 64.7497C46.6599 56.7731 23.9493 57.0041 10.2264 65.2574C-3.48993 73.5195 -3.01816 86.6725 11.2822 94.6502C25.576 102.62 48.2931 102.391 62.0094 94.1316V94.1316Z" fill="#95A4CD"/>
<path d="M21.2404 0L21.4714 0.679879L21.7536 1.50467C21.9235 2.0015 22.1425 2.65523 22.3114 3.15316C22.4759 3.64454 22.7004 4.29936 22.8693 4.79184L23.146 5.61445L23.4478 6.49589L20.5703 6.31176C20.6673 4.23944 20.7643 2.15949 20.8623 0.0860744L21.2415 0.00108955L21.2404 0Z" fill="#4A79BB"/>
<path d="M23.4475 6.49591L26.4579 14.9802C26.1049 15.0314 25.9982 14.9541 25.4349 14.7187C24.0882 14.1554 22.0551 14.2219 20.8882 15.1175C20.3761 15.5119 19.6341 16.5917 19.6123 17.0177C19.7714 13.6586 20.412 9.66541 20.57 6.31178C20.9339 5.69183 23.1403 5.97293 23.4475 6.49591V6.49591Z" fill="#FEFEFE"/>
<path d="M38.5096 144.582L20.2314 14.8059L19.5918 16.9665L37.8744 146.744L38.5096 144.582Z" fill="#4A79BB"/>
<path d="M41.9298 143.537L23.6515 13.7567L20.2314 14.8059L38.5097 144.582L41.9298 143.537Z" fill="#95A4CD"/>
<path d="M44.721 144.649L26.4383 14.8768L23.6523 13.7567L41.9306 143.537L44.721 144.649Z" fill="#4A79BB"/>
<path d="M0.36282 19.1562L3.31114 25.358L0.433641 25.5061C0.285462 23.4382 0 19.2903 0 19.2903L0.36282 19.1562V19.1562Z" fill="#FCB63B"/>
<path d="M3.31196 25.3581L7.29644 33.4251C6.95214 33.5188 6.83992 33.4578 6.25156 33.2824C4.84822 32.8826 2.83691 33.1854 1.78114 34.2151C1.32135 34.6651 0.705756 35.8265 0.738442 36.2471C0.50201 32.8989 0.671979 28.8545 0.435547 25.5063C0.723188 24.846 2.95023 24.8711 3.31305 25.3581H3.31196Z" fill="#EAEAE9"/>
<path d="M1.78015 34.2151C0.721104 35.2436 0.99676 36.4062 2.40555 36.8049C3.80344 37.2048 5.80058 36.6916 6.85418 35.6631C7.9154 34.6346 7.63212 33.4775 6.23422 33.0722C4.83197 32.6734 2.83483 33.1855 1.78015 34.2151V34.2151Z" fill="#C0C4C7"/>
<path d="M34.4431 160.724L1.09412 33.9788L0.713867 36.2004L34.065 162.943L34.4431 160.724Z" fill="#B08638"/>
<path d="M37.7157 159.282L4.36458 32.5405L1.09375 33.9787L34.4427 160.724L37.7157 159.282Z" fill="#FCB63B"/>
<path d="M40.6133 160.065L7.26332 33.3185L4.36621 32.5405L37.7173 159.282L40.6133 160.065Z" fill="#B08638"/>
<path d="M11.2831 94.6492C25.5769 102.619 48.294 102.39 62.0104 94.1306C67.8776 90.6037 71.1452 86.1812 71.8501 81.6498L60.7465 152.829C60.2486 155.978 57.9823 159.049 53.9063 161.504C44.3727 167.238 28.5928 167.403 18.6605 161.862C14.1247 159.331 11.5904 156.05 11.0837 152.686L0.378906 81.4438C1.10564 86.2891 4.75563 91.0079 11.2842 94.6492H11.2831Z" fill="#C0C4C7"/>
</svg>
