<svg width="75" height="43" viewBox="0 0 75 43" fill="none" xmlns="http://www.w3.org/2000/svg">
<g filter="url(#filter0_d_166_182)">
<path d="M51.4545 0H24.5455C11.5417 0 1 9.40202 1 21C1 32.598 11.5417 42 24.5455 42H51.4545C64.4583 42 75 32.598 75 21C75 9.40202 64.4583 0 51.4545 0Z" fill="#D69C32"/>
</g>
<path d="M55 41C66.0457 41 75 32.0457 75 21C75 9.9543 66.0457 1 55 1C43.9543 1 35 9.9543 35 21C35 32.0457 43.9543 41 55 41Z" fill="#FEC34B"/>
<path d="M59 21C59 23.2091 57.2091 25 55 25C52.7909 25 51 23.2091 51 21C51 18.7909 52.7909 17 55 17C57.2091 17 59 18.7909 59 21Z" fill="#F1F1F1"/>
<path d="M55 12V13M55 29V30M64 21H63M47 21H46M61.364 27.364L60.6569 26.6569M49.3431 15.3431L48.636 14.636M61.364 14.6361L60.6569 15.3432M49.3432 26.6569L48.6361 27.364M59 21C59 23.2091 57.2091 25 55 25C52.7909 25 51 23.2091 51 21C51 18.7909 52.7909 17 55 17C57.2091 17 59 18.7909 59 21Z" stroke="#F1F1F1" stroke-width="2" stroke-linecap="round" stroke-linejoin="round"/>
<defs>
<filter id="filter0_d_166_182" x="0" y="0" width="75" height="43" filterUnits="userSpaceOnUse" color-interpolation-filters="sRGB">
<feFlood flood-opacity="0" result="BackgroundImageFix"/>
<feColorMatrix in="SourceAlpha" type="matrix" values="0 0 0 0 0 0 0 0 0 0 0 0 0 0 0 0 0 0 127 0" result="hardAlpha"/>
<feOffset dx="-1" dy="1"/>
<feComposite in2="hardAlpha" operator="out"/>
<feColorMatrix type="matrix" values="0 0 0 0 0 0 0 0 0 0 0 0 0 0 0 0 0 0 0.3 0"/>
<feBlend mode="normal" in2="BackgroundImageFix" result="effect1_dropShadow_166_182"/>
<feBlend mode="normal" in="SourceGraphic" in2="effect1_dropShadow_166_182" result="shape"/>
</filter>
</defs>
</svg>
